<?xml version="1.0" standalone="no"?>
<!DOCTYPE svg PUBLIC "-//W3C//DTD SVG 1.1//EN" "http://www.w3.org/Graphics/SVG/1.1/DTD/svg11.dtd" >
<svg>
<metadata>
Created by FontForge 20090622 at Wed Jan 18 10:22:07 2017
 By deploy user
Copyright &#194;&#169; 2014 Monotype Imaging Inc. All rights reserved.
</metadata>
<defs>
<font id="HelveticaNeueLTW1G-Th" horiz-adv-x="519" >
  <font-face 
    font-family="HelveticaNeueLT W1G 35 Th"
    font-weight="250"
    font-stretch="normal"
    units-per-em="1000"
    panose-1="2 11 4 3 2 2 2 2 2 4"
    ascent="714"
    descent="-286"
    x-height="514"
    cap-height="714"
    bbox="-169 -248 1041 949"
    underline-thickness="50"
    underline-position="-75"
    unicode-range="U+000D-U+FB04"
  />
<missing-glyph horiz-adv-x="512" 
d="M512 718v-718h-512v718h512zM462 50v617h-412v-617h412zM259 609q54 0 89 -36t35 -95q0 -38 -16 -65t-48 -56q-34 -32 -41 -48.5t-7 -74.5h-46l-2 37q0 32 11 56.5t52 67.5l30.5 33t15.5 46q0 35 -22.5 60t-53.5 25q-70 0 -82 -95l-50 8q14 137 135 137zM222 184h56v-67
h-56v67z" />
    <glyph glyph-name="napostrophe" unicode="&#x22;n" horiz-adv-x="598" 
d="M359 526q183 0 183 -200v-326h-38v330q0 163 -146 163q-83 0 -134 -59.5t-51 -156.5v-277h-38v514h38v-110h2q20 57 71 89.5t113 32.5zM29 714h51v-103q0 -100 -64 -126v33q31 14 34 93h-21v103z" />
    <glyph glyph-name="IJ" unicode="IJ" horiz-adv-x="646" 
d="M63 714h44v-714h-44v714zM539 714h44v-518q0 -110 -48 -161.5t-148 -51.5q-106 0 -154 54.5t-48 172.5v17h44q-1 -16 -1 -32q0 -91 37.5 -132.5t116.5 -41.5q83 0 120 40.5t37 139.5v513z" />
    <glyph glyph-name="ij" unicode="ij" horiz-adv-x="332" 
d="M65 714h38v-103h-38v103zM65 514h38v-514h-38v514zM229 714h38v-103h-38v103zM229 514h38v-571q0 -68 -26.5 -97.5t-81.5 -29.5q-16 0 -29 1v33q14 -2 27 -2q41 0 56.5 23t15.5 73v570z" />
    <glyph glyph-name="fi" unicode="fi" horiz-adv-x="389" 
d="M205 722q21 0 45 -5v-33q-29 5 -45 5q-75 0 -75 -70v-105h107v-33h-107v-481h-38v481h-92v33h92v107q0 50 31 75.5t82 25.5zM286 714h38v-103h-38v103zM286 514h38v-514h-38v514z" />
    <glyph glyph-name="fl" unicode="fl" horiz-adv-x="389" 
d="M205 722q21 0 45 -5v-33q-29 5 -45 5q-75 0 -75 -70v-105h107v-33h-107v-481h-38v481h-92v33h92v107q0 50 31 75.5t82 25.5zM286 714h38v-714h-38v714z" />
    <glyph glyph-name="f_f" unicode="ff" horiz-adv-x="448" 
d="M205 722q16 0 45 -5v-33q-28 5 -46 5q-74 0 -74 -70v-105h169v109q0 46 30.5 72.5t82.5 26.5q14 0 45 -5v-33q-34 5 -45 5q-75 0 -75 -70v-105h107v-33h-107v-481h-38v481h-169v-481h-38v481h-92v33h92v109q0 46 30.5 72.5t82.5 26.5z" />
    <glyph glyph-name="f_f_i" unicode="ffi" horiz-adv-x="596" 
d="M205 722q16 0 45 -5v-33q-28 5 -46 5q-74 0 -74 -70v-105h169v109q0 46 30.5 72.5t82.5 26.5q14 0 45 -5v-33q-34 5 -45 5q-75 0 -75 -70v-105h107v-33h-107v-481h-38v481h-169v-481h-38v481h-92v33h92v109q0 46 30.5 72.5t82.5 26.5zM493 714h38v-103h-38v103zM493 514
h38v-514h-38v514z" />
    <glyph glyph-name="f_f_l" unicode="ffl" horiz-adv-x="596" 
d="M205 722q16 0 45 -5v-33q-28 5 -46 5q-74 0 -74 -70v-105h169v109q0 46 30.5 72.5t82.5 26.5q14 0 45 -5v-33q-34 5 -45 5q-75 0 -75 -70v-105h107v-33h-107v-481h-38v481h-169v-481h-38v481h-92v33h92v109q0 46 30.5 72.5t82.5 26.5zM493 714h38v-714h-38v714z" />
    <glyph glyph-name=".notdef" horiz-adv-x="512" 
d="M512 718v-718h-512v718h512zM462 50v617h-412v-617h412zM259 609q54 0 89 -36t35 -95q0 -38 -16 -65t-48 -56q-34 -32 -41 -48.5t-7 -74.5h-46l-2 37q0 32 11 56.5t52 67.5l30.5 33t15.5 46q0 35 -22.5 60t-53.5 25q-70 0 -82 -95l-50 8q14 137 135 137zM222 184h56v-67
h-56v67z" />
    <glyph glyph-name="null" horiz-adv-x="0" 
 />
    <glyph glyph-name="nonmarkingreturn" unicode="&#xd;" horiz-adv-x="278" 
 />
    <glyph glyph-name="space" unicode=" " horiz-adv-x="278" 
 />
    <glyph glyph-name="exclam" unicode="!" horiz-adv-x="259" 
d="M106 714h48v-241l-12 -290h-24l-12 290v241zM104 103h51v-103h-51v103z" />
    <glyph glyph-name="quotedbl" unicode="&#x22;" horiz-adv-x="315" 
d="M80 714h38v-229h-38v229zM197 714h38v-229h-38v229z" />
    <glyph glyph-name="numbersign" unicode="#" horiz-adv-x="556" 
d="M212 690h33l-31 -220h169l31 220h33l-31 -220h110v-33h-115l-24 -173h111v-33h-116l-32 -231h-33l32 231h-169l-32 -231h-33l32 231h-117v33h122l24 173h-118v33h123zM185 264h169l24 173h-169z" />
    <glyph glyph-name="dollar" unicode="$" horiz-adv-x="556" 
d="M258 780h32v-49q222 -4 232 -220h-38q-5 92 -52.5 136.5t-141.5 46.5v-310l73 -18q91 -22 133.5 -66t42.5 -117q0 -95 -65 -145.5t-184 -54.5v-88h-32v88q-126 11 -186 72.5t-60 179.5h38q1 -98 53 -153t155 -61v333l-70 17q-154 37 -154 170q0 87 57.5 136.5t166.5 53.5
v49zM72 541q0 -63 38.5 -95t147.5 -53v300q-186 -8 -186 -152zM290 21q100 0 155.5 42t55.5 120q0 112 -150 149l-61 15v-326z" />
    <glyph glyph-name="percent" unicode="%" horiz-adv-x="778" 
d="M603 714h40l-465 -738h-40zM207 702q75 0 120 -49.5t45 -129.5q0 -76 -47.5 -126.5t-118.5 -50.5t-118.5 50t-47.5 127q0 78 46.5 128.5t120.5 50.5zM78 523q0 -62 37.5 -103t89.5 -41q53 0 91 41t38 103q0 66 -35.5 106t-93.5 40q-55 0 -91 -40.5t-36 -105.5zM573 344
q73 0 119 -48.5t46 -130.5q0 -75 -47 -126t-119 -51q-73 0 -119.5 50t-46.5 127q0 80 47 129.5t120 49.5zM444 165q0 -57 36 -100.5t91 -43.5t92 42t37 102q0 64 -35 105t-94 41q-55 0 -91 -40.5t-36 -105.5z" />
    <glyph glyph-name="ampersand" unicode="&#x26;" horiz-adv-x="593" 
d="M545 0l-87 106q-71 -118 -204 -118q-96 0 -153.5 48.5t-57.5 133.5q0 43 17 76t45.5 60.5t123.5 87.5q-53 63 -75 103t-22 82q0 51 44 87t106 36q67 0 108.5 -35t41.5 -88q0 -86 -90 -153l-58 -42l170 -209q24 60 24 119h38q-4 -72 -36 -151l116 -143h-51zM262 412
q132 78 132 167q0 38 -35 64t-78 26t-77 -26.5t-34 -63.5q0 -53 52 -115zM249 366q-85 -53 -110.5 -77t-41.5 -52.5t-16 -65.5q0 -66 51 -108t123 -42q58 0 106.5 32.5t71.5 83.5zM138 715z" />
    <glyph glyph-name="quotesingle" unicode="'" horiz-adv-x="204" 
d="M83 714h38v-229h-38v229z" />
    <glyph glyph-name="parenleft" unicode="(" horiz-adv-x="241" 
d="M231 731q-128 -218 -128 -465q0 -248 125 -450h-34q-129 211 -129 450q0 244 131 465h35z" />
    <glyph glyph-name="parenright" unicode=")" horiz-adv-x="241" 
d="M47 731q62 -101 95.5 -217t33.5 -233q0 -242 -131 -465h-35q62 103 95 223t33 242q0 244 -125 450h34z" />
    <glyph glyph-name="asterisk" unicode="*" horiz-adv-x="352" 
d="M161 714h29v-130l122 41l10 -28l-123 -41l76 -102l-22 -20l-77 106l-80 -106l-24 20l81 102l-124 41l9 28l123 -41v130z" />
    <glyph glyph-name="plus" unicode="+" horiz-adv-x="600" 
d="M281 504h38v-233h233v-38h-233v-233h-38v233h-233v38h233v233z" />
    <glyph glyph-name="comma" unicode="," horiz-adv-x="278" 
d="M113 103h51v-103q0 -100 -64 -126v33q18 9 26 35.5t8 52.5v5h-21v103z" />
    <glyph glyph-name="hyphen" unicode="-" horiz-adv-x="352" 
d="M283 291v-38h-214v38h214z" />
    <glyph glyph-name="period" unicode="." horiz-adv-x="278" 
d="M113 103h51v-103h-51v103z" />
    <glyph glyph-name="slash" unicode="/" horiz-adv-x="333" 
d="M305 731h41l-318 -748h-41z" />
    <glyph glyph-name="zero" unicode="0" horiz-adv-x="556" 
d="M278 702q119 0 184.5 -91.5t65.5 -265.5q0 -172 -65 -264.5t-185 -92.5q-119 0 -184.5 92t-65.5 265q0 174 66 265.5t184 91.5zM66 345q0 -154 55.5 -239t156.5 -85q99 0 155.5 84.5t56.5 239.5q0 156 -57 240t-156 84q-101 0 -156 -85.5t-55 -238.5z" />
    <glyph glyph-name="one" unicode="1" horiz-adv-x="556" 
d="M331 690v-690h-38v616q-71 -75 -185 -88v33q124 19 189 129h34z" />
    <glyph glyph-name="two" unicode="2" horiz-adv-x="556" 
d="M281 702q97 0 155.5 -50t58.5 -139q0 -69 -41 -127.5t-135 -123.5l-103 -70q-115 -78 -122 -154h412v-38h-460q4 69 49 129.5t168 141.5q89 58 122 90.5t52.5 70t19.5 82.5q0 67 -50 111t-120 44q-86 0 -135.5 -56t-50.5 -156h-38q12 245 218 245z" />
    <glyph glyph-name="three" unicode="3" horiz-adv-x="556" 
d="M274 702q100 0 160.5 -46.5t60.5 -127.5q0 -64 -37.5 -107t-97.5 -51v-2q68 -8 109.5 -57.5t41.5 -119.5q0 -95 -66 -149t-171 -54q-112 0 -175 58.5t-63 163.5v18h38v-13q0 -89 53 -141.5t147 -52.5q87 0 143 47.5t56 122.5q0 160 -211 160q-9 0 -21 -1v33q8 -1 18 -1
q94 1 146 38.5t52 107.5q0 62 -51 101.5t-132 39.5q-83 0 -130.5 -51.5t-52.5 -145.5h-38q0 102 60.5 166t160.5 64z" />
    <glyph glyph-name="four" unicode="4" horiz-adv-x="556" 
d="M365 690h38v-481h116v-33h-116v-176h-38v176h-336v38zM363 638l-296 -429h298v429h-2z" />
    <glyph glyph-name="five" unicode="5" horiz-adv-x="556" 
d="M479 690v-33h-319l-59 -275l2 -2q59 83 171 83q103 0 168.5 -67.5t65.5 -167.5q0 -105 -66.5 -172.5t-167.5 -67.5q-105 0 -171 59t-66 150v14h38v-9q0 -78 58 -129.5t141 -51.5t139.5 59t56.5 148q0 85 -56 143.5t-140 58.5q-112 0 -177 -97h-39l72 357h349z" />
    <glyph glyph-name="six" unicode="6" horiz-adv-x="556" 
d="M296 702q88 0 144.5 -47t66.5 -135h-38q-13 71 -61 110t-112 39q-106 0 -161 -92t-55 -267l2 -2q23 66 80 107t126 41q99 0 165 -66.5t66 -169.5q0 -99 -65.5 -165.5t-165.5 -66.5q-246 0 -246 324q0 185 63.5 287.5t190.5 102.5zM93 220q0 -85 56.5 -142t138.5 -57
q81 0 137 58.5t56 140.5q0 83 -55.5 143t-138.5 60t-138.5 -59t-55.5 -144z" />
    <glyph glyph-name="seven" unicode="7" horiz-adv-x="556" 
d="M501 690v-38q-153 -168 -216 -313.5t-81 -338.5h-44q14 189 82.5 339.5t220.5 317.5h-407v33h445z" />
    <glyph glyph-name="eight" unicode="8" horiz-adv-x="556" 
d="M278 702q100 0 156.5 -44t56.5 -129q0 -59 -32 -99t-95 -52v-2q75 -9 114 -57.5t39 -120.5q0 -98 -64 -154t-175 -56q-110 0 -174.5 56t-64.5 154q0 74 40 121.5t113 56.5v2q-63 13 -95 52.5t-32 98.5q0 86 58 129.5t155 43.5zM103 529q0 -64 47 -100.5t128 -36.5
t128 36.5t47 100.5q0 67 -45.5 103.5t-130.5 36.5q-83 0 -128.5 -36t-45.5 -104zM77 198q0 -82 54 -129.5t147 -47.5q91 0 146 47t55 130q0 78 -54 119.5t-148 41.5q-93 0 -146.5 -41.5t-53.5 -119.5z" />
    <glyph glyph-name="nine" unicode="9" horiz-adv-x="556" 
d="M279 702q241 0 241 -323q0 -189 -63.5 -290t-190.5 -101q-91 0 -146.5 48.5t-64.5 133.5h38q14 -72 60.5 -110.5t112.5 -38.5q103 0 158.5 88.5t57.5 262.5l-2 2q-26 -66 -77.5 -103t-123.5 -37q-103 0 -168 65t-65 171q0 102 65.5 167t167.5 65zM84 470q0 -85 57.5 -144
t137.5 -59q83 0 139 58.5t56 144.5q0 82 -56 140.5t-140 58.5q-80 0 -137 -59t-57 -140z" />
    <glyph glyph-name="colon" unicode=":" horiz-adv-x="278" 
d="M113 514h51v-103h-51v103zM113 103h51v-103h-51v103z" />
    <glyph glyph-name="semicolon" unicode=";" horiz-adv-x="278" 
d="M113 514h51v-103h-51v103zM113 103h51v-101q0 -104 -64 -128v33q34 16 34 93h-21v103z" />
    <glyph glyph-name="less" unicode="&#x3c;" horiz-adv-x="600" 
d="M554 514v-42l-475 -218l475 -220v-42l-508 236v52z" />
    <glyph glyph-name="equal" unicode="=" horiz-adv-x="600" 
d="M552 369v-38h-504v38h504zM552 175v-38h-504v38h504z" />
    <glyph glyph-name="greater" unicode="&#x3e;" horiz-adv-x="600" 
d="M46 514l508 -236v-52l-508 -234v42l475 218l-475 220v42z" />
    <glyph glyph-name="question" unicode="?" 
d="M265 731q90 0 143 -48t53 -131q0 -53 -22.5 -93t-76.5 -86q-53 -46 -70.5 -91t-17.5 -101h-38v3q0 62 20.5 110.5t71.5 95.5q50 46 72.5 83t22.5 79q0 69 -45 105t-116 36q-85 0 -132.5 -53t-48.5 -147h-38q0 114 59.5 176t162.5 62zM231 103h51v-103h-51v103z" />
    <glyph glyph-name="at" unicode="@" horiz-adv-x="800" 
d="M415 731q92 0 170.5 -40t123.5 -110.5t45 -160.5q0 -66 -30 -130.5t-85.5 -111t-113.5 -46.5q-28 0 -46 18t-20 53h-2q-49 -71 -133 -71q-54 0 -91.5 42.5t-37.5 108.5q0 70 32.5 141t86 113.5t117.5 42.5q45 0 74.5 -26t37.5 -65h2l23 71h41l-104 -319q-8 -26 -8 -37
q0 -14 11.5 -24t28.5 -10q66 0 122.5 83.5t56.5 169.5q0 114 -88 194.5t-211 80.5q-88 0 -166 -47t-122.5 -127.5t-44.5 -170.5q0 -136 99.5 -236.5t235.5 -100.5q80 0 153 40t122 112h44q-44 -83 -131.5 -134t-187.5 -51q-101 0 -187 49.5t-136 136.5t-50 191
q0 97 49.5 183.5t135.5 137t184 50.5zM233 287q0 -55 28.5 -88.5t73.5 -33.5q42 0 84.5 41.5t70 106t27.5 116.5q0 118 -93 118q-48 0 -92 -38.5t-71.5 -101t-27.5 -120.5z" />
    <glyph glyph-name="A" unicode="A" horiz-adv-x="593" 
d="M275 714h48l282 -714h-47l-90 229h-342l-91 -229h-47zM299 671l-159 -404h314l-153 404h-2z" />
    <glyph glyph-name="B" unicode="B" horiz-adv-x="630" 
d="M354 714q104 0 162 -49t58 -136q0 -55 -36.5 -98.5t-102.5 -53.5l2 -2q77 -10 119 -59t42 -116q0 -92 -65.5 -146t-178.5 -54h-291v714h291zM354 390q81 0 128.5 38.5t47.5 108.5t-48.5 104.5t-133.5 34.5h-241v-286h247zM354 38q95 0 147.5 42.5t52.5 119.5
q0 76 -55 114t-145 38h-247v-314h247z" />
    <glyph glyph-name="C" unicode="C" horiz-adv-x="704" 
d="M376 731q114 0 190 -61t98 -169h-45q-13 85 -81 138.5t-162 53.5q-131 0 -213.5 -94t-82.5 -242q0 -146 81.5 -241t213.5 -95q99 0 173.5 74t82.5 183h44q-11 -124 -95 -209.5t-205 -85.5q-154 0 -246.5 105.5t-92.5 268.5q0 164 93 269t247 105z" />
    <glyph glyph-name="D" unicode="D" horiz-adv-x="667" 
d="M301 714q153 0 239.5 -89.5t86.5 -266.5q0 -166 -86.5 -262t-241.5 -96h-236v714h238zM297 38q134 0 210 83.5t76 236.5q0 318 -293 318h-183v-638h190z" />
    <glyph glyph-name="E" unicode="E" horiz-adv-x="560" 
d="M543 714v-38h-436v-286h410v-38h-410v-314h441v-38h-485v714h480z" />
    <glyph glyph-name="F" unicode="F" horiz-adv-x="514" 
d="M511 714v-38h-404v-286h364v-38h-364v-352h-44v714h448z" />
    <glyph glyph-name="G" unicode="G" horiz-adv-x="741" 
d="M374 731q116 0 197 -64.5t100 -173.5h-42q-26 95 -91.5 147.5t-162.5 52.5q-131 0 -212.5 -95.5t-81.5 -244.5t80 -240.5t214 -91.5q122 0 196.5 74t74.5 199v18h-264v38h301v-350h-38v152h-2q-28 -78 -100.5 -123.5t-169.5 -45.5q-152 0 -244 103t-92 267
q0 105 41.5 192t118 136.5t177.5 49.5z" />
    <glyph glyph-name="H" unicode="H" horiz-adv-x="670" 
d="M63 714h44v-324h456v324h44v-714h-44v352h-456v-352h-44v714z" />
    <glyph glyph-name="I" unicode="I" horiz-adv-x="170" 
d="M63 714h44v-714h-44v714z" />
    <glyph glyph-name="J" unicode="J" horiz-adv-x="481" 
d="M374 714h44v-518q0 -110 -48 -161.5t-148 -51.5q-106 0 -154 54.5t-48 172.5v17h44q-1 -16 -1 -32q0 -91 37.5 -132.5t116.5 -41.5q83 0 120 40.5t37 139.5v513z" />
    <glyph glyph-name="K" unicode="K" horiz-adv-x="613" 
d="M63 714h44v-411l449 411h57l-326 -297l346 -417h-55l-323 387l-148 -135v-252h-44v714z" />
    <glyph glyph-name="L" unicode="L" horiz-adv-x="500" 
d="M63 714h44v-676h405v-38h-449v714z" />
    <glyph glyph-name="M" unicode="M" horiz-adv-x="809" 
d="M126 714l279 -665h2l276 665h63v-714h-44v660h-2l-272 -660h-44l-275 660h-2v-660h-44v714h63z" />
    <glyph glyph-name="N" unicode="N" horiz-adv-x="678" 
d="M63 714h55l451 -655h2v655h44v-714h-52l-454 660h-2v-660h-44v714z" />
    <glyph glyph-name="O" unicode="O" horiz-adv-x="741" 
d="M371 731q150 0 244.5 -103t94.5 -271q0 -167 -93 -270.5t-246 -103.5q-152 0 -246 103.5t-94 270.5q0 164 92.5 269t247.5 105zM75 357q0 -148 81.5 -242t214.5 -94q131 0 213 94.5t82 241.5q0 144 -81 240t-215 96q-130 0 -212.5 -93t-82.5 -243z" />
    <glyph glyph-name="P" unicode="P" horiz-adv-x="591" 
d="M370 714q93 0 149 -49.5t56 -149.5q0 -98 -59.5 -147.5t-164.5 -49.5h-244v-318h-44v714h307zM362 356q78 0 123.5 44t45.5 115q0 75 -44.5 118t-124.5 43h-255v-320h255z" />
    <glyph glyph-name="Q" unicode="Q" horiz-adv-x="741" 
d="M371 731q152 0 245.5 -103.5t93.5 -270.5q0 -180 -107 -283l111 -80l-23 -31l-118 85q-85 -65 -202 -65q-152 0 -246 104t-94 270q0 165 94.5 269.5t245.5 104.5zM75 357q0 -146 81.5 -241t214.5 -95q99 0 167 53l-108 77l23 31l115 -83q98 96 98 258q0 144 -81 240
t-215 96q-133 0 -214 -95t-81 -241z" />
    <glyph glyph-name="R" unicode="R" horiz-adv-x="630" 
d="M364 714q106 0 164.5 -45.5t58.5 -138.5q0 -72 -40.5 -121.5t-112.5 -61.5v-2q77 -11 109.5 -57t32.5 -143v-34q0 -90 21 -111h-49q-7 13 -12 36.5t-5 90.5q0 64 -3 80q-9 55 -46 86.5t-117 31.5h-258v-325h-44v714h301zM365 363q80 0 129 41.5t49 122.5q0 72 -49 110.5
t-139 38.5h-248v-313h258z" />
    <glyph glyph-name="S" unicode="S" horiz-adv-x="630" 
d="M300 731q125 0 196.5 -56t76.5 -165h-44q-3 88 -65 135.5t-164 47.5q-87 0 -141.5 -40.5t-54.5 -111.5q0 -56 42 -92.5t196 -65.5q138 -25 193.5 -72t55.5 -127q0 -90 -69 -145.5t-183 -55.5q-142 0 -221 64t-79 184v5h44v-14q0 -99 68.5 -150t187.5 -51q94 0 151 44.5
t57 118.5q0 65 -50 103t-187 63q-148 27 -199 72.5t-51 118.5q0 88 66.5 139t173.5 51z" />
    <glyph glyph-name="T" unicode="T" 
d="M533 714v-38h-252v-676h-44v676h-251v38h547z" />
    <glyph glyph-name="U" unicode="U" horiz-adv-x="672" 
d="M63 714h44v-433q0 -123 55.5 -191.5t169.5 -68.5q120 0 176.5 64.5t56.5 195.5v433h44v-433q0 -298 -278 -298q-268 0 -268 298v433z" />
    <glyph glyph-name="V" unicode="V" horiz-adv-x="556" 
d="M-14 714h46l245 -676h2l247 676h44l-267 -714h-51z" />
    <glyph glyph-name="W" unicode="W" horiz-adv-x="889" 
d="M39 714l186 -667h2l189 667h55l192 -667h2l183 667h47l-205 -714h-50l-196 676h-2l-193 -676h-49l-206 714h45z" />
    <glyph glyph-name="X" unicode="X" horiz-adv-x="556" 
d="M1 714h51l226 -314l231 314h50l-252 -347l266 -367h-53l-242 334l-243 -334h-52l268 367z" />
    <glyph glyph-name="Y" unicode="Y" horiz-adv-x="574" 
d="M-21 714h50l258 -378l259 378h49l-287 -415v-299h-44v299z" />
    <glyph glyph-name="Z" unicode="Z" horiz-adv-x="537" 
d="M529 714v-38l-484 -638h493v-38h-539v38l482 638h-453v38h501z" />
    <glyph glyph-name="bracketleft" unicode="[" horiz-adv-x="241" 
d="M231 731v-33h-99v-849h99v-33h-137v915h137z" />
    <glyph glyph-name="backslash" unicode="\" horiz-adv-x="333" 
d="M-13 731h41l318 -748h-41z" />
    <glyph glyph-name="bracketright" unicode="]" horiz-adv-x="241" 
d="M147 731v-915h-137v33h99v849h-99v33h137z" />
    <glyph glyph-name="asciicircum" unicode="^" horiz-adv-x="600" 
d="M275 690h52l234 -453h-42l-218 420l-220 -420h-42z" />
    <glyph glyph-name="underscore" unicode="_" horiz-adv-x="500" 
d="M500 -75v-50h-500v50h500z" />
    <glyph glyph-name="grave" unicode="`" horiz-adv-x="167" 
d="M-30 730h51l120 -140h-37z" />
    <glyph glyph-name="a" unicode="a" horiz-adv-x="500" 
d="M257 526q94 0 136 -37t42 -93v-317q0 -46 34 -46q11 0 28 3v-32q-14 -4 -31 -4q-38 0 -53.5 17t-15.5 52v33h-2q-22 -54 -74 -84t-117 -30q-172 0 -172 145q0 69 47.5 108t165.5 46q105 7 129 24.5t24 74.5q0 107 -143 107q-69 0 -111 -33.5t-47 -103.5h-38
q8 170 198 170zM70 133q0 -54 34.5 -83t100.5 -29q91 0 141.5 52.5t50.5 132.5v86q-16 -18 -48 -24.5t-102 -11.5q-103 -8 -140 -38t-37 -85z" />
    <glyph glyph-name="b" unicode="b" horiz-adv-x="556" 
d="M65 714h38v-309h2q21 57 74.5 89t120.5 32q103 0 163 -68.5t60 -188.5q0 -132 -59 -206.5t-165 -74.5q-68 0 -123 36.5t-71 90.5h-2v-115h-38v714zM104 269q0 -114 53 -181t143 -67q85 0 135 66.5t50 181.5q0 99 -52 161.5t-135 62.5q-91 0 -142.5 -60t-51.5 -164z" />
    <glyph glyph-name="c" unicode="c" 
d="M269 526q90 0 147 -45t65 -126h-38q-6 66 -54 102t-120 36q-86 0 -142 -64.5t-56 -166.5q0 -114 53.5 -177.5t144.5 -63.5q70 0 120 45.5t59 114.5h38q-12 -90 -72 -141.5t-145 -51.5q-110 0 -173 73.5t-63 200.5q0 116 64.5 190t171.5 74z" />
    <glyph glyph-name="d" unicode="d" horiz-adv-x="556" 
d="M453 714h38v-714h-38v110h-2q-66 -122 -197 -122q-104 0 -163 73t-59 195q0 127 61.5 198.5t167.5 71.5q69 0 119.5 -35t70.5 -92h2v315zM70 256q0 -104 51 -169.5t141 -65.5q85 0 137.5 65t52.5 170q0 107 -53 172t-139 65q-91 0 -140.5 -65t-49.5 -172z" />
    <glyph glyph-name="e" unicode="e" 
d="M265 526q102 0 162 -71.5t60 -186.5l-1 -16h-415q0 -109 51.5 -170t137.5 -61q147 0 184 153h38q-38 -186 -223 -186q-106 0 -166.5 72t-60.5 193q0 122 63.5 197.5t169.5 75.5zM448 285q-4 93 -54 150.5t-130 57.5t-132 -56.5t-60 -151.5h376z" />
    <glyph glyph-name="f" unicode="f" horiz-adv-x="241" 
d="M205 722q21 0 45 -5v-33q-29 5 -45 5q-75 0 -75 -70v-105h107v-33h-107v-481h-38v481h-92v33h92v107q0 50 31 75.5t82 25.5z" />
    <glyph glyph-name="g" unicode="g" horiz-adv-x="537" 
d="M255 526q63 0 114 -32t72 -87h2v107h38v-491q0 -102 -53.5 -160.5t-167.5 -58.5q-194 0 -202 160h38q6 -64 50.5 -95.5t113.5 -31.5q92 0 137.5 49.5t45.5 128.5v121h-2q-56 -117 -186 -117q-105 0 -163.5 68t-58.5 186q0 112 61 182.5t161 70.5zM71 273
q0 -98 50.5 -159.5t133.5 -61.5t135 60.5t52 160.5q0 101 -51.5 160.5t-136.5 59.5q-81 0 -132 -62.5t-51 -157.5z" />
    <glyph glyph-name="h" unicode="h" 
d="M56 714h38v-310h2q20 55 69.5 88.5t114.5 33.5q183 0 183 -201v-325h-38v330q0 163 -146 163q-82 0 -133.5 -57.5t-51.5 -153.5v-282h-38v714z" />
    <glyph glyph-name="i" unicode="i" horiz-adv-x="168" 
d="M65 714h38v-103h-38v103zM65 514h38v-514h-38v514z" />
    <glyph glyph-name="j" unicode="j" horiz-adv-x="168" 
d="M65 714h38v-103h-38v103zM65 514h38v-571q0 -68 -26.5 -97.5t-81.5 -29.5q-16 0 -29 1v33q14 -2 27 -2q41 0 56.5 23t15.5 73v570z" />
    <glyph glyph-name="k" unicode="k" horiz-adv-x="463" 
d="M58 714h38v-473l317 273h55l-225 -192l241 -322h-52l-219 293l-117 -99v-194h-38v714z" />
    <glyph glyph-name="l" unicode="l" horiz-adv-x="168" 
d="M65 714h38v-714h-38v714z" />
    <glyph glyph-name="m" unicode="m" horiz-adv-x="796" 
d="M258 526q62 0 102.5 -28t52.5 -81h2q26 58 65 83.5t98 25.5q76 0 118.5 -46t42.5 -126v-354h-38v357q0 66 -34.5 101t-88.5 35q-75 0 -118 -50.5t-43 -134.5v-308h-38v357q0 67 -34.5 101.5t-86.5 34.5q-69 0 -116 -53t-47 -130v-310h-38v514h38v-105h2q14 52 60 84.5
t101 32.5z" />
    <glyph glyph-name="n" unicode="n" 
d="M280 526q183 0 183 -200v-326h-38v330q0 163 -146 163q-83 0 -134 -59.5t-51 -156.5v-277h-38v514h38v-110h2q20 57 71 89.5t113 32.5z" />
    <glyph glyph-name="o" unicode="o" horiz-adv-x="537" 
d="M268 526q106 0 171 -75.5t65 -193.5q0 -119 -64 -194t-172 -75q-106 0 -171 74t-65 195q0 119 65 194t171 75zM70 257q0 -101 54.5 -168.5t143.5 -67.5q87 0 142.5 65.5t55.5 170.5q0 103 -55 169.5t-144 66.5q-87 0 -142 -67t-55 -169z" />
    <glyph glyph-name="p" unicode="p" horiz-adv-x="556" 
d="M292 526q107 0 169 -75t62 -195q0 -126 -59.5 -197t-171.5 -71q-143 0 -187 119h-2v-291h-38v698h38v-118h2q20 58 69.5 94t117.5 36zM104 256q0 -114 47 -174.5t141 -60.5q90 0 141.5 63t51.5 172q0 106 -52 171.5t-142 65.5q-89 0 -138 -63.5t-49 -173.5z" />
    <glyph glyph-name="q" unicode="q" horiz-adv-x="556" 
d="M254 526q134 0 197 -122h2v110h38v-698h-38v299h-2q-21 -61 -74 -94t-116 -33q-109 0 -169 73.5t-60 196.5q0 122 59.5 195t162.5 73zM70 258q0 -108 50.5 -172.5t140.5 -64.5q86 0 138.5 65t52.5 172q0 105 -52.5 170t-138.5 65q-87 0 -139 -65.5t-52 -169.5z" />
    <glyph glyph-name="r" unicode="r" horiz-adv-x="278" 
d="M294 517v-38l-17 1q-74 0 -128.5 -55t-54.5 -143v-282h-38v514h38v-114h3q13 48 66.5 82.5t124.5 34.5h6z" />
    <glyph glyph-name="s" unicode="s" horiz-adv-x="481" 
d="M240 526q91 0 140.5 -42t49.5 -122h-38q0 64 -40 97.5t-112 33.5q-63 0 -105.5 -25.5t-42.5 -73.5q0 -41 33 -68q30 -24 162 -50q83 -17 120.5 -50t37.5 -96q0 -70 -55.5 -106t-145.5 -36q-93 0 -149.5 48.5t-58.5 134.5h38q4 -69 50.5 -109.5t119.5 -40.5q75 0 119 27.5
t44 81.5q0 45 -33.5 71.5t-140.5 46.5q-98 17 -138.5 51t-40.5 95q0 63 50 97.5t136 34.5z" />
    <glyph glyph-name="t" unicode="t" horiz-adv-x="259" 
d="M95 674h38v-160h112v-33h-112v-363q0 -42 18 -63.5t66 -21.5h27v-33q-13 -1 -28 -1q-63 0 -92 27.5t-29 84.5v370h-95v33h95v160z" />
    <glyph glyph-name="u" unicode="u" 
d="M56 514h38v-330q0 -163 146 -163q83 0 134 58t51 154v281h38v-514h-38v110h-2q-22 -59 -73.5 -90.5t-111.5 -31.5q-182 0 -182 197v329z" />
    <glyph glyph-name="v" unicode="v" horiz-adv-x="444" 
d="M-2 514h44l186 -470h2l174 470h42l-194 -514h-47z" />
    <glyph glyph-name="w" unicode="w" horiz-adv-x="704" 
d="M-2 514h41l145 -470h2l140 470h51l141 -470h2l144 470h42l-165 -514h-47l-141 466h-2l-142 -466h-48z" />
    <glyph glyph-name="x" unicode="x" horiz-adv-x="444" 
d="M8 514h53l161 -215l162 215h49l-186 -244l203 -270h-52l-176 241l-180 -241h-48l202 270z" />
    <glyph glyph-name="y" unicode="y" horiz-adv-x="444" 
d="M-6 514h45l191 -469l176 469h43l-219 -566q-23 -58 -39 -83.5t-41.5 -37t-88.5 -11.5h-12v33h8q49 0 76 15t38 39t38 100z" />
    <glyph glyph-name="z" unicode="z" horiz-adv-x="426" 
d="M401 514v-36l-346 -445h362v-33h-408v36l345 445h-318v33h365z" />
    <glyph glyph-name="braceleft" unicode="{" horiz-adv-x="333" 
d="M293 731v-33h-49q-28 0 -39.5 -21.5t-11.5 -75.5v-167q0 -123 -70 -158q35 -24 52.5 -61.5t17.5 -102.5v-166q0 -51 10.5 -74t39.5 -23h50v-33h-53q-45 0 -65 28.5t-20 85.5v169q0 151 -72 155v38q72 4 72 155v168q0 57 19.5 86.5t67.5 29.5h51z" />
    <glyph glyph-name="bar" unicode="|" horiz-adv-x="222" 
d="M92 786h38v-1000h-38v1000z" />
    <glyph glyph-name="braceright" unicode="}" horiz-adv-x="333" 
d="M40 731h52q48 0 67 -29t19 -85v-165q0 -157 72 -160v-38q-72 -5 -72 -160v-164q0 -57 -20 -85.5t-65 -28.5h-53v33h50q28 0 39 22t11 75v163q0 123 70 167q-70 35 -70 161v164q0 54 -11.5 75.5t-39.5 21.5h-49v33z" />
    <glyph glyph-name="asciitilde" unicode="~" horiz-adv-x="600" 
d="M528 284q-53 -85 -121 -85q-42 0 -108 34q-64 34 -98 34q-66 0 -99 -75l-29 30q27 45 55 64t67 19q50 0 113 -34q62 -34 100 -34q26 0 50.5 22t41.5 53z" />
    <glyph glyph-name="uni00A0" unicode="&#xa0;" horiz-adv-x="278" 
 />
    <glyph glyph-name="Agrave" unicode="&#xc0;" horiz-adv-x="593" 
d="M275 714h48l282 -714h-47l-90 229h-342l-91 -229h-47zM299 671l-159 -404h314l-153 404h-2zM156 920h51l120 -140h-37z" />
    <glyph glyph-name="Aacute" unicode="&#xc1;" horiz-adv-x="593" 
d="M275 714h48l282 -714h-47l-90 229h-342l-91 -229h-47zM299 671l-159 -404h314l-153 404h-2zM394 920h51l-134 -140h-37z" />
    <glyph glyph-name="Acircumflex" unicode="&#xc2;" horiz-adv-x="593" 
d="M275 714h48l282 -714h-47l-90 229h-342l-91 -229h-47zM299 671l-159 -404h314l-153 404h-2zM280 920h40l116 -140h-38l-98 115l-97 -115h-38z" />
    <glyph glyph-name="Atilde" unicode="&#xc3;" horiz-adv-x="593" 
d="M275 714h48l282 -714h-47l-90 229h-342l-91 -229h-47zM299 671l-159 -404h314l-153 404h-2zM233 889q30 0 74 -29q42 -28 63 -28q36 0 45 57h29q-6 -46 -26 -68t-50 -22q-28 0 -74 32q-37 25 -63 25q-36 0 -47 -57h-29q3 39 25.5 64.5t52.5 25.5z" />
    <glyph glyph-name="Adieresis" unicode="&#xc4;" horiz-adv-x="593" 
d="M275 714h48l282 -714h-47l-90 229h-342l-91 -229h-47zM299 671l-159 -404h314l-153 404h-2zM199 896h44v-103h-44v103zM357 896h44v-103h-44v103z" />
    <glyph glyph-name="Amacron" unicode="&#x100;" horiz-adv-x="593" 
d="M275 714h48l282 -714h-47l-90 229h-342l-91 -229h-47zM299 671l-159 -404h314l-153 404h-2zM421 861v-33h-242v33h242z" />
    <glyph glyph-name="Abreve" unicode="&#x102;" horiz-adv-x="593" 
d="M275 714h48l282 -714h-47l-90 229h-342l-91 -229h-47zM299 671l-159 -404h314l-153 404h-2zM198 910q11 -45 39 -66t67 -21q37 0 64 22.5t35 64.5h33q-6 -50 -44 -85t-88 -35q-57 0 -94.5 32t-44.5 88h33z" />
    <glyph glyph-name="Aring" unicode="&#xc5;" horiz-adv-x="593" 
d="M275 714h48l282 -714h-47l-90 229h-342l-91 -229h-47zM299 671l-159 -404h314l-153 404h-2zM300 949q42 0 70.5 -28.5t28.5 -70.5q0 -43 -28.5 -71t-70.5 -28t-70.5 28.5t-28.5 70.5t28.5 70.5t70.5 28.5zM228 850q0 -31 21 -51.5t51 -20.5q31 0 51.5 21.5t20.5 50.5
q0 31 -21.5 51.5t-50.5 20.5q-28 0 -50 -20.5t-22 -51.5z" />
    <glyph glyph-name="Aringacute" unicode="&#x1fa;" horiz-adv-x="593" 
d="M347 949h51l-95 -94h-37zM301 839q34 0 57.5 -22.5t23.5 -57.5q0 -53 -48 -74l271 -685h-47l-90 229h-342l-91 -229h-47l276 687q-44 22 -44 72q0 37 24.5 58.5t56.5 21.5zM246 759q0 -23 16 -39t39 -16q24 0 39.5 16t15.5 39q0 22 -15.5 38.5t-40.5 16.5
q-22 0 -38 -15.5t-16 -39.5zM299 673l-159 -406h314l-153 406h-2zM167 714z" />
    <glyph glyph-name="Aogonek" unicode="&#x104;" horiz-adv-x="593" 
d="M275 714h48l282 -714h-22q-40 -35 -61 -63.5t-21 -57.5q0 -19 12.5 -30.5t30.5 -11.5q34 0 58 35l23 -8q-24 -60 -86 -60q-39 0 -60.5 18t-21.5 50q0 61 101 128l-90 229h-342l-91 -229h-47zM299 671l-159 -404h314l-153 404h-2z" />
    <glyph glyph-name="AE" unicode="&#xc6;" horiz-adv-x="870" 
d="M854 714v-38h-379v-286h350v-38h-350v-314h380v-38h-424v254h-268l-132 -254h-40l373 714h490zM384 676l-201 -384h248v384h-47z" />
    <glyph glyph-name="AEacute" unicode="&#x1fc;" horiz-adv-x="870" 
d="M854 714v-38h-379v-286h350v-38h-350v-314h380v-38h-424v254h-268l-132 -254h-40l373 714h490zM384 676l-201 -384h248v384h-47zM648 920h51l-134 -140h-37z" />
    <glyph glyph-name="Cacute" unicode="&#x106;" horiz-adv-x="704" 
d="M376 731q114 0 190 -61t98 -169h-45q-13 85 -81 138.5t-162 53.5q-131 0 -213.5 -94t-82.5 -242q0 -146 81.5 -241t213.5 -95q99 0 173.5 74t82.5 183h44q-11 -124 -95 -209.5t-205 -85.5q-154 0 -246.5 105.5t-92.5 268.5q0 164 93 269t247 105zM456 920h51l-134 -140
h-37z" />
    <glyph glyph-name="Ccircumflex" unicode="&#x108;" horiz-adv-x="704" 
d="M376 731q114 0 190 -61t98 -169h-45q-13 85 -81 138.5t-162 53.5q-131 0 -213.5 -94t-82.5 -242q0 -146 81.5 -241t213.5 -95q99 0 173.5 74t82.5 183h44q-11 -124 -95 -209.5t-205 -85.5q-154 0 -246.5 105.5t-92.5 268.5q0 164 93 269t247 105zM352 920h40l116 -140
h-38l-98 115l-97 -115h-38z" />
    <glyph glyph-name="Ccaron" unicode="&#x10c;" horiz-adv-x="704" 
d="M376 731q114 0 190 -61t98 -169h-45q-13 85 -81 138.5t-162 53.5q-131 0 -213.5 -94t-82.5 -242q0 -146 81.5 -241t213.5 -95q99 0 173.5 74t82.5 183h44q-11 -124 -95 -209.5t-205 -85.5q-154 0 -246.5 105.5t-92.5 268.5q0 164 93 269t247 105zM237 920h38l97 -115
l98 115h38l-116 -140h-40z" />
    <glyph glyph-name="Cdotaccent" unicode="&#x10a;" horiz-adv-x="704" 
d="M376 731q114 0 190 -61t98 -169h-45q-13 85 -81 138.5t-162 53.5q-131 0 -213.5 -94t-82.5 -242q0 -146 81.5 -241t213.5 -95q99 0 173.5 74t82.5 183h44q-11 -124 -95 -209.5t-205 -85.5q-154 0 -246.5 105.5t-92.5 268.5q0 164 93 269t247 105zM351 896h44v-103h-44
v103z" />
    <glyph glyph-name="Ccedilla" unicode="&#xc7;" horiz-adv-x="704" 
d="M376 731q115 0 192 -62.5t95 -167.5h-44q-13 85 -81 138.5t-162 53.5q-132 0 -214 -94.5t-82 -241.5t81 -241.5t214 -94.5q102 0 175 75t81 182h44q-12 -129 -95 -211t-205 -84l-33 -39l1 -1q18 7 38 7q33 0 53.5 -17.5t20.5 -49.5q0 -37 -25.5 -58t-72.5 -21
q-52 0 -92 25l11 24q41 -22 80 -22q29 0 45 14t16 36q0 20 -14.5 31.5t-37.5 11.5q-22 0 -49 -12l-16 13l44 59q-139 12 -223.5 114t-84.5 259q0 106 41.5 191.5t120 134t178.5 48.5z" />
    <glyph glyph-name="Dcaron" unicode="&#x10e;" horiz-adv-x="667" 
d="M301 714q153 0 239.5 -89.5t86.5 -266.5q0 -166 -86.5 -262t-241.5 -96h-236v714h238zM297 38q134 0 210 83.5t76 236.5q0 318 -293 318h-183v-638h190zM155 920h38l97 -115l98 115h38l-116 -140h-40z" />
    <glyph glyph-name="Dcroat" unicode="&#x110;" horiz-adv-x="667" 
d="M302 714q154 0 239.5 -90.5t85.5 -265.5q0 -169 -86.5 -263.5t-240.5 -94.5h-237v355h-76v33h76v326h239zM353 388v-33h-246v-317h191q135 0 210 84t75 236q0 318 -293 318h-183v-288h246z" />
    <glyph glyph-name="Eth" unicode="&#xd0;" horiz-adv-x="667" 
d="M302 714q154 0 239.5 -90.5t85.5 -265.5q0 -169 -86.5 -263.5t-240.5 -94.5h-237v355h-76v33h76v326h239zM353 388v-33h-246v-317h191q135 0 210 84t75 236q0 318 -293 318h-183v-288h246z" />
    <glyph glyph-name="Egrave" unicode="&#xc8;" horiz-adv-x="560" 
d="M543 714v-38h-436v-286h410v-38h-410v-314h441v-38h-485v714h480zM164 920h51l120 -140h-37z" />
    <glyph glyph-name="Eacute" unicode="&#xc9;" horiz-adv-x="560" 
d="M543 714v-38h-436v-286h410v-38h-410v-314h441v-38h-485v714h480zM382 920h51l-134 -140h-37z" />
    <glyph glyph-name="Ecircumflex" unicode="&#xca;" horiz-adv-x="560" 
d="M543 714v-38h-436v-286h410v-38h-410v-314h441v-38h-485v714h480zM278 920h40l116 -140h-38l-98 115l-97 -115h-38z" />
    <glyph glyph-name="Ecaron" unicode="&#x11a;" horiz-adv-x="560" 
d="M543 714v-38h-436v-286h410v-38h-410v-314h441v-38h-485v714h480zM163 920h38l97 -115l98 115h38l-116 -140h-40z" />
    <glyph glyph-name="Edieresis" unicode="&#xcb;" horiz-adv-x="560" 
d="M543 714v-38h-436v-286h410v-38h-410v-314h441v-38h-485v714h480zM197 896h44v-103h-44v103zM355 896h44v-103h-44v103z" />
    <glyph glyph-name="Emacron" unicode="&#x112;" horiz-adv-x="560" 
d="M543 714v-38h-436v-286h410v-38h-410v-314h441v-38h-485v714h480zM419 861v-33h-242v33h242z" />
    <glyph glyph-name="Ebreve" unicode="&#x114;" horiz-adv-x="560" 
d="M543 714v-38h-436v-286h410v-38h-410v-314h441v-38h-485v714h480zM196 910q11 -45 39 -66t67 -21q37 0 64 22.5t35 64.5h33q-6 -50 -44 -85t-88 -35q-57 0 -94.5 32t-44.5 88h33z" />
    <glyph glyph-name="Edotaccent" unicode="&#x116;" horiz-adv-x="560" 
d="M543 714v-38h-436v-286h410v-38h-410v-314h441v-38h-485v714h480zM277 896h44v-103h-44v103z" />
    <glyph glyph-name="Eogonek" unicode="&#x118;" horiz-adv-x="560" 
d="M543 714v-38h-436v-286h410v-38h-410v-314h441v-38h-46q-40 -35 -61 -63.5t-21 -57.5q0 -19 12.5 -30.5t30.5 -11.5q34 0 58 35l23 -8q-24 -60 -86 -60q-39 0 -60.5 18t-21.5 50q0 60 102 128h-415v714h480z" />
    <glyph glyph-name="Gcircumflex" unicode="&#x11c;" horiz-adv-x="741" 
d="M374 731q116 0 197 -64.5t100 -173.5h-42q-26 95 -91.5 147.5t-162.5 52.5q-131 0 -212.5 -95.5t-81.5 -244.5t80 -240.5t214 -91.5q122 0 196.5 74t74.5 199v18h-264v38h301v-350h-38v152h-2q-28 -78 -100.5 -123.5t-169.5 -45.5q-152 0 -244 103t-92 267
q0 105 41.5 192t118 136.5t177.5 49.5zM352 920h40l116 -140h-38l-98 115l-97 -115h-38z" />
    <glyph glyph-name="Gbreve" unicode="&#x11e;" horiz-adv-x="741" 
d="M374 731q116 0 197 -64.5t100 -173.5h-42q-26 95 -91.5 147.5t-162.5 52.5q-131 0 -212.5 -95.5t-81.5 -244.5t80 -240.5t214 -91.5q122 0 196.5 74t74.5 199v18h-264v38h301v-350h-38v152h-2q-28 -78 -100.5 -123.5t-169.5 -45.5q-152 0 -244 103t-92 267
q0 105 41.5 192t118 136.5t177.5 49.5zM270 910q11 -45 39 -66t67 -21q37 0 64 22.5t35 64.5h33q-6 -50 -44 -85t-88 -35q-57 0 -94.5 32t-44.5 88h33z" />
    <glyph glyph-name="Gdotaccent" unicode="&#x120;" horiz-adv-x="741" 
d="M374 731q116 0 197 -64.5t100 -173.5h-42q-26 95 -91.5 147.5t-162.5 52.5q-131 0 -212.5 -95.5t-81.5 -244.5t80 -240.5t214 -91.5q122 0 196.5 74t74.5 199v18h-264v38h301v-350h-38v152h-2q-28 -78 -100.5 -123.5t-169.5 -45.5q-152 0 -244 103t-92 267
q0 105 41.5 192t118 136.5t177.5 49.5zM351 896h44v-103h-44v103z" />
    <glyph glyph-name="Gcommaaccent" unicode="&#x122;" horiz-adv-x="741" 
d="M374 731q116 0 197 -64.5t100 -173.5h-42q-26 95 -91.5 147.5t-162.5 52.5q-131 0 -212.5 -95.5t-81.5 -244.5t80 -240.5t214 -91.5q122 0 196.5 74t74.5 199v18h-264v38h301v-350h-38v152h-2q-28 -78 -100.5 -123.5t-169.5 -45.5q-152 0 -244 103t-92 267
q0 105 41.5 192t118 136.5t177.5 49.5zM341 -50h57v-82q0 -60 -63 -64v20q28 7 31 33h-25v93z" />
    <glyph glyph-name="Hcircumflex" unicode="&#x124;" horiz-adv-x="670" 
d="M63 714h44v-324h456v324h44v-714h-44v352h-456v-352h-44v714zM315 920h40l116 -140h-38l-98 115l-97 -115h-38z" />
    <glyph glyph-name="Hbar" unicode="&#x126;" horiz-adv-x="670" 
d="M63 714h44v-160h456v160h44v-714h-44v333h-456v-333h-44v714zM563 371v150h-456v-150h456z" />
    <glyph glyph-name="Igrave" unicode="&#xcc;" horiz-adv-x="170" 
d="M63 714h44v-714h-44v714zM-58 920h51l120 -140h-37z" />
    <glyph glyph-name="Iacute" unicode="&#xcd;" horiz-adv-x="170" 
d="M63 714h44v-714h-44v714zM179 920h51l-134 -140h-37z" />
    <glyph glyph-name="Ibreve" unicode="&#x12c;" horiz-adv-x="170" 
d="M63 714h44v-714h-44v714zM-17 910q11 -45 39 -66t67 -21q37 0 64 22.5t35 64.5h33q-6 -50 -44 -85t-88 -35q-57 0 -94.5 32t-44.5 88h33z" />
    <glyph glyph-name="Icircumflex" unicode="&#xce;" horiz-adv-x="170" 
d="M63 714h44v-714h-44v714zM65 920h40l116 -140h-38l-98 115l-97 -115h-38z" />
    <glyph glyph-name="Itilde" unicode="&#x128;" horiz-adv-x="170" 
d="M63 714h44v-714h-44v714zM18 889q30 0 74 -29q42 -28 63 -28q36 0 45 57h29q-6 -46 -26 -68t-50 -22q-28 0 -74 32q-37 25 -63 25q-36 0 -47 -57h-29q3 39 25.5 64.5t52.5 25.5z" />
    <glyph glyph-name="Idieresis" unicode="&#xcf;" horiz-adv-x="170" 
d="M63 714h44v-714h-44v714zM-16 896h44v-103h-44v103zM142 896h44v-103h-44v103z" />
    <glyph glyph-name="Imacron" unicode="&#x12a;" horiz-adv-x="170" 
d="M63 714h44v-714h-44v714zM206 861v-33h-242v33h242z" />
    <glyph glyph-name="Idotaccent" unicode="&#x130;" horiz-adv-x="170" 
d="M63 714h44v-714h-44v714zM63 896h44v-103h-44v103z" />
    <glyph glyph-name="Iogonek" unicode="&#x12e;" horiz-adv-x="170" 
d="M63 714h44v-714q-34 -35 -53 -63.5t-19 -57.5q0 -19 10.5 -30.5t27.5 -11.5q30 0 53 35l23 -8q-24 -60 -80 -60q-35 0 -55.5 18t-20.5 50q0 59 90 128h-20v714z" />
    <glyph glyph-name="Jcircumflex" unicode="&#x134;" horiz-adv-x="481" 
d="M374 714h44v-518q0 -110 -48 -161.5t-148 -51.5q-106 0 -154 54.5t-48 172.5v17h44q-1 -16 -1 -32q0 -91 37.5 -132.5t116.5 -41.5q83 0 120 40.5t37 139.5v513zM374 920h40l116 -140h-38l-98 115l-97 -115h-38z" />
    <glyph glyph-name="Kcommaaccent" unicode="&#x136;" horiz-adv-x="613" 
d="M63 714h44v-411l449 411h57l-326 -297l346 -417h-55l-323 387l-148 -135v-252h-44v714zM301 -50h57v-82q0 -60 -63 -64v20q28 7 31 33h-25v93z" />
    <glyph glyph-name="Lacute" unicode="&#x139;" horiz-adv-x="500" 
d="M63 714h44v-676h405v-38h-449v714zM189 920h51l-134 -140h-37z" />
    <glyph glyph-name="Lcaron" unicode="&#x13d;" horiz-adv-x="500" 
d="M63 714h44v-676h405v-38h-449v714zM279 714h51l-87 -140h-29z" />
    <glyph glyph-name="Lcommaaccent" unicode="&#x13b;" horiz-adv-x="500" 
d="M63 714h44v-676h405v-38h-449v714zM252 -50h57v-82q0 -60 -63 -64v20q28 7 31 33h-25v93z" />
    <glyph glyph-name="Lslash" unicode="&#x141;" horiz-adv-x="500" 
d="M63 714h44v-383l235 143v-36l-235 -142v-258h405v-38h-449v269l-85 -53v38l85 51v409z" />
    <glyph glyph-name="Ldot" unicode="&#x13f;" horiz-adv-x="500" 
d="M63 714h44v-676h405v-38h-449v714zM271 433h44v-103h-44v103z" />
    <glyph glyph-name="Nacute" unicode="&#x143;" horiz-adv-x="678" 
d="M63 714h55l451 -655h2v655h44v-714h-52l-454 660h-2v-660h-44v714zM428 920h51l-134 -140h-37z" />
    <glyph glyph-name="Ncaron" unicode="&#x147;" horiz-adv-x="678" 
d="M63 714h55l451 -655h2v655h44v-714h-52l-454 660h-2v-660h-44v714zM209 920h38l97 -115l98 115h38l-116 -140h-40z" />
    <glyph glyph-name="Ntilde" unicode="&#xd1;" horiz-adv-x="678" 
d="M63 714h55l451 -655h2v655h44v-714h-52l-454 660h-2v-660h-44v714zM277 889q30 0 74 -29q42 -28 63 -28q36 0 45 57h29q-6 -46 -26 -68t-50 -22q-28 0 -74 32q-37 25 -63 25q-36 0 -47 -57h-29q3 39 25.5 64.5t52.5 25.5z" />
    <glyph glyph-name="Ncommaaccent" unicode="&#x145;" horiz-adv-x="678" 
d="M63 714h55l451 -655h2v655h44v-714h-52l-454 660h-2v-660h-44v714zM308 -50h57v-82q0 -60 -63 -64v20q28 7 31 33h-25v93z" />
    <glyph glyph-name="Ograve" unicode="&#xd2;" horiz-adv-x="741" 
d="M371 731q150 0 244.5 -103t94.5 -271q0 -167 -93 -270.5t-246 -103.5q-152 0 -246 103.5t-94 270.5q0 164 92.5 269t247.5 105zM75 357q0 -148 81.5 -242t214.5 -94q131 0 213 94.5t82 241.5q0 144 -81 240t-215 96q-130 0 -212.5 -93t-82.5 -243zM237 920h51l120 -140
h-37z" />
    <glyph glyph-name="Oacute" unicode="&#xd3;" horiz-adv-x="741" 
d="M371 731q150 0 244.5 -103t94.5 -271q0 -167 -93 -270.5t-246 -103.5q-152 0 -246 103.5t-94 270.5q0 164 92.5 269t247.5 105zM75 357q0 -148 81.5 -242t214.5 -94q131 0 213 94.5t82 241.5q0 144 -81 240t-215 96q-130 0 -212.5 -93t-82.5 -243zM455 920h51l-134 -140
h-37z" />
    <glyph glyph-name="Ocircumflex" unicode="&#xd4;" horiz-adv-x="741" 
d="M371 731q150 0 244.5 -103t94.5 -271q0 -167 -93 -270.5t-246 -103.5q-152 0 -246 103.5t-94 270.5q0 164 92.5 269t247.5 105zM75 357q0 -148 81.5 -242t214.5 -94q131 0 213 94.5t82 241.5q0 144 -81 240t-215 96q-130 0 -212.5 -93t-82.5 -243zM351 920h40l116 -140
h-38l-98 115l-97 -115h-38z" />
    <glyph glyph-name="Otilde" unicode="&#xd5;" horiz-adv-x="741" 
d="M371 731q150 0 244.5 -103t94.5 -271q0 -167 -93 -270.5t-246 -103.5q-152 0 -246 103.5t-94 270.5q0 164 92.5 269t247.5 105zM75 357q0 -148 81.5 -242t214.5 -94q131 0 213 94.5t82 241.5q0 144 -81 240t-215 96q-130 0 -212.5 -93t-82.5 -243zM304 889q30 0 74 -29
q42 -28 63 -28q36 0 45 57h29q-6 -46 -26 -68t-50 -22q-28 0 -74 32q-37 25 -63 25q-36 0 -47 -57h-29q3 39 25.5 64.5t52.5 25.5z" />
    <glyph glyph-name="Odieresis" unicode="&#xd6;" horiz-adv-x="741" 
d="M371 731q150 0 244.5 -103t94.5 -271q0 -167 -93 -270.5t-246 -103.5q-152 0 -246 103.5t-94 270.5q0 164 92.5 269t247.5 105zM75 357q0 -148 81.5 -242t214.5 -94q131 0 213 94.5t82 241.5q0 144 -81 240t-215 96q-130 0 -212.5 -93t-82.5 -243zM270 896h44v-103h-44
v103zM428 896h44v-103h-44v103z" />
    <glyph glyph-name="Omacron" unicode="&#x14c;" horiz-adv-x="741" 
d="M371 731q150 0 244.5 -103t94.5 -271q0 -167 -93 -270.5t-246 -103.5q-152 0 -246 103.5t-94 270.5q0 164 92.5 269t247.5 105zM75 357q0 -148 81.5 -242t214.5 -94q131 0 213 94.5t82 241.5q0 144 -81 240t-215 96q-130 0 -212.5 -93t-82.5 -243zM492 861v-33h-242v33
h242z" />
    <glyph glyph-name="Obreve" unicode="&#x14e;" horiz-adv-x="741" 
d="M371 731q150 0 244.5 -103t94.5 -271q0 -167 -93 -270.5t-246 -103.5q-152 0 -246 103.5t-94 270.5q0 164 92.5 269t247.5 105zM75 357q0 -148 81.5 -242t214.5 -94q131 0 213 94.5t82 241.5q0 144 -81 240t-215 96q-130 0 -212.5 -93t-82.5 -243zM269 910q11 -45 39 -66
t67 -21q37 0 64 22.5t35 64.5h33q-6 -50 -44 -85t-88 -35q-57 0 -94.5 32t-44.5 88h33z" />
    <glyph glyph-name="Ohungarumlaut" unicode="&#x150;" horiz-adv-x="741" 
d="M371 731q150 0 244.5 -103t94.5 -271q0 -167 -93 -270.5t-246 -103.5q-152 0 -246 103.5t-94 270.5q0 164 92.5 269t247.5 105zM75 357q0 -148 81.5 -242t214.5 -94q131 0 213 94.5t82 241.5q0 144 -81 240t-215 96q-130 0 -212.5 -93t-82.5 -243zM385 920h51l-134 -140
h-37zM543 920h51l-134 -140h-37z" />
    <glyph glyph-name="Oslash" unicode="&#xd8;" horiz-adv-x="741" 
d="M371 731q138 0 232 -91l68 74l26 -24l-70 -76q83 -101 83 -257q0 -164 -92.5 -269t-246.5 -105q-148 0 -235 93l-76 -84l-26 24l79 86q-82 105 -82 255q0 165 94 269.5t246 104.5zM75 357q0 -132 68 -223l432 475q-82 84 -205 84q-131 0 -213 -94.5t-82 -241.5zM165 108
q81 -87 206 -87q131 0 213 94.5t82 241.5q0 133 -68 225z" />
    <glyph glyph-name="Oslashacute" unicode="&#x1fe;" horiz-adv-x="741" 
d="M371 731q138 0 232 -91l68 74l26 -24l-70 -76q83 -101 83 -257q0 -164 -92.5 -269t-246.5 -105q-148 0 -235 93l-76 -84l-26 24l79 86q-82 105 -82 255q0 165 94 269.5t246 104.5zM75 357q0 -132 68 -223l432 475q-82 84 -205 84q-131 0 -213 -94.5t-82 -241.5zM165 108
q81 -87 206 -87q131 0 213 94.5t82 241.5q0 133 -68 225zM455 920h51l-134 -140h-37z" />
    <glyph glyph-name="OE" unicode="&#x152;" horiz-adv-x="1056" 
d="M368 731q128 0 205 -83v66h466v-38h-422v-286h378v-38h-378v-314h424v-38h-468v66h-2q-29 -38 -85.5 -60.5t-125.5 -22.5q-150 0 -239.5 103t-89.5 268q0 106 42 193.5t118.5 135.5t176.5 48zM75 354q0 -152 77 -242.5t211 -90.5q53 0 100 17t78.5 43t31.5 45v452
q0 22 -29.5 49.5t-75.5 46.5t-97 19q-132 0 -214 -93.5t-82 -245.5z" />
    <glyph glyph-name="Racute" unicode="&#x154;" horiz-adv-x="630" 
d="M364 714q106 0 164.5 -45.5t58.5 -138.5q0 -72 -40.5 -121.5t-112.5 -61.5v-2q77 -11 109.5 -57t32.5 -143v-34q0 -90 21 -111h-49q-7 13 -12 36.5t-5 90.5q0 64 -3 80q-9 55 -46 86.5t-117 31.5h-258v-325h-44v714h301zM365 363q80 0 129 41.5t49 122.5q0 72 -49 110.5
t-139 38.5h-248v-313h258zM381 920h51l-134 -140h-37z" />
    <glyph glyph-name="Rcaron" unicode="&#x158;" horiz-adv-x="630" 
d="M364 714q106 0 164.5 -45.5t58.5 -138.5q0 -72 -40.5 -121.5t-112.5 -61.5v-2q77 -11 109.5 -57t32.5 -143v-34q0 -90 21 -111h-49q-7 13 -12 36.5t-5 90.5q0 64 -3 80q-9 55 -46 86.5t-117 31.5h-258v-325h-44v714h301zM365 363q80 0 129 41.5t49 122.5q0 72 -49 110.5
t-139 38.5h-248v-313h258zM162 920h38l97 -115l98 115h38l-116 -140h-40z" />
    <glyph glyph-name="Rcommaaccent" unicode="&#x156;" horiz-adv-x="630" 
d="M364 714q106 0 164.5 -45.5t58.5 -138.5q0 -72 -40.5 -121.5t-112.5 -61.5v-2q77 -11 109.5 -57t32.5 -143v-34q0 -90 21 -111h-49q-7 13 -12 36.5t-5 90.5q0 64 -3 80q-9 55 -46 86.5t-117 31.5h-258v-325h-44v714h301zM365 363q80 0 129 41.5t49 122.5q0 72 -49 110.5
t-139 38.5h-248v-313h258zM292 -50h57v-82q0 -60 -63 -64v20q28 7 31 33h-25v93z" />
    <glyph glyph-name="Sacute" unicode="&#x15a;" horiz-adv-x="630" 
d="M300 731q125 0 196.5 -56t76.5 -165h-44q-3 88 -65 135.5t-164 47.5q-87 0 -141.5 -40.5t-54.5 -111.5q0 -56 42 -92.5t196 -65.5q138 -25 193.5 -72t55.5 -127q0 -90 -69 -145.5t-183 -55.5q-142 0 -221 64t-79 184v5h44v-14q0 -99 68.5 -150t187.5 -51q94 0 151 44.5
t57 118.5q0 65 -50 103t-187 63q-148 27 -199 72.5t-51 118.5q0 88 66.5 139t173.5 51zM403 920h51l-134 -140h-37z" />
    <glyph glyph-name="Scircumflex" unicode="&#x15c;" horiz-adv-x="630" 
d="M300 731q125 0 196.5 -56t76.5 -165h-44q-3 88 -65 135.5t-164 47.5q-87 0 -141.5 -40.5t-54.5 -111.5q0 -56 42 -92.5t196 -65.5q138 -25 193.5 -72t55.5 -127q0 -90 -69 -145.5t-183 -55.5q-142 0 -221 64t-79 184v5h44v-14q0 -99 68.5 -150t187.5 -51q94 0 151 44.5
t57 118.5q0 65 -50 103t-187 63q-148 27 -199 72.5t-51 118.5q0 88 66.5 139t173.5 51zM299 920h40l116 -140h-38l-98 115l-97 -115h-38z" />
    <glyph glyph-name="Scaron" unicode="&#x160;" horiz-adv-x="630" 
d="M300 731q125 0 196.5 -56t76.5 -165h-44q-3 88 -65 135.5t-164 47.5q-87 0 -141.5 -40.5t-54.5 -111.5q0 -56 42 -92.5t196 -65.5q138 -25 193.5 -72t55.5 -127q0 -90 -69 -145.5t-183 -55.5q-142 0 -221 64t-79 184v5h44v-14q0 -99 68.5 -150t187.5 -51q94 0 151 44.5
t57 118.5q0 65 -50 103t-187 63q-148 27 -199 72.5t-51 118.5q0 88 66.5 139t173.5 51zM184 920h38l97 -115l98 115h38l-116 -140h-40z" />
    <glyph glyph-name="Scedilla" unicode="&#x15e;" horiz-adv-x="630" 
d="M300 731q125 0 196.5 -56.5t76.5 -164.5h-44q-2 86 -64.5 134.5t-164.5 48.5q-90 0 -143 -41t-53 -111q0 -59 44.5 -94.5t193.5 -63.5q140 -25 194 -72t55 -127q0 -90 -69.5 -145.5t-181.5 -55.5h-23l-32 -39l1 -1q14 7 38 7q32 0 52.5 -17.5t20.5 -49.5q0 -36 -25 -57.5
t-73 -21.5q-51 0 -91 25l11 24q39 -22 79 -22q29 0 45 14t16 36q0 19 -14 31t-37 12q-21 0 -50 -12l-15 13l44 61q-121 11 -184.5 72.5t-63.5 170.5v7h44v-15q0 -96 68 -148t188 -52q94 0 151 44.5t57 118.5q0 62 -44.5 99.5t-191.5 66.5q-106 20 -153.5 42t-72.5 59.5
t-25 89.5q0 88 66.5 139t173.5 51z" />
    <glyph glyph-name="Scommaaccent" unicode="&#x218;" horiz-adv-x="630" 
d="M300 731q125 0 196.5 -56t76.5 -165h-44q-3 88 -65 135.5t-164 47.5q-87 0 -141.5 -40.5t-54.5 -111.5q0 -56 42 -92.5t196 -65.5q138 -25 193.5 -72t55.5 -127q0 -90 -69 -145.5t-183 -55.5q-142 0 -221 64t-79 184v5h44v-14q0 -99 68.5 -150t187.5 -51q94 0 151 44.5
t57 118.5q0 65 -50 103t-187 63q-148 27 -199 72.5t-51 118.5q0 88 66.5 139t173.5 51zM292 -50h57v-82q0 -60 -63 -64v20q28 7 31 33h-25v93z" />
    <glyph glyph-name="Tcaron" unicode="&#x164;" 
d="M533 714v-38h-252v-676h-44v676h-251v38h547zM125 920h38l97 -115l98 115h38l-116 -140h-40z" />
    <glyph glyph-name="Tcommaaccent" unicode="&#x162;" 
d="M533 714v-38h-252v-676h-44v676h-251v38h547zM230 -50h57v-82q0 -60 -63 -64v20q28 7 31 33h-25v93z" />
    <glyph glyph-name="uni021A" unicode="&#x21a;" 
d="M533 714v-38h-252v-676h-44v676h-251v38h547zM230 -50h57v-82q0 -60 -63 -64v20q28 7 31 33h-25v93z" />
    <glyph glyph-name="Tbar" unicode="&#x166;" 
d="M533 714v-38h-252v-186h169v-33h-169v-457h-44v457h-169v33h169v186h-251v38h547z" />
    <glyph glyph-name="Thorn" unicode="&#xde;" horiz-adv-x="593" 
d="M63 714h44v-120h262q99 0 152.5 -52t53.5 -147q0 -97 -59 -147t-162 -50h-247v-198h-44v714zM358 236q81 0 127 43.5t46 116.5t-44 116.5t-120 43.5h-260v-320h251z" />
    <glyph glyph-name="Ugrave" unicode="&#xd9;" horiz-adv-x="672" 
d="M63 714h44v-433q0 -123 55.5 -191.5t169.5 -68.5q120 0 176.5 64.5t56.5 195.5v433h44v-433q0 -298 -278 -298q-268 0 -268 298v433zM202 920h51l120 -140h-37z" />
    <glyph glyph-name="Uacute" unicode="&#xda;" horiz-adv-x="672" 
d="M63 714h44v-433q0 -123 55.5 -191.5t169.5 -68.5q120 0 176.5 64.5t56.5 195.5v433h44v-433q0 -298 -278 -298q-268 0 -268 298v433zM420 920h51l-134 -140h-37z" />
    <glyph glyph-name="Ucircumflex" unicode="&#xdb;" horiz-adv-x="672" 
d="M63 714h44v-433q0 -123 55.5 -191.5t169.5 -68.5q120 0 176.5 64.5t56.5 195.5v433h44v-433q0 -298 -278 -298q-268 0 -268 298v433zM316 920h40l116 -140h-38l-98 115l-97 -115h-38z" />
    <glyph glyph-name="Utilde" unicode="&#x168;" horiz-adv-x="672" 
d="M63 714h44v-433q0 -123 55.5 -191.5t169.5 -68.5q120 0 176.5 64.5t56.5 195.5v433h44v-433q0 -298 -278 -298q-268 0 -268 298v433zM269 889q30 0 74 -29q42 -28 63 -28q36 0 45 57h29q-6 -46 -26 -68t-50 -22q-28 0 -74 32q-37 25 -63 25q-36 0 -47 -57h-29
q3 39 25.5 64.5t52.5 25.5z" />
    <glyph glyph-name="Udieresis" unicode="&#xdc;" horiz-adv-x="672" 
d="M63 714h44v-433q0 -123 55.5 -191.5t169.5 -68.5q120 0 176.5 64.5t56.5 195.5v433h44v-433q0 -298 -278 -298q-268 0 -268 298v433zM235 896h44v-103h-44v103zM393 896h44v-103h-44v103z" />
    <glyph glyph-name="Umacron" unicode="&#x16a;" horiz-adv-x="672" 
d="M63 714h44v-433q0 -123 55.5 -191.5t169.5 -68.5q120 0 176.5 64.5t56.5 195.5v433h44v-433q0 -298 -278 -298q-268 0 -268 298v433zM457 861v-33h-242v33h242z" />
    <glyph glyph-name="Ubreve" unicode="&#x16c;" horiz-adv-x="672" 
d="M63 714h44v-433q0 -123 55.5 -191.5t169.5 -68.5q120 0 176.5 64.5t56.5 195.5v433h44v-433q0 -298 -278 -298q-268 0 -268 298v433zM234 910q11 -45 39 -66t67 -21q37 0 64 22.5t35 64.5h33q-6 -50 -44 -85t-88 -35q-57 0 -94.5 32t-44.5 88h33z" />
    <glyph glyph-name="Uring" unicode="&#x16e;" horiz-adv-x="672" 
d="M63 714h44v-433q0 -123 55.5 -191.5t169.5 -68.5q120 0 176.5 64.5t56.5 195.5v433h44v-433q0 -298 -278 -298q-268 0 -268 298v433zM336 949q42 0 70.5 -28.5t28.5 -70.5q0 -43 -28.5 -71t-70.5 -28t-70.5 28.5t-28.5 70.5t28.5 70.5t70.5 28.5zM264 850q0 -31 21 -51.5
t51 -20.5q31 0 51.5 21.5t20.5 50.5q0 31 -21.5 51.5t-50.5 20.5q-28 0 -50 -20.5t-22 -51.5z" />
    <glyph glyph-name="Uhungarumlaut" unicode="&#x170;" horiz-adv-x="672" 
d="M63 714h44v-433q0 -123 55.5 -191.5t169.5 -68.5q120 0 176.5 64.5t56.5 195.5v433h44v-433q0 -298 -278 -298q-268 0 -268 298v433zM350 920h51l-134 -140h-37zM508 920h51l-134 -140h-37z" />
    <glyph glyph-name="Uogonek" unicode="&#x172;" horiz-adv-x="672" 
d="M63 714h44v-433q0 -122 55.5 -191t169.5 -69q120 0 176.5 64.5t56.5 195.5v433h44v-433q0 -281 -248 -297q-64 -58 -64 -105q0 -19 12 -30.5t31 -11.5q34 0 58 35l23 -8q-24 -60 -86 -60q-39 0 -60.5 18t-21.5 50q0 52 78 111q-268 0 -268 298v433z" />
    <glyph glyph-name="Wacute" unicode="&#x1e82;" horiz-adv-x="889" 
d="M39 714l186 -667h2l189 667h55l192 -667h2l183 667h47l-205 -714h-50l-196 676h-2l-193 -676h-49l-206 714h45zM527 920h51l-134 -140h-37z" />
    <glyph glyph-name="Wcircumflex" unicode="&#x174;" horiz-adv-x="889" 
d="M39 714l186 -667h2l189 667h55l192 -667h2l183 667h47l-205 -714h-50l-196 676h-2l-193 -676h-49l-206 714h45zM423 920h40l116 -140h-38l-98 115l-97 -115h-38z" />
    <glyph glyph-name="Wdieresis" unicode="&#x1e84;" horiz-adv-x="889" 
d="M39 714l186 -667h2l189 667h55l192 -667h2l183 667h47l-205 -714h-50l-196 676h-2l-193 -676h-49l-206 714h45zM342 896h44v-103h-44v103zM500 896h44v-103h-44v103z" />
    <glyph glyph-name="Wgrave" unicode="&#x1e80;" horiz-adv-x="889" 
d="M39 714l186 -667h2l189 667h55l192 -667h2l183 667h47l-205 -714h-50l-196 676h-2l-193 -676h-49l-206 714h45zM309 920h51l120 -140h-37z" />
    <glyph glyph-name="Yacute" unicode="&#xdd;" horiz-adv-x="574" 
d="M-21 714h50l258 -378l259 378h49l-287 -415v-299h-44v299zM372 920h51l-134 -140h-37z" />
    <glyph glyph-name="Ycircumflex" unicode="&#x176;" horiz-adv-x="574" 
d="M-21 714h50l258 -378l259 378h49l-287 -415v-299h-44v299zM268 920h40l116 -140h-38l-98 115l-97 -115h-38z" />
    <glyph glyph-name="Ydieresis" unicode="&#x178;" horiz-adv-x="574" 
d="M-21 714h50l258 -378l259 378h49l-287 -415v-299h-44v299zM187 896h44v-103h-44v103zM345 896h44v-103h-44v103z" />
    <glyph glyph-name="Ygrave" unicode="&#x1ef2;" horiz-adv-x="574" 
d="M-21 714h50l258 -378l259 378h49l-287 -415v-299h-44v299zM154 920h51l120 -140h-37z" />
    <glyph glyph-name="Zacute" unicode="&#x179;" horiz-adv-x="537" 
d="M529 714v-38l-484 -638h493v-38h-539v38l482 638h-453v38h501zM357 920h51l-134 -140h-37z" />
    <glyph glyph-name="Zcaron" unicode="&#x17d;" horiz-adv-x="537" 
d="M529 714v-38l-484 -638h493v-38h-539v38l482 638h-453v38h501zM138 920h38l97 -115l98 115h38l-116 -140h-40z" />
    <glyph glyph-name="Zdotaccent" unicode="&#x17b;" horiz-adv-x="537" 
d="M529 714v-38l-484 -638h493v-38h-539v38l482 638h-453v38h501zM251 896h44v-103h-44v103z" />
    <glyph glyph-name="agrave" unicode="&#xe0;" horiz-adv-x="500" 
d="M257 526q94 0 136 -37t42 -93v-317q0 -46 34 -46q11 0 28 3v-32q-14 -4 -31 -4q-38 0 -53.5 17t-15.5 52v33h-2q-22 -54 -74 -84t-117 -30q-172 0 -172 145q0 69 47.5 108t165.5 46q105 7 129 24.5t24 74.5q0 107 -143 107q-69 0 -111 -33.5t-47 -103.5h-38
q8 170 198 170zM70 133q0 -54 34.5 -83t100.5 -29q91 0 141.5 52.5t50.5 132.5v86q-16 -18 -48 -24.5t-102 -11.5q-103 -8 -140 -38t-37 -85zM123 730h51l120 -140h-37z" />
    <glyph glyph-name="aacute" unicode="&#xe1;" horiz-adv-x="500" 
d="M257 526q94 0 136 -37t42 -93v-317q0 -46 34 -46q11 0 28 3v-32q-14 -4 -31 -4q-38 0 -53.5 17t-15.5 52v33h-2q-22 -54 -74 -84t-117 -30q-172 0 -172 145q0 69 47.5 108t165.5 46q105 7 129 24.5t24 74.5q0 107 -143 107q-69 0 -111 -33.5t-47 -103.5h-38
q8 170 198 170zM70 133q0 -54 34.5 -83t100.5 -29q91 0 141.5 52.5t50.5 132.5v86q-16 -18 -48 -24.5t-102 -11.5q-103 -8 -140 -38t-37 -85zM341 730h51l-134 -140h-37z" />
    <glyph glyph-name="acircumflex" unicode="&#xe2;" horiz-adv-x="500" 
d="M257 526q94 0 136 -37t42 -93v-317q0 -46 34 -46q11 0 28 3v-32q-14 -4 -31 -4q-38 0 -53.5 17t-15.5 52v33h-2q-22 -54 -74 -84t-117 -30q-172 0 -172 145q0 69 47.5 108t165.5 46q105 7 129 24.5t24 74.5q0 107 -143 107q-69 0 -111 -33.5t-47 -103.5h-38
q8 170 198 170zM70 133q0 -54 34.5 -83t100.5 -29q91 0 141.5 52.5t50.5 132.5v86q-16 -18 -48 -24.5t-102 -11.5q-103 -8 -140 -38t-37 -85zM237 730h40l116 -140h-38l-98 115l-97 -115h-38z" />
    <glyph glyph-name="atilde" unicode="&#xe3;" horiz-adv-x="500" 
d="M257 526q94 0 136 -37t42 -93v-317q0 -46 34 -46q11 0 28 3v-32q-14 -4 -31 -4q-38 0 -53.5 17t-15.5 52v33h-2q-22 -54 -74 -84t-117 -30q-172 0 -172 145q0 69 47.5 108t165.5 46q105 7 129 24.5t24 74.5q0 107 -143 107q-69 0 -111 -33.5t-47 -103.5h-38
q8 170 198 170zM70 133q0 -54 34.5 -83t100.5 -29q91 0 141.5 52.5t50.5 132.5v86q-16 -18 -48 -24.5t-102 -11.5q-103 -8 -140 -38t-37 -85zM190 699q30 0 74 -29q42 -28 63 -28q36 0 45 57h29q-6 -46 -26 -68t-50 -22q-28 0 -74 32q-37 25 -63 25q-36 0 -47 -57h-29
q3 39 25.5 64.5t52.5 25.5z" />
    <glyph glyph-name="adieresis" unicode="&#xe4;" horiz-adv-x="500" 
d="M257 526q94 0 136 -37t42 -93v-317q0 -46 34 -46q11 0 28 3v-32q-14 -4 -31 -4q-38 0 -53.5 17t-15.5 52v33h-2q-22 -54 -74 -84t-117 -30q-172 0 -172 145q0 69 47.5 108t165.5 46q105 7 129 24.5t24 74.5q0 107 -143 107q-69 0 -111 -33.5t-47 -103.5h-38
q8 170 198 170zM70 133q0 -54 34.5 -83t100.5 -29q91 0 141.5 52.5t50.5 132.5v86q-16 -18 -48 -24.5t-102 -11.5q-103 -8 -140 -38t-37 -85zM156 706h44v-103h-44v103zM314 706h44v-103h-44v103z" />
    <glyph glyph-name="amacron" unicode="&#x101;" horiz-adv-x="500" 
d="M257 526q94 0 136 -37t42 -93v-317q0 -46 34 -46q11 0 28 3v-32q-14 -4 -31 -4q-38 0 -53.5 17t-15.5 52v33h-2q-22 -54 -74 -84t-117 -30q-172 0 -172 145q0 69 47.5 108t165.5 46q105 7 129 24.5t24 74.5q0 107 -143 107q-69 0 -111 -33.5t-47 -103.5h-38
q8 170 198 170zM70 133q0 -54 34.5 -83t100.5 -29q91 0 141.5 52.5t50.5 132.5v86q-16 -18 -48 -24.5t-102 -11.5q-103 -8 -140 -38t-37 -85zM378 671v-33h-242v33h242z" />
    <glyph glyph-name="abreve" unicode="&#x103;" horiz-adv-x="500" 
d="M257 526q94 0 136 -37t42 -93v-317q0 -46 34 -46q11 0 28 3v-32q-14 -4 -31 -4q-38 0 -53.5 17t-15.5 52v33h-2q-22 -54 -74 -84t-117 -30q-172 0 -172 145q0 69 47.5 108t165.5 46q105 7 129 24.5t24 74.5q0 107 -143 107q-69 0 -111 -33.5t-47 -103.5h-38
q8 170 198 170zM70 133q0 -54 34.5 -83t100.5 -29q91 0 141.5 52.5t50.5 132.5v86q-16 -18 -48 -24.5t-102 -11.5q-103 -8 -140 -38t-37 -85zM155 720q11 -45 39 -66t67 -21q37 0 64 22.5t35 64.5h33q-6 -50 -44 -85t-88 -35q-57 0 -94.5 32t-44.5 88h33z" />
    <glyph glyph-name="aring" unicode="&#xe5;" horiz-adv-x="500" 
d="M257 526q94 0 136 -37t42 -93v-317q0 -46 34 -46q11 0 28 3v-32q-14 -4 -31 -4q-38 0 -53.5 17t-15.5 52v33h-2q-22 -54 -74 -84t-117 -30q-172 0 -172 145q0 69 47.5 108t165.5 46q105 7 129 24.5t24 74.5q0 107 -143 107q-69 0 -111 -33.5t-47 -103.5h-38
q8 170 198 170zM70 133q0 -54 34.5 -83t100.5 -29q91 0 141.5 52.5t50.5 132.5v86q-16 -18 -48 -24.5t-102 -11.5q-103 -8 -140 -38t-37 -85zM257 769q42 0 70.5 -28.5t28.5 -70.5q0 -43 -28.5 -71t-70.5 -28t-70.5 28t-28.5 71q0 42 28.5 70.5t70.5 28.5zM185 670
q0 -30 21 -51t51 -21q31 0 51.5 21.5t20.5 50.5q0 30 -21.5 51t-50.5 21q-28 0 -50 -20.5t-22 -51.5z" />
    <glyph glyph-name="aringacute" unicode="&#x1fb;" horiz-adv-x="500" 
d="M343 920h51l-134 -140h-37zM257 757q42 0 70.5 -28t28.5 -71q0 -42 -28 -70.5t-71 -28.5q-42 0 -70.5 28.5t-28.5 70.5t28.5 70.5t70.5 28.5zM185 658q0 -30 20.5 -51t51.5 -21t51.5 21.5t20.5 50.5q0 31 -21.5 51.5t-51.5 20.5q-27 0 -49 -20t-22 -52zM257 526
q93 0 135.5 -36.5t42.5 -92.5v-318q0 -46 34 -46q13 0 28 3v-32q-16 -4 -31 -4q-37 0 -53 17t-16 52v33h-2q-22 -54 -74 -84t-117 -30q-172 0 -172 145q0 52 25 84.5t72 49t141 22.5q46 2 76.5 11.5t41 26t10.5 61.5q0 105 -143 105q-69 0 -111.5 -34t-46.5 -103h-38
q8 170 198 170zM70 133q0 -54 34.5 -83t100.5 -29q91 0 141.5 52.5t50.5 129.5v89q-12 -14 -33.5 -20.5t-116.5 -15.5q-73 -8 -100 -17.5t-44 -23.5t-25 -35t-8 -47z" />
    <glyph glyph-name="aogonek" unicode="&#x105;" horiz-adv-x="500" 
d="M257 526q94 0 136 -37t42 -93v-311q0 -52 34 -52q11 0 28 3v-32q-15 -4 -28 -4h-13q-40 -35 -61 -63.5t-21 -57.5q0 -19 12 -30.5t31 -11.5q35 0 58 35l23 -8q-26 -60 -86 -60q-39 0 -60.5 18t-21.5 50q0 62 107 131q-40 11 -40 65v34h-2q-22 -54 -73.5 -84t-117.5 -30
q-172 0 -172 145q0 50 24 83t67 49t132 23q61 4 91 12.5t41 25.5t11 63q0 104 -143 104q-69 0 -111.5 -34t-46.5 -103h-38q8 170 198 170zM70 133q0 -54 34.5 -83t100.5 -29q59 0 102.5 23.5t66.5 65.5t23 89v93q-16 -17 -49.5 -24t-101.5 -12q-105 -8 -140.5 -39t-35.5 -84
z" />
    <glyph glyph-name="ae" unicode="&#xe6;" horiz-adv-x="889" 
d="M256 526q170 0 180 -130v-1h2q49 131 195 131q100 0 162 -66t62 -177l-1 -31h-411q-1 -15 -1 -26q2 -93 53 -149t136 -56q73 0 120 38t59 112h38q-14 -88 -71.5 -135.5t-145.5 -47.5q-77 0 -131.5 36t-74.5 113h-2q-24 -69 -79 -109t-130 -40q-86 0 -135 38.5t-49 104.5
q0 127 140 147q25 4 69.5 7t60.5 4q60 4 82 21t22 58q0 63 -34.5 94t-115.5 31q-73 0 -116 -34.5t-48 -104.5v-1h-38q15 173 202 173zM818 285v6q0 87 -52.5 144.5t-133.5 57.5q-77 0 -128.5 -52.5t-59.5 -155.5h374zM404 289q-9 -15 -41.5 -22t-110.5 -11
q-104 -5 -143 -35.5t-39 -89.5q0 -52 40.5 -81t105.5 -29q76 0 133 54t57 128v86h-2z" />
    <glyph glyph-name="aeacute" unicode="&#x1fd;" horiz-adv-x="889" 
d="M256 526q170 0 180 -130v-1h2q49 131 195 131q100 0 162 -66t62 -177l-1 -31h-411q-1 -15 -1 -26q2 -93 53 -149t136 -56q73 0 120 38t59 112h38q-14 -88 -71.5 -135.5t-145.5 -47.5q-77 0 -131.5 36t-74.5 113h-2q-24 -69 -79 -109t-130 -40q-86 0 -135 38.5t-49 104.5
q0 127 140 147q25 4 69.5 7t60.5 4q60 4 82 21t22 58q0 63 -34.5 94t-115.5 31q-73 0 -116 -34.5t-48 -104.5v-1h-38q15 173 202 173zM818 285v6q0 87 -52.5 144.5t-133.5 57.5q-77 0 -128.5 -52.5t-59.5 -155.5h374zM404 289q-9 -15 -41.5 -22t-110.5 -11
q-104 -5 -143 -35.5t-39 -89.5q0 -52 40.5 -81t105.5 -29q76 0 133 54t57 128v86h-2zM557 730h51l-134 -140h-37z" />
    <glyph glyph-name="cacute" unicode="&#x107;" 
d="M269 526q90 0 147 -45t65 -126h-38q-6 66 -54 102t-120 36q-86 0 -142 -64.5t-56 -166.5q0 -114 53.5 -177.5t144.5 -63.5q70 0 120 45.5t59 114.5h38q-12 -90 -72 -141.5t-145 -51.5q-110 0 -173 73.5t-63 200.5q0 116 64.5 190t171.5 74zM352 730h51l-134 -140h-37z
" />
    <glyph glyph-name="ccircumflex" unicode="&#x109;" 
d="M269 526q90 0 147 -45t65 -126h-38q-6 66 -54 102t-120 36q-86 0 -142 -64.5t-56 -166.5q0 -114 53.5 -177.5t144.5 -63.5q70 0 120 45.5t59 114.5h38q-12 -90 -72 -141.5t-145 -51.5q-110 0 -173 73.5t-63 200.5q0 116 64.5 190t171.5 74zM248 730h40l116 -140h-38
l-98 115l-97 -115h-38z" />
    <glyph glyph-name="ccaron" unicode="&#x10d;" 
d="M269 526q90 0 147 -45t65 -126h-38q-6 66 -54 102t-120 36q-86 0 -142 -64.5t-56 -166.5q0 -114 53.5 -177.5t144.5 -63.5q70 0 120 45.5t59 114.5h38q-12 -90 -72 -141.5t-145 -51.5q-110 0 -173 73.5t-63 200.5q0 116 64.5 190t171.5 74zM133 730h38l97 -115l98 115h38
l-116 -140h-40z" />
    <glyph glyph-name="cdotaccent" unicode="&#x10b;" 
d="M269 526q90 0 147 -45t65 -126h-38q-6 66 -54 102t-120 36q-86 0 -142 -64.5t-56 -166.5q0 -114 53.5 -177.5t144.5 -63.5q70 0 120 45.5t59 114.5h38q-12 -90 -72 -141.5t-145 -51.5q-110 0 -173 73.5t-63 200.5q0 116 64.5 190t171.5 74zM246 706h44v-103h-44v103z" />
    <glyph glyph-name="ccedilla" unicode="&#xe7;" 
d="M269 526q93 0 149 -46t63 -125h-38q-6 66 -54 102t-120 36q-87 0 -142.5 -66.5t-55.5 -164.5q0 -112 52 -176.5t146 -64.5q70 0 120 45.5t59 114.5h38q-11 -84 -65.5 -136t-139.5 -57l-38 -44l1 -1q16 7 38 7q32 0 53 -17.5t21 -49.5q0 -36 -25 -57.5t-73 -21.5
q-52 0 -92 25l11 24q41 -22 80 -22q29 0 45 14t16 36q0 19 -14.5 31t-37.5 12q-22 0 -49 -12l-16 13l47 64q-101 7 -158 79t-57 194q0 118 65.5 191t170.5 73z" />
    <glyph glyph-name="dcaron" unicode="&#x10f;" horiz-adv-x="556" 
d="M453 714h38v-714h-38v110h-2q-66 -122 -197 -122q-104 0 -163 73t-59 195q0 127 61.5 198.5t167.5 71.5q69 0 119.5 -35t70.5 -92h2v315zM70 256q0 -104 51 -169.5t141 -65.5q85 0 137.5 65t52.5 170q0 107 -53 172t-139 65q-91 0 -140.5 -65t-49.5 -172zM597 714h51
l-87 -140h-29z" />
    <glyph glyph-name="dcroat" unicode="&#x111;" horiz-adv-x="556" 
d="M453 714h38v-94h82v-31h-82v-589h-38v110h-2q-64 -122 -197 -122q-104 0 -163 73t-59 195q0 127 61.5 198.5t167.5 71.5q67 0 119 -35t71 -92h2v190h-195v31h195v94zM70 256q0 -106 52.5 -170.5t139.5 -64.5q85 0 137.5 65t52.5 170q0 107 -53 172t-139 65
q-91 0 -140.5 -65t-49.5 -172z" />
    <glyph glyph-name="eth" unicode="&#xf0;" horiz-adv-x="537" 
d="M179 731q71 -39 108 -71l115 64l20 -22l-109 -61q97 -78 144 -173.5t47 -217.5q0 -120 -63.5 -191t-171.5 -71q-111 0 -174 69t-63 192q0 114 66 185.5t171 71.5q53 0 91.5 -17t71.5 -57l2 2q-42 100 -155 188l-112 -62l-21 22l108 60q-27 21 -59.5 41t-43.5 24zM70 249
q0 -101 53.5 -164.5t145.5 -63.5t144.5 61.5t52.5 166.5q0 100 -54 162t-144 62q-87 0 -142.5 -63t-55.5 -161zM184 698zM131 514z" />
    <glyph glyph-name="egrave" unicode="&#xe8;" 
d="M265 526q102 0 162 -71.5t60 -186.5l-1 -16h-415q0 -109 51.5 -170t137.5 -61q147 0 184 153h38q-38 -186 -223 -186q-106 0 -166.5 72t-60.5 193q0 122 63.5 197.5t169.5 75.5zM448 285q-4 93 -54 150.5t-130 57.5t-132 -56.5t-60 -151.5h376zM127 730h51l120 -140h-37z
" />
    <glyph glyph-name="eacute" unicode="&#xe9;" 
d="M265 526q102 0 162 -71.5t60 -186.5l-1 -16h-415q0 -109 51.5 -170t137.5 -61q147 0 184 153h38q-38 -186 -223 -186q-106 0 -166.5 72t-60.5 193q0 122 63.5 197.5t169.5 75.5zM448 285q-4 93 -54 150.5t-130 57.5t-132 -56.5t-60 -151.5h376zM345 730h51l-134 -140h-37
z" />
    <glyph glyph-name="ecircumflex" unicode="&#xea;" 
d="M265 526q102 0 162 -71.5t60 -186.5l-1 -16h-415q0 -109 51.5 -170t137.5 -61q147 0 184 153h38q-38 -186 -223 -186q-106 0 -166.5 72t-60.5 193q0 122 63.5 197.5t169.5 75.5zM448 285q-4 93 -54 150.5t-130 57.5t-132 -56.5t-60 -151.5h376zM241 730h40l116 -140h-38
l-98 115l-97 -115h-38z" />
    <glyph glyph-name="ecaron" unicode="&#x11b;" 
d="M265 526q102 0 162 -71.5t60 -186.5l-1 -16h-415q0 -109 51.5 -170t137.5 -61q147 0 184 153h38q-38 -186 -223 -186q-106 0 -166.5 72t-60.5 193q0 122 63.5 197.5t169.5 75.5zM448 285q-4 93 -54 150.5t-130 57.5t-132 -56.5t-60 -151.5h376zM126 730h38l97 -115
l98 115h38l-116 -140h-40z" />
    <glyph glyph-name="edieresis" unicode="&#xeb;" 
d="M265 526q102 0 162 -71.5t60 -186.5l-1 -16h-415q0 -109 51.5 -170t137.5 -61q147 0 184 153h38q-38 -186 -223 -186q-106 0 -166.5 72t-60.5 193q0 122 63.5 197.5t169.5 75.5zM448 285q-4 93 -54 150.5t-130 57.5t-132 -56.5t-60 -151.5h376zM160 706h44v-103h-44v103z
M318 706h44v-103h-44v103z" />
    <glyph glyph-name="emacron" unicode="&#x113;" 
d="M265 526q102 0 162 -71.5t60 -186.5l-1 -16h-415q0 -109 51.5 -170t137.5 -61q147 0 184 153h38q-38 -186 -223 -186q-106 0 -166.5 72t-60.5 193q0 122 63.5 197.5t169.5 75.5zM448 285q-4 93 -54 150.5t-130 57.5t-132 -56.5t-60 -151.5h376zM382 671v-33h-242v33h242z
" />
    <glyph glyph-name="ebreve" unicode="&#x115;" 
d="M265 526q102 0 162 -71.5t60 -186.5l-1 -16h-415q0 -109 51.5 -170t137.5 -61q147 0 184 153h38q-38 -186 -223 -186q-106 0 -166.5 72t-60.5 193q0 122 63.5 197.5t169.5 75.5zM448 285q-4 93 -54 150.5t-130 57.5t-132 -56.5t-60 -151.5h376zM159 720q11 -45 39 -66
t67 -21q37 0 64 22.5t35 64.5h33q-6 -50 -44 -85t-88 -35q-57 0 -94.5 32t-44.5 88h33z" />
    <glyph glyph-name="edotaccent" unicode="&#x117;" 
d="M265 526q102 0 162 -71.5t60 -186.5l-1 -16h-415q0 -109 51.5 -170t137.5 -61q147 0 184 153h38q-38 -186 -223 -186q-106 0 -166.5 72t-60.5 193q0 122 63.5 197.5t169.5 75.5zM448 285q-4 93 -54 150.5t-130 57.5t-132 -56.5t-60 -151.5h376zM239 706h44v-103h-44v103z
" />
    <glyph glyph-name="eogonek" unicode="&#x119;" 
d="M265 526q101 0 161.5 -69.5t60.5 -186.5l-1 -18h-415q0 -105 50.5 -168t138.5 -63q147 0 184 153h38q-33 -168 -193 -185q-71 -62 -71 -110q0 -19 12 -30.5t31 -11.5q34 0 58 35l23 -8q-25 -60 -86 -60q-39 0 -60.5 18t-21.5 50q0 56 84 116q-107 2 -166.5 72.5
t-59.5 192.5q0 123 63.5 198t169.5 75zM448 285q-4 93 -54 150.5t-130 57.5t-132 -56.5t-60 -151.5h376z" />
    <glyph glyph-name="gcircumflex" unicode="&#x11d;" horiz-adv-x="537" 
d="M255 526q63 0 114 -32t72 -87h2v107h38v-491q0 -102 -53.5 -160.5t-167.5 -58.5q-194 0 -202 160h38q6 -64 50.5 -95.5t113.5 -31.5q92 0 137.5 49.5t45.5 128.5v121h-2q-56 -117 -186 -117q-105 0 -163.5 68t-58.5 186q0 112 61 182.5t161 70.5zM71 273
q0 -98 50.5 -159.5t133.5 -61.5t135 60.5t52 160.5q0 101 -51.5 160.5t-136.5 59.5q-81 0 -132 -62.5t-51 -157.5zM248 730h40l116 -140h-38l-98 115l-97 -115h-38z" />
    <glyph glyph-name="gbreve" unicode="&#x11f;" horiz-adv-x="537" 
d="M255 526q63 0 114 -32t72 -87h2v107h38v-491q0 -102 -53.5 -160.5t-167.5 -58.5q-194 0 -202 160h38q6 -64 50.5 -95.5t113.5 -31.5q92 0 137.5 49.5t45.5 128.5v121h-2q-56 -117 -186 -117q-105 0 -163.5 68t-58.5 186q0 112 61 182.5t161 70.5zM71 273
q0 -98 50.5 -159.5t133.5 -61.5t135 60.5t52 160.5q0 101 -51.5 160.5t-136.5 59.5q-81 0 -132 -62.5t-51 -157.5zM166 720q11 -45 39 -66t67 -21q37 0 64 22.5t35 64.5h33q-6 -50 -44 -85t-88 -35q-57 0 -94.5 32t-44.5 88h33z" />
    <glyph glyph-name="gdotaccent" unicode="&#x121;" horiz-adv-x="537" 
d="M255 526q63 0 114 -32t72 -87h2v107h38v-491q0 -102 -53.5 -160.5t-167.5 -58.5q-194 0 -202 160h38q6 -64 50.5 -95.5t113.5 -31.5q92 0 137.5 49.5t45.5 128.5v121h-2q-56 -117 -186 -117q-105 0 -163.5 68t-58.5 186q0 112 61 182.5t161 70.5zM71 273
q0 -98 50.5 -159.5t133.5 -61.5t135 60.5t52 160.5q0 101 -51.5 160.5t-136.5 59.5q-81 0 -132 -62.5t-51 -157.5zM247 706h44v-103h-44v103z" />
    <glyph glyph-name="gcommaaccent" unicode="&#x123;" horiz-adv-x="537" 
d="M255 526q63 0 114 -32t72 -87h2v107h38v-491q0 -102 -53.5 -160.5t-167.5 -58.5q-194 0 -202 160h38q6 -64 50.5 -95.5t113.5 -31.5q92 0 137.5 49.5t45.5 128.5v121h-2q-56 -117 -186 -117q-105 0 -163.5 68t-58.5 186q0 112 61 182.5t161 70.5zM71 273
q0 -98 50.5 -159.5t133.5 -61.5t135 60.5t52 160.5q0 101 -51.5 160.5t-136.5 59.5q-81 0 -132 -62.5t-51 -157.5zM302 747q-27 -6 -31 -33h25v-93h-57v79q0 63 63 67v-20z" />
    <glyph glyph-name="hcircumflex" unicode="&#x125;" 
d="M56 714h38v-310h2q20 55 69.5 88.5t114.5 33.5q183 0 183 -201v-325h-38v330q0 163 -146 163q-82 0 -133.5 -57.5t-51.5 -153.5v-282h-38v714zM230 920h40l116 -140h-38l-98 115l-97 -115h-38z" />
    <glyph glyph-name="hbar" unicode="&#x127;" 
d="M56 714h38v-94h195v-31h-195v-185h2q20 57 71 89.5t113 32.5q89 0 136 -47t47 -153v-326h-38v330q0 163 -146 163q-82 0 -133.5 -58.5t-51.5 -152.5v-282h-38v589h-82v31h82v94z" />
    <glyph glyph-name="dotlessi" unicode="&#x131;" horiz-adv-x="168" 
d="M65 514h38v-514h-38v514z" />
    <glyph glyph-name="igrave" unicode="&#xec;" horiz-adv-x="168" 
d="M65 514h38v-514h-38v514zM-60 730h51l120 -140h-37z" />
    <glyph glyph-name="iacute" unicode="&#xed;" horiz-adv-x="168" 
d="M65 514h38v-514h-38v514zM179 730h51l-134 -140h-37z" />
    <glyph glyph-name="ibreve" unicode="&#x12d;" horiz-adv-x="168" 
d="M65 514h38v-514h-38v514zM-18 720q11 -45 39 -66t67 -21q37 0 64 22.5t35 64.5h33q-6 -50 -44 -85t-88 -35q-57 0 -94.5 32t-44.5 88h33z" />
    <glyph glyph-name="icircumflex" unicode="&#xee;" horiz-adv-x="168" 
d="M65 514h38v-514h-38v514zM64 730h40l116 -140h-38l-98 115l-97 -115h-38z" />
    <glyph glyph-name="itilde" unicode="&#x129;" horiz-adv-x="168" 
d="M65 514h38v-514h-38v514zM17 699q30 0 74 -29q42 -28 63 -28q36 0 45 57h29q-6 -46 -26 -68t-50 -22q-28 0 -74 32q-37 25 -63 25q-36 0 -47 -57h-29q3 39 25.5 64.5t52.5 25.5z" />
    <glyph glyph-name="idieresis" unicode="&#xef;" horiz-adv-x="168" 
d="M65 514h38v-514h-38v514zM-17 706h44v-103h-44v103zM141 706h44v-103h-44v103z" />
    <glyph glyph-name="imacron" unicode="&#x12b;" horiz-adv-x="168" 
d="M65 514h38v-514h-38v514zM205 671v-33h-242v33h242z" />
    <glyph glyph-name="iogonek" unicode="&#x12f;" horiz-adv-x="168" 
d="M65 714h38v-103h-38v103zM65 514h38v-514q-36 -41 -52.5 -67t-16.5 -54q0 -19 11 -30.5t27 -11.5q28 0 53 35l23 -8q-24 -60 -80 -60q-35 0 -55.5 17.5t-20.5 50.5q0 58 87 128h-14v514z" />
    <glyph glyph-name="dotlessj" unicode="&#x237;" horiz-adv-x="168" 
d="M65 514h38v-571q0 -68 -26.5 -97.5t-81.5 -29.5q-16 0 -29 1v33q14 -2 27 -2q41 0 56.5 23t15.5 73v570z" />
    <glyph glyph-name="jcircumflex" unicode="&#x135;" horiz-adv-x="168" 
d="M65 514h38v-571q0 -68 -26.5 -97.5t-81.5 -29.5q-16 0 -29 1v33q14 -2 27 -2q41 0 56.5 23t15.5 73v570zM63 730h40l116 -140h-38l-98 115l-97 -115h-38z" />
    <glyph glyph-name="kcommaaccent" unicode="&#x137;" horiz-adv-x="463" 
d="M58 714h38v-473l317 273h55l-225 -192l241 -322h-52l-219 293l-117 -99v-194h-38v714zM231 -50h57v-82q0 -60 -63 -64v20q28 7 31 33h-25v93z" />
    <glyph glyph-name="kgreenlandic" unicode="&#x138;" horiz-adv-x="463" 
d="M56 514h38v-281l319 281h55l-227 -200l243 -314h-52l-221 285l-117 -99v-186h-38v514z" />
    <glyph glyph-name="lacute" unicode="&#x13a;" horiz-adv-x="168" 
d="M65 714h38v-714h-38v714zM179 920h51l-134 -140h-37z" />
    <glyph glyph-name="lcaron" unicode="&#x13e;" horiz-adv-x="168" 
d="M65 714h38v-714h-38v714zM209 714h51l-87 -140h-29z" />
    <glyph glyph-name="lcommaaccent" unicode="&#x13c;" horiz-adv-x="168" 
d="M65 714h38v-714h-38v714zM56 -50h57v-82q0 -60 -63 -64v20q28 7 31 33h-25v93z" />
    <glyph glyph-name="lslash" unicode="&#x142;" horiz-adv-x="168" 
d="M65 714h38v-286l70 54v-35l-70 -54v-393h-38v363l-70 -54v35l70 54v316z" />
    <glyph glyph-name="ldot" unicode="&#x140;" horiz-adv-x="248" 
d="M65 714h38v-714h-38v714zM178 432h44v-103h-44v103z" />
    <glyph glyph-name="nacute" unicode="&#x144;" 
d="M280 526q183 0 183 -200v-326h-38v330q0 163 -146 163q-83 0 -134 -59.5t-51 -156.5v-277h-38v514h38v-110h2q20 57 71 89.5t113 32.5zM344 730h51l-134 -140h-37z" />
    <glyph glyph-name="ncaron" unicode="&#x148;" 
d="M280 526q183 0 183 -200v-326h-38v330q0 163 -146 163q-83 0 -134 -59.5t-51 -156.5v-277h-38v514h38v-110h2q20 57 71 89.5t113 32.5zM125 730h38l97 -115l98 115h38l-116 -140h-40z" />
    <glyph glyph-name="ntilde" unicode="&#xf1;" 
d="M280 526q183 0 183 -200v-326h-38v330q0 163 -146 163q-83 0 -134 -59.5t-51 -156.5v-277h-38v514h38v-110h2q20 57 71 89.5t113 32.5zM193 699q30 0 74 -29q42 -28 63 -28q36 0 45 57h29q-6 -46 -26 -68t-50 -22q-28 0 -74 32q-37 25 -63 25q-36 0 -47 -57h-29
q3 39 25.5 64.5t52.5 25.5z" />
    <glyph glyph-name="ncommaaccent" unicode="&#x146;" 
d="M280 526q183 0 183 -200v-326h-38v330q0 163 -146 163q-83 0 -134 -59.5t-51 -156.5v-277h-38v514h38v-110h2q20 57 71 89.5t113 32.5zM231 -50h57v-82q0 -60 -63 -64v20q28 7 31 33h-25v93z" />
    <glyph glyph-name="ograve" unicode="&#xf2;" horiz-adv-x="537" 
d="M268 526q106 0 171 -75.5t65 -193.5q0 -119 -64 -194t-172 -75q-106 0 -171 74t-65 195q0 119 65 194t171 75zM70 257q0 -101 54.5 -168.5t143.5 -67.5q87 0 142.5 65.5t55.5 170.5q0 103 -55 169.5t-144 66.5q-87 0 -142 -67t-55 -169zM139 730h51l120 -140h-37z" />
    <glyph glyph-name="oacute" unicode="&#xf3;" horiz-adv-x="537" 
d="M268 526q106 0 171 -75.5t65 -193.5q0 -119 -64 -194t-172 -75q-106 0 -171 74t-65 195q0 119 65 194t171 75zM70 257q0 -101 54.5 -168.5t143.5 -67.5q87 0 142.5 65.5t55.5 170.5q0 103 -55 169.5t-144 66.5q-87 0 -142 -67t-55 -169zM347 730h51l-134 -140h-37z" />
    <glyph glyph-name="ocircumflex" unicode="&#xf4;" horiz-adv-x="537" 
d="M268 526q106 0 171 -75.5t65 -193.5q0 -119 -64 -194t-172 -75q-106 0 -171 74t-65 195q0 119 65 194t171 75zM70 257q0 -101 54.5 -168.5t143.5 -67.5q87 0 142.5 65.5t55.5 170.5q0 103 -55 169.5t-144 66.5q-87 0 -142 -67t-55 -169zM248 730h40l116 -140h-38l-98 115
l-97 -115h-38z" />
    <glyph glyph-name="otilde" unicode="&#xf5;" horiz-adv-x="537" 
d="M268 526q106 0 171 -75.5t65 -193.5q0 -119 -64 -194t-172 -75q-106 0 -171 74t-65 195q0 119 65 194t171 75zM70 257q0 -101 54.5 -168.5t143.5 -67.5q87 0 142.5 65.5t55.5 170.5q0 103 -55 169.5t-144 66.5q-87 0 -142 -67t-55 -169zM201 699q30 0 74 -29
q42 -28 63 -28q36 0 45 57h29q-6 -46 -26 -68t-50 -22q-28 0 -74 32q-37 25 -63 25q-36 0 -47 -57h-29q3 39 25.5 64.5t52.5 25.5z" />
    <glyph glyph-name="odieresis" unicode="&#xf6;" horiz-adv-x="537" 
d="M268 526q106 0 171 -75.5t65 -193.5q0 -119 -64 -194t-172 -75q-106 0 -171 74t-65 195q0 119 65 194t171 75zM70 257q0 -101 54.5 -168.5t143.5 -67.5q87 0 142.5 65.5t55.5 170.5q0 103 -55 169.5t-144 66.5q-87 0 -142 -67t-55 -169zM167 706h44v-103h-44v103z
M325 706h44v-103h-44v103z" />
    <glyph glyph-name="omacron" unicode="&#x14d;" horiz-adv-x="537" 
d="M268 526q106 0 171 -75.5t65 -193.5q0 -119 -64 -194t-172 -75q-106 0 -171 74t-65 195q0 119 65 194t171 75zM70 257q0 -101 54.5 -168.5t143.5 -67.5q87 0 142.5 65.5t55.5 170.5q0 103 -55 169.5t-144 66.5q-87 0 -142 -67t-55 -169zM389 671v-33h-242v33h242z" />
    <glyph glyph-name="obreve" unicode="&#x14f;" horiz-adv-x="537" 
d="M268 526q106 0 171 -75.5t65 -193.5q0 -119 -64 -194t-172 -75q-106 0 -171 74t-65 195q0 119 65 194t171 75zM70 257q0 -101 54.5 -168.5t143.5 -67.5q87 0 142.5 65.5t55.5 170.5q0 103 -55 169.5t-144 66.5q-87 0 -142 -67t-55 -169zM166 720q11 -45 39 -66t67 -21
q37 0 64 22.5t35 64.5h33q-6 -50 -44 -85t-88 -35q-57 0 -94.5 32t-44.5 88h33z" />
    <glyph glyph-name="ohungarumlaut" unicode="&#x151;" horiz-adv-x="537" 
d="M268 526q106 0 171 -75.5t65 -193.5q0 -119 -64 -194t-172 -75q-106 0 -171 74t-65 195q0 119 65 194t171 75zM70 257q0 -101 54.5 -168.5t143.5 -67.5q87 0 142.5 65.5t55.5 170.5q0 103 -55 169.5t-144 66.5q-87 0 -142 -67t-55 -169zM282 730h51l-134 -140h-37z
M440 730h51l-134 -140h-37z" />
    <glyph glyph-name="oslash" unicode="&#xf8;" horiz-adv-x="537" 
d="M268 526q105 0 166 -71l55 58l24 -23l-58 -62q49 -77 49 -171q0 -119 -65 -194t-171 -75q-102 0 -165 69l-54 -57l-24 23l57 61q-50 73 -50 173q0 120 65 194.5t171 74.5zM70 257q0 -85 39 -145l299 316q-51 65 -141 65q-87 0 -142 -67.5t-55 -168.5zM129 84
q54 -63 139 -63q87 0 142.5 66t55.5 170q0 82 -38 143z" />
    <glyph glyph-name="oslashacute" unicode="&#x1ff;" horiz-adv-x="537" 
d="M268 526q105 0 166 -71l55 58l24 -23l-58 -62q49 -77 49 -171q0 -119 -65 -194t-171 -75q-102 0 -165 69l-54 -57l-24 23l57 61q-50 73 -50 173q0 120 65 194.5t171 74.5zM70 257q0 -85 39 -145l299 316q-51 65 -141 65q-87 0 -142 -67.5t-55 -168.5zM129 84
q54 -63 139 -63q87 0 142.5 66t55.5 170q0 82 -38 143zM352 730h51l-134 -140h-37z" />
    <glyph glyph-name="oe" unicode="&#x153;" horiz-adv-x="889" 
d="M254 526q75 0 124 -39t66 -113h2q40 152 199 152q97 0 154 -67.5t59 -180.5q0 -12 -1 -26h-393l-1 -23q0 -97 50 -152.5t132 -55.5q133 0 170 148h38q-19 -87 -72.5 -134t-135.5 -47q-79 0 -131.5 38t-68.5 113h-2q-41 -151 -192 -151q-107 0 -163 70t-56 192
q0 126 60 201t162 75zM70 250q0 -104 48.5 -166.5t133.5 -62.5t129.5 60t44.5 169q0 118 -45 180.5t-129 62.5q-85 0 -133.5 -65.5t-48.5 -177.5zM464 285h355q0 95 -48.5 151.5t-126.5 56.5q-81 0 -130.5 -57t-49.5 -144v-7z" />
    <glyph glyph-name="racute" unicode="&#x155;" horiz-adv-x="278" 
d="M294 517v-38l-17 1q-74 0 -128.5 -55t-54.5 -143v-282h-38v514h38v-114h3q13 48 66.5 82.5t124.5 34.5h6zM256 730h51l-134 -140h-37z" />
    <glyph glyph-name="rcaron" unicode="&#x159;" horiz-adv-x="278" 
d="M294 517v-38l-17 1q-74 0 -128.5 -55t-54.5 -143v-282h-38v514h38v-114h3q13 48 66.5 82.5t124.5 34.5h6zM42 730h38l97 -115l98 115h38l-116 -140h-40z" />
    <glyph glyph-name="rcommaaccent" unicode="&#x157;" horiz-adv-x="278" 
d="M294 517v-38l-17 1q-74 0 -128.5 -55t-54.5 -143v-282h-38v514h38v-114h3q13 48 66.5 82.5t124.5 34.5h6zM46 -50h57v-82q0 -60 -63 -64v20q28 7 31 33h-25v93z" />
    <glyph glyph-name="sacute" unicode="&#x15b;" horiz-adv-x="481" 
d="M240 526q91 0 140.5 -42t49.5 -122h-38q0 64 -40 97.5t-112 33.5q-63 0 -105.5 -25.5t-42.5 -73.5q0 -41 33 -68q30 -24 162 -50q83 -17 120.5 -50t37.5 -96q0 -70 -55.5 -106t-145.5 -36q-93 0 -149.5 48.5t-58.5 134.5h38q4 -69 50.5 -109.5t119.5 -40.5q75 0 119 27.5
t44 81.5q0 45 -33.5 71.5t-140.5 46.5q-98 17 -138.5 51t-40.5 95q0 63 50 97.5t136 34.5zM327 730h51l-134 -140h-37z" />
    <glyph glyph-name="scircumflex" unicode="&#x15d;" horiz-adv-x="481" 
d="M240 526q91 0 140.5 -42t49.5 -122h-38q0 64 -40 97.5t-112 33.5q-63 0 -105.5 -25.5t-42.5 -73.5q0 -41 33 -68q30 -24 162 -50q83 -17 120.5 -50t37.5 -96q0 -70 -55.5 -106t-145.5 -36q-93 0 -149.5 48.5t-58.5 134.5h38q4 -69 50.5 -109.5t119.5 -40.5q75 0 119 27.5
t44 81.5q0 45 -33.5 71.5t-140.5 46.5q-98 17 -138.5 51t-40.5 95q0 63 50 97.5t136 34.5zM223 730h40l116 -140h-38l-98 115l-97 -115h-38z" />
    <glyph glyph-name="scaron" unicode="&#x161;" horiz-adv-x="481" 
d="M240 526q91 0 140.5 -42t49.5 -122h-38q0 64 -40 97.5t-112 33.5q-63 0 -105.5 -25.5t-42.5 -73.5q0 -41 33 -68q30 -24 162 -50q83 -17 120.5 -50t37.5 -96q0 -70 -55.5 -106t-145.5 -36q-93 0 -149.5 48.5t-58.5 134.5h38q4 -69 50.5 -109.5t119.5 -40.5q75 0 119 27.5
t44 81.5q0 45 -33.5 71.5t-140.5 46.5q-98 17 -138.5 51t-40.5 95q0 63 50 97.5t136 34.5zM108 730h38l97 -115l98 115h38l-116 -140h-40z" />
    <glyph glyph-name="scedilla" unicode="&#x15f;" horiz-adv-x="481" 
d="M240 526q91 0 140.5 -42t49.5 -122h-38q0 63 -40 97t-112 34q-64 0 -106 -25.5t-42 -73.5q0 -41 32 -67q29 -24 163 -51q83 -17 120.5 -50t37.5 -96q0 -66 -50.5 -102.5t-143.5 -39.5l-37 -44l1 -1q18 7 38 7q34 0 54 -18t20 -49q0 -36 -25 -57.5t-73 -21.5q-51 0 -92 25
l11 24q41 -22 80 -22q29 0 45 14t16 36q0 19 -14.5 31t-37.5 12t-49 -12l-16 13l47 64q-85 8 -133 55t-50 127h38q4 -69 50.5 -109.5t119.5 -40.5q75 0 119 27.5t44 81.5q0 43 -31.5 70t-144.5 48q-94 18 -135.5 50.5t-41.5 95.5t50 97.5t136 34.5z" />
    <glyph glyph-name="scommaaccent" unicode="&#x219;" horiz-adv-x="481" 
d="M240 526q91 0 140.5 -42t49.5 -122h-38q0 64 -40 97.5t-112 33.5q-63 0 -105.5 -25.5t-42.5 -73.5q0 -41 33 -68q30 -24 162 -50q83 -17 120.5 -50t37.5 -96q0 -70 -55.5 -106t-145.5 -36q-93 0 -149.5 48.5t-58.5 134.5h38q4 -69 50.5 -109.5t119.5 -40.5q75 0 119 27.5
t44 81.5q0 45 -33.5 71.5t-140.5 46.5q-98 17 -138.5 51t-40.5 95q0 63 50 97.5t136 34.5zM221 -50h57v-82q0 -60 -63 -64v20q28 7 31 33h-25v93z" />
    <glyph glyph-name="germandbls" unicode="&#xdf;" horiz-adv-x="500" 
d="M240 726q86 0 137 -44t51 -122q0 -130 -119 -157v-2q75 -9 114.5 -57t39.5 -130q0 -103 -52.5 -158.5t-144.5 -55.5h-59v33h17q61 0 90 9q111 35 111 172q0 85 -51 124.5t-167 39.5v34q91 2 137 40.5t46 107.5q0 63 -42 98t-108 35q-144 0 -144 -157v-536h-38v537
q0 189 182 189z" />
    <glyph glyph-name="tcaron" unicode="&#x165;" horiz-adv-x="259" 
d="M95 674h38v-160h112v-33h-112v-363q0 -42 18 -63.5t66 -21.5h27v-33q-13 -1 -28 -1q-63 0 -92 27.5t-29 84.5v370h-95v33h95v160zM273 714h51l-87 -140h-29z" />
    <glyph glyph-name="tcommaaccent" unicode="&#x163;" horiz-adv-x="259" 
d="M95 674h38v-160h112v-33h-112v-363q0 -42 18 -63.5t66 -21.5h27v-33q-13 -1 -28 -1q-63 0 -92 27.5t-29 84.5v370h-95v33h95v160zM134 -50h57v-82q0 -60 -63 -64v20q28 7 31 33h-25v93z" />
    <glyph glyph-name="uni021B" unicode="&#x21b;" horiz-adv-x="259" 
d="M95 674h38v-160h112v-33h-112v-363q0 -42 18 -63.5t66 -21.5h27v-33q-13 -1 -28 -1q-63 0 -92 27.5t-29 84.5v370h-95v33h95v160zM134 -50h57v-82q0 -60 -63 -64v20q28 7 31 33h-25v93z" />
    <glyph glyph-name="tbar" unicode="&#x167;" horiz-adv-x="259" 
d="M95 674h38v-160h112v-33h-112v-127h102v-31h-102v-204q0 -42 17.5 -64t68.5 -22h25v-33q-10 -1 -28 -1q-63 0 -92 27.5t-29 79.5v217h-87v31h87v127h-95v33h95v160z" />
    <glyph glyph-name="thorn" unicode="&#xfe;" horiz-adv-x="556" 
d="M65 714h38v-318h2q20 57 69 93.5t118 36.5q106 0 168.5 -74t62.5 -196q0 -128 -60.5 -198t-170.5 -70q-143 0 -187 119h-2v-291h-38v898zM104 256q0 -114 47 -174.5t141 -60.5q90 0 141.5 63t51.5 172q0 107 -52 172t-142 65q-89 0 -138 -63.5t-49 -173.5z" />
    <glyph glyph-name="ugrave" unicode="&#xf9;" 
d="M56 514h38v-330q0 -163 146 -163q83 0 134 58t51 154v281h38v-514h-38v110h-2q-22 -59 -73.5 -90.5t-111.5 -31.5q-182 0 -182 197v329zM125 730h51l120 -140h-37z" />
    <glyph glyph-name="uacute" unicode="&#xfa;" 
d="M56 514h38v-330q0 -163 146 -163q83 0 134 58t51 154v281h38v-514h-38v110h-2q-22 -59 -73.5 -90.5t-111.5 -31.5q-182 0 -182 197v329zM343 730h51l-134 -140h-37z" />
    <glyph glyph-name="ucircumflex" unicode="&#xfb;" 
d="M56 514h38v-330q0 -163 146 -163q83 0 134 58t51 154v281h38v-514h-38v110h-2q-22 -59 -73.5 -90.5t-111.5 -31.5q-182 0 -182 197v329zM239 730h40l116 -140h-38l-98 115l-97 -115h-38z" />
    <glyph glyph-name="utilde" unicode="&#x169;" 
d="M56 514h38v-330q0 -163 146 -163q83 0 134 58t51 154v281h38v-514h-38v110h-2q-22 -59 -73.5 -90.5t-111.5 -31.5q-182 0 -182 197v329zM192 699q30 0 74 -29q42 -28 63 -28q36 0 45 57h29q-6 -46 -26 -68t-50 -22q-28 0 -74 32q-37 25 -63 25q-36 0 -47 -57h-29
q3 39 25.5 64.5t52.5 25.5z" />
    <glyph glyph-name="udieresis" unicode="&#xfc;" 
d="M56 514h38v-330q0 -163 146 -163q83 0 134 58t51 154v281h38v-514h-38v110h-2q-22 -59 -73.5 -90.5t-111.5 -31.5q-182 0 -182 197v329zM158 706h44v-103h-44v103zM316 706h44v-103h-44v103z" />
    <glyph glyph-name="umacron" unicode="&#x16b;" 
d="M56 514h38v-330q0 -163 146 -163q83 0 134 58t51 154v281h38v-514h-38v110h-2q-22 -59 -73.5 -90.5t-111.5 -31.5q-182 0 -182 197v329zM380 671v-33h-242v33h242z" />
    <glyph glyph-name="ubreve" unicode="&#x16d;" 
d="M56 514h38v-330q0 -163 146 -163q83 0 134 58t51 154v281h38v-514h-38v110h-2q-22 -59 -73.5 -90.5t-111.5 -31.5q-182 0 -182 197v329zM157 720q11 -45 39 -66t67 -21q37 0 64 22.5t35 64.5h33q-6 -50 -44 -85t-88 -35q-57 0 -94.5 32t-44.5 88h33z" />
    <glyph glyph-name="uring" unicode="&#x16f;" 
d="M56 514h38v-330q0 -163 146 -163q83 0 134 58t51 154v281h38v-514h-38v110h-2q-22 -59 -73.5 -90.5t-111.5 -31.5q-182 0 -182 197v329zM259 769q42 0 70.5 -28.5t28.5 -70.5q0 -43 -28.5 -71t-70.5 -28t-70.5 28t-28.5 71q0 42 28.5 70.5t70.5 28.5zM187 670
q0 -30 21 -51t51 -21q31 0 51.5 21.5t20.5 50.5q0 30 -21.5 51t-50.5 21q-28 0 -50 -20.5t-22 -51.5z" />
    <glyph glyph-name="uhungarumlaut" unicode="&#x171;" 
d="M56 514h38v-330q0 -163 146 -163q83 0 134 58t51 154v281h38v-514h-38v110h-2q-22 -59 -73.5 -90.5t-111.5 -31.5q-182 0 -182 197v329zM273 730h51l-134 -140h-37zM431 730h51l-134 -140h-37z" />
    <glyph glyph-name="uogonek" unicode="&#x173;" 
d="M56 514h38v-330q0 -163 146 -163q82 0 133.5 58.5t51.5 152.5v282h38v-514h-11q-47 -41 -64.5 -68.5t-17.5 -52.5q0 -20 12 -31t31 -11q35 0 58 35l23 -8q-24 -60 -86 -60q-39 0 -60.5 18t-21.5 50q0 58 99 127v111h-2q-21 -59 -72 -90.5t-113 -31.5q-182 0 -182 200v326
z" />
    <glyph glyph-name="wacute" unicode="&#x1e83;" horiz-adv-x="704" 
d="M-2 514h41l145 -470h2l140 470h51l141 -470h2l144 470h42l-165 -514h-47l-141 466h-2l-142 -466h-48zM436 730h51l-134 -140h-37z" />
    <glyph glyph-name="wcircumflex" unicode="&#x175;" horiz-adv-x="704" 
d="M-2 514h41l145 -470h2l140 470h51l141 -470h2l144 470h42l-165 -514h-47l-141 466h-2l-142 -466h-48zM332 730h40l116 -140h-38l-98 115l-97 -115h-38z" />
    <glyph glyph-name="wdieresis" unicode="&#x1e85;" horiz-adv-x="704" 
d="M-2 514h41l145 -470h2l140 470h51l141 -470h2l144 470h42l-165 -514h-47l-141 466h-2l-142 -466h-48zM251 706h44v-103h-44v103zM409 706h44v-103h-44v103z" />
    <glyph glyph-name="wgrave" unicode="&#x1e81;" horiz-adv-x="704" 
d="M-2 514h41l145 -470h2l140 470h51l141 -470h2l144 470h42l-165 -514h-47l-141 466h-2l-142 -466h-48zM218 730h51l120 -140h-37z" />
    <glyph glyph-name="yacute" unicode="&#xfd;" horiz-adv-x="444" 
d="M-6 514h45l191 -469l176 469h43l-219 -566q-23 -58 -39 -83.5t-41.5 -37t-88.5 -11.5h-12v33h8q49 0 76 15t38 39t38 100zM313 730h51l-134 -140h-37z" />
    <glyph glyph-name="ycircumflex" unicode="&#x177;" horiz-adv-x="444" 
d="M-6 514h45l191 -469l176 469h43l-219 -566q-23 -58 -39 -83.5t-41.5 -37t-88.5 -11.5h-12v33h8q49 0 76 15t38 39t38 100zM209 730h40l116 -140h-38l-98 115l-97 -115h-38z" />
    <glyph glyph-name="ydieresis" unicode="&#xff;" horiz-adv-x="444" 
d="M-6 514h45l191 -469l176 469h43l-219 -566q-23 -58 -39 -83.5t-41.5 -37t-88.5 -11.5h-12v33h8q49 0 76 15t38 39t38 100zM128 706h44v-103h-44v103zM286 706h44v-103h-44v103z" />
    <glyph glyph-name="ygrave" unicode="&#x1ef3;" horiz-adv-x="444" 
d="M-6 514h45l191 -469l176 469h43l-219 -566q-23 -58 -39 -83.5t-41.5 -37t-88.5 -11.5h-12v33h8q49 0 76 15t38 39t38 100zM95 730h51l120 -140h-37z" />
    <glyph glyph-name="zacute" unicode="&#x17a;" horiz-adv-x="426" 
d="M401 514v-36l-346 -445h362v-33h-408v36l345 445h-318v33h365zM300 730h51l-134 -140h-37z" />
    <glyph glyph-name="zcaron" unicode="&#x17e;" horiz-adv-x="426" 
d="M401 514v-36l-346 -445h362v-33h-408v36l345 445h-318v33h365zM81 730h38l97 -115l98 115h38l-116 -140h-40z" />
    <glyph glyph-name="zdotaccent" unicode="&#x17c;" horiz-adv-x="426" 
d="M401 514v-36l-346 -445h362v-33h-408v36l345 445h-318v33h365zM194 706h44v-103h-44v103z" />
    <glyph glyph-name="grave.cap" horiz-adv-x="167" 
d="M-30 920h51l120 -140h-37z" />
    <glyph glyph-name="acute" unicode="&#xb4;" horiz-adv-x="167" 
d="M146 730h51l-134 -140h-37z" />
    <glyph glyph-name="acute.cap" horiz-adv-x="167" 
d="M146 920h51l-134 -140h-37z" />
    <glyph glyph-name="circumflex" unicode="&#x2c6;" horiz-adv-x="167" 
d="M63 730h40l116 -140h-38l-98 115l-97 -115h-38z" />
    <glyph glyph-name="circumflex.cap" horiz-adv-x="167" 
d="M63 920h40l116 -140h-38l-98 115l-97 -115h-38z" />
    <glyph glyph-name="caron" unicode="&#x2c7;" horiz-adv-x="167" 
d="M-52 730h38l97 -115l98 115h38l-116 -140h-40z" />
    <glyph glyph-name="caron.cap" horiz-adv-x="167" 
d="M-52 920h38l97 -115l98 115h38l-116 -140h-40z" />
    <glyph glyph-name="caron.alt" horiz-adv-x="167" 
d="M96 714h51l-87 -140h-29z" />
    <glyph glyph-name="tilde" unicode="&#x2dc;" horiz-adv-x="167" 
d="M17 699q30 0 74 -29q42 -28 63 -28q36 0 45 57h29q-6 -46 -26 -68t-50 -22q-28 0 -74 32q-37 25 -63 25q-36 0 -47 -57h-29q3 39 25.5 64.5t52.5 25.5z" />
    <glyph glyph-name="tilde.cap" horiz-adv-x="167" 
d="M17 889q30 0 74 -29q42 -28 63 -28q36 0 45 57h29q-6 -46 -26 -68t-50 -22q-28 0 -74 32q-37 25 -63 25q-36 0 -47 -57h-29q3 39 25.5 64.5t52.5 25.5z" />
    <glyph glyph-name="dieresis" unicode="&#xa8;" horiz-adv-x="167" 
d="M-18 706h44v-103h-44v103zM140 706h44v-103h-44v103z" />
    <glyph glyph-name="dieresis.cap" horiz-adv-x="167" 
d="M-18 896h44v-103h-44v103zM140 896h44v-103h-44v103z" />
    <glyph glyph-name="macron" unicode="&#xaf;" horiz-adv-x="167" 
d="M205 671v-33h-242v33h242z" />
    <glyph glyph-name="macron.cap" horiz-adv-x="167" 
d="M205 861v-33h-242v33h242z" />
    <glyph glyph-name="uni02C9" unicode="&#x2c9;" horiz-adv-x="167" 
d="M205 671v-33h-242v33h242z" />
    <glyph glyph-name="breve" unicode="&#x2d8;" horiz-adv-x="167" 
d="M-19 720q11 -45 39 -66t67 -21q37 0 64 22.5t35 64.5h33q-6 -50 -44 -85t-88 -35q-57 0 -94.5 32t-44.5 88h33z" />
    <glyph glyph-name="breve.cap" horiz-adv-x="167" 
d="M-19 910q11 -45 39 -66t67 -21q37 0 64 22.5t35 64.5h33q-6 -50 -44 -85t-88 -35q-57 0 -94.5 32t-44.5 88h33z" />
    <glyph glyph-name="ring" unicode="&#x2da;" horiz-adv-x="167" 
d="M83 769q42 0 70.5 -28.5t28.5 -70.5q0 -43 -28.5 -71t-70.5 -28t-70.5 28t-28.5 71q0 42 28.5 70.5t70.5 28.5zM11 670q0 -30 21 -51t51 -21q31 0 51.5 21.5t20.5 50.5q0 30 -21.5 51t-50.5 21q-28 0 -50 -20.5t-22 -51.5z" />
    <glyph glyph-name="ring.cap" horiz-adv-x="167" 
d="M83 949q42 0 70.5 -28.5t28.5 -70.5q0 -43 -28.5 -71t-70.5 -28t-70.5 28.5t-28.5 70.5t28.5 70.5t70.5 28.5zM11 850q0 -31 21 -51.5t51 -20.5q31 0 51.5 21.5t20.5 50.5q0 31 -21.5 51.5t-50.5 20.5q-28 0 -50 -20.5t-22 -51.5z" />
    <glyph glyph-name="hungarumlaut" unicode="&#x2dd;" horiz-adv-x="167" 
d="M64 730h51l-134 -140h-37zM222 730h51l-134 -140h-37z" />
    <glyph glyph-name="hungarumlaut.cap" horiz-adv-x="167" 
d="M64 920h51l-134 -140h-37zM222 920h51l-134 -140h-37z" />
    <glyph glyph-name="dotaccent" unicode="&#x2d9;" horiz-adv-x="167" 
d="M61 706h44v-103h-44v103z" />
    <glyph glyph-name="dotaccent.cap" horiz-adv-x="167" 
d="M61 896h44v-103h-44v103z" />
    <glyph glyph-name="cedilla" unicode="&#xb8;" horiz-adv-x="167" 
d="M83 0h34l-48 -56l1 -1q18 7 38 7q35 0 54.5 -18t19.5 -49q0 -36 -25 -57.5t-73 -21.5q-51 0 -92 25l11 24q41 -22 80 -22q29 0 45 14t16 36q0 19 -14.5 31t-37.5 12t-49 -12l-16 13z" />
    <glyph glyph-name="ogonek" unicode="&#x2db;" horiz-adv-x="167" 
d="M132 0q-83 -70 -82 -121q0 -19 12 -30.5t31 -11.5q37 0 58 35l23 -8q-24 -60 -86 -60q-39 0 -60.5 18t-21.5 50q0 61 102 128h24z" />
    <glyph glyph-name="commaaccent" horiz-adv-x="278" 
d="M119 -50h57v-82q0 -60 -63 -64v20q28 7 31 33h-25v93z" />
    <glyph glyph-name="commaaccent.alt" horiz-adv-x="278" 
d="M165 747q-27 -6 -31 -33h25v-93h-57v79q0 63 63 67v-20z" />
    <glyph glyph-name="ellipsis" unicode="&#x2026;" horiz-adv-x="1000" 
d="M141 103h51v-103h-51v103zM474 103h51v-103h-51v103zM807 103h51v-103h-51v103z" />
    <glyph glyph-name="uni00AD" unicode="&#xad;" horiz-adv-x="352" 
d="M283 291v-38h-214v38h214z" />
    <glyph glyph-name="exclamdown" unicode="&#xa1;" horiz-adv-x="259" 
d="M104 535h51v-103h-51v103zM117 347h24l12 -290v-241h-48v241zM30 514z" />
    <glyph glyph-name="questiondown" unicode="&#xbf;" 
d="M236 535h51v-103h-51v103zM282 354q0 -63 -20.5 -112.5t-70.5 -95.5q-53 -48 -74.5 -85t-21.5 -78q0 -66 44.5 -103.5t116.5 -37.5q85 0 132.5 53t48.5 147h38q-1 -113 -59 -175.5t-163 -62.5q-89 0 -142.5 47.5t-53.5 131.5q0 53 22 91t85 95q45 41 62.5 83t17.5 102h38
zM140 514z" />
    <glyph glyph-name="quoteleft" unicode="&#x2018;" horiz-adv-x="204" 
d="M143 681q-16 -6 -25 -33.5t-9 -59.5h21v-103h-51v107q0 44 16.5 77.5t47.5 44.5v-33z" />
    <glyph glyph-name="quoteright" unicode="&#x2019;" horiz-adv-x="204" 
d="M74 714h51v-103q0 -100 -64 -126v33q31 14 34 93h-21v103z" />
    <glyph glyph-name="quotedblleft" unicode="&#x201c;" horiz-adv-x="315" 
d="M128 681q-33 -17 -34 -93h21v-103h-51v106q2 99 64 123v-33zM254 681q-33 -17 -34 -93h21v-103h-51v106q0 95 64 123v-33z" />
    <glyph glyph-name="quotedblright" unicode="&#x201d;" horiz-adv-x="315" 
d="M74 714h51v-107q-1 -95 -64 -122v33q32 15 34 93h-21v103zM200 714h51v-107q-2 -96 -64 -122v33q32 15 34 93h-21v103z" />
    <glyph glyph-name="quotesinglbase" unicode="&#x201a;" horiz-adv-x="204" 
d="M74 103h51v-107q0 -94 -64 -122v33q33 17 34 93h-21v103z" />
    <glyph glyph-name="quotedblbase" unicode="&#x201e;" horiz-adv-x="315" 
d="M74 103h51v-107q0 -94 -64 -122v33q33 17 34 93h-21v103zM200 103h51v-107q-1 -95 -64 -122v33q34 18 34 93h-21v103z" />
    <glyph glyph-name="guilsinglleft" unicode="&#x2039;" horiz-adv-x="259" 
d="M181 423v-51l-85 -100l85 -102v-49l-114 131v40z" />
    <glyph glyph-name="guilsinglright" unicode="&#x203a;" horiz-adv-x="259" 
d="M78 423l114 -131v-40l-114 -131v49l85 102l-85 100v51z" />
    <glyph glyph-name="guillemotleft" unicode="&#xab;" horiz-adv-x="389" 
d="M181 423v-51l-85 -100l85 -102v-49l-114 131v40zM309 423v-51l-85 -100l85 -102v-49l-114 131v40z" />
    <glyph glyph-name="guillemotright" unicode="&#xbb;" horiz-adv-x="389" 
d="M80 423l114 -131v-40l-114 -131v49l85 102l-85 100v51zM208 423l114 -131v-40l-114 -131v49l85 102l-85 100v51z" />
    <glyph glyph-name="endash" unicode="&#x2013;" horiz-adv-x="500" 
d="M500 291v-38h-500v38h500z" />
    <glyph glyph-name="emdash" unicode="&#x2014;" horiz-adv-x="1000" 
d="M870 291v-38h-740v38h740z" />
    <glyph glyph-name="bullet" unicode="&#x2022;" horiz-adv-x="500" 
d="M250 535q73 0 126 -51t53 -127q0 -73 -52.5 -126t-126.5 -53t-126 52.5t-52 126.5q0 76 52 127t126 51z" />
    <glyph glyph-name="periodcentered" unicode="&#xb7;" horiz-adv-x="278" 
d="M139 371q22 0 38.5 -16t16.5 -38q0 -23 -16 -39t-39 -16q-22 0 -38 16.5t-16 38.5q0 20 16.5 37t37.5 17z" />
    <glyph glyph-name="uni2219" unicode="&#x2219;" horiz-adv-x="278" 
d="M139 371q22 0 38.5 -16t16.5 -38q0 -23 -16 -39t-39 -16q-22 0 -38 16.5t-16 38.5q0 20 16.5 37t37.5 17z" />
    <glyph glyph-name="dagger" unicode="&#x2020;" horiz-adv-x="556" 
d="M259 714h38v-200h205v-33h-205v-627h-38v627h-205v33h205v200z" />
    <glyph glyph-name="daggerdbl" unicode="&#x2021;" horiz-adv-x="556" 
d="M259 714h38v-200h205v-33h-205v-394h205v-33h-205v-200h-38v200h-205v33h205v394h-205v33h205v200z" />
    <glyph glyph-name="section" unicode="&#xa7;" horiz-adv-x="556" 
d="M137 9q2 -72 39 -116t104 -44q131 0 131 105q0 43 -30 79t-95 71q-154 82 -194 126t-40 101q0 98 111 140q-26 18 -40.5 49t-14.5 65q0 63 46.5 104.5t118.5 41.5q172 0 176 -195h-38v6q0 67 -38 111.5t-103 44.5q-49 0 -86 -31.5t-37 -75.5q0 -34 17.5 -62t48.5 -51.5
t114 -65.5q100 -50 138 -96.5t38 -103.5q0 -106 -111 -135q37 -37 47 -62t10 -60q0 -69 -45 -104t-124 -35q-82 0 -131.5 52t-49.5 141h38zM364 100q39 8 70 40t31 70q0 42 -30.5 77.5t-100.5 74.5l-147 87q-48 -19 -72.5 -48.5t-24.5 -63.5q0 -69 90 -124z" />
    <glyph glyph-name="paragraph" unicode="&#xb6;" horiz-adv-x="600" 
d="M506 714v-860h-38v827h-157v-827h-38v470q-85 0 -146 56.5t-61 138.5q0 94 57.5 144.5t160.5 50.5h222z" />
    <glyph glyph-name="brokenbar" unicode="&#xa6;" horiz-adv-x="222" 
d="M92 661h38v-250h-38v250zM92 161h38v-250h-38v250z" />
    <glyph glyph-name="copyright" unicode="&#xa9;" horiz-adv-x="800" 
d="M400 731q98 0 185.5 -49.5t138 -136.5t50.5 -188q0 -99 -50 -187t-136.5 -137.5t-187.5 -49.5q-100 0 -187.5 50t-137 137t-49.5 187q0 99 50 186t137 137.5t187 50.5zM64 358q0 -92 43.5 -171t122 -125t171.5 -46q137 0 236 97.5t99 244.5q0 143 -95.5 241.5
t-241.5 98.5q-140 0 -237.5 -96.5t-97.5 -243.5zM408 593q76 0 129 -42t62 -113h-38q-12 60 -54 91t-98 31q-86 0 -136 -55.5t-50 -145.5q0 -93 55 -149.5t133 -56.5q117 0 150 128h38q-10 -72 -61 -116.5t-127 -44.5q-100 0 -163 66.5t-63 171.5q0 106 61 170.5t162 64.5z
" />
    <glyph glyph-name="registered" unicode="&#xae;" horiz-adv-x="800" 
d="M400 731q99 0 185.5 -49t137.5 -135.5t51 -189.5q0 -100 -49.5 -186.5t-137 -137t-187.5 -50.5q-99 0 -185.5 49t-137.5 135.5t-51 189.5q0 99 49.5 186.5t136 137.5t188.5 50zM64 357q0 -92 44 -171t122.5 -124.5t170.5 -45.5q90 0 167 44.5t122.5 124t45.5 173.5
q0 144 -95.5 242t-241.5 98q-139 0 -237 -97.5t-98 -243.5zM433 578q141 0 141 -121q0 -102 -114 -118l132 -203h-42l-133 204h-115v-204h-38v442h169zM402 373q72 0 103 20.5t31 64.5q0 45 -31 66t-79 21h-124v-172h100z" />
    <glyph glyph-name="trademark" unicode="&#x2122;" horiz-adv-x="990" 
d="M404 714v-33h-143v-379h-32v379h-144v33h319zM483 714h59l152 -346l152 346h59v-412h-32v379h-3l-167 -379h-18l-167 379h-3v-379h-32v412z" />
    <glyph glyph-name="currency" unicode="&#xa4;" horiz-adv-x="556" 
d="M277 593q90 0 162 -61l54 55l27 -27l-55 -54q61 -72 61 -161q0 -97 -61 -160l54 -54l-27 -27l-53 54q-72 -61 -162 -61q-88 0 -160 61l-55 -56l-27 27l56 55q-61 74 -61 163q0 88 61 159l-57 56l27 27l56 -56q72 60 160 60zM74 345q0 -86 61 -148t143 -62q83 0 143.5 62
t60.5 148q0 84 -61 147t-144 63q-82 0 -142.5 -63t-60.5 -147z" />
    <glyph glyph-name="Euro" unicode="&#x20ac;" horiz-adv-x="556" 
d="M337 702q148 0 193 -107l-21 -38q-15 53 -60 82.5t-113 29.5q-100 0 -154.5 -63t-65.5 -176h332l-15 -33h-320q-2 -26 -2 -51q0 -20 2 -45h283l-15 -33h-264q13 -119 72 -183t150 -64q115 0 183 78v-46q-69 -65 -186 -65q-108 0 -176 72t-83 208h-65l15 33h47
q-1 24 -1 42q0 25 2 54h-63l15 33h50q12 130 80 201t180 71z" />
    <glyph glyph-name="cent" unicode="&#xa2;" horiz-adv-x="556" 
d="M272 615h32v-89q83 -4 134.5 -47t60.5 -124h-38q-5 59 -45 95.5t-112 42.5v-472q66 6 108.5 49t53.5 111h38q-11 -82 -63 -134t-137 -59v-106h-32v106q-105 6 -163 79.5t-58 194.5q0 114 61 186t160 78v89zM89 262q0 -103 46 -168.5t137 -72.5v472q-82 -6 -132.5 -71.5
t-50.5 -159.5z" />
    <glyph glyph-name="sterling" unicode="&#xa3;" horiz-adv-x="556" 
d="M277 731q235 0 235 -236v-11h-38q-2 107 -49 158t-147 51q-88 0 -139 -40t-51 -112q0 -57 39 -128l26 -50h160v-33h-141q23 -37 23 -107q0 -54 -27.5 -104t-71.5 -88l2 -2q53 36 94 36q44 0 102 -22q56 -22 93 -22q35 0 64.5 14.5t70.5 53.5l22 -33q-71 -73 -151 -73
q-47 0 -108 22q-60 22 -96 22q-55 0 -120 -44l-25 34q63 60 88 108.5t25 98.5q0 56 -29 106h-78v33h60q-34 60 -47 99.5t-13 76.5q0 87 64.5 139.5t162.5 52.5z" />
    <glyph glyph-name="florin" unicode="&#x192;" horiz-adv-x="556" 
d="M433 731q33 0 60 -6l-8 -38q-33 6 -54 6q-42 0 -69 -26.5t-35 -69.5l-33 -168h120l-5 -33h-121l-80 -410q-18 -93 -55 -131.5t-95 -38.5q-25 0 -53 6l7 37q35 -5 50 -5q78 0 105 137l79 405h-112l7 33h111l34 172q11 59 48.5 94.5t98.5 35.5z" />
    <glyph glyph-name="yen" unicode="&#xa5;" horiz-adv-x="556" 
d="M41 714l238 -374l239 374h45l-238 -372h92v-33h-120v-78h120v-33h-120v-198h-38v198h-120v33h120v78h-120v33h92l-238 372h48z" />
    <glyph glyph-name="ordfeminine" unicode="&#xaa;" horiz-adv-x="310" 
d="M161 702q121 0 121 -83v-193q0 -24 19 -24q10 0 17 2v-27q-12 -2 -20 -2q-23 0 -34 9.5t-11 33.5v16h-2q-9 -28 -41.5 -48t-82.5 -20q-59 0 -86.5 23.5t-27.5 72.5q0 42 27.5 66t97.5 29q78 6 95.5 15.5t17.5 48.5q0 26 -25 40t-67 14q-43 0 -69 -20.5t-29 -57.5v-1h-32
q12 106 132 106zM45 462q0 -31 21.5 -50t58.5 -19q59 0 92 30.5t33 79.5v51q-15 -18 -81 -21q-66 -4 -95 -19.5t-29 -51.5z" />
    <glyph glyph-name="ordmasculine" unicode="&#xba;" horiz-adv-x="334" 
d="M167 702q72 0 115 -46.5t43 -121.5t-42.5 -121.5t-115.5 -46.5q-74 0 -116 46.5t-42 121.5t43.5 121.5t114.5 46.5zM41 534q0 -64 34 -102.5t92 -38.5q59 0 92.5 38.5t33.5 102.5t-33.5 102.5t-93.5 38.5q-57 0 -91 -38t-34 -103z" />
    <glyph glyph-name="onesuperior" unicode="&#xb9;" horiz-adv-x="360" 
d="M219 820v-423h-34v362q-49 -47 -119 -53v30q93 13 126 84h27z" />
    <glyph glyph-name="twosuperior" unicode="&#xb2;" horiz-adv-x="360" 
d="M186 829q58 0 93 -32.5t35 -89.5q0 -76 -73 -124l-76 -50q-40 -26 -61.5 -49.5t-26.5 -55.5h236v-31h-273q3 57 28 92t79 69l74 48q59 40 59 102q0 42 -26 66.5t-68 24.5q-101 0 -105 -113h-34q0 67 37 105t102 38z" />
    <glyph glyph-name="threesuperior" unicode="&#xb3;" horiz-adv-x="360" 
d="M184 829q58 0 91 -30.5t33 -81.5q0 -35 -21 -60t-56 -34q45 -6 69.5 -35t24.5 -71q0 -59 -40 -94t-106 -35q-67 0 -105 36t-38 100v3h34q0 -52 28 -80.5t80 -28.5t82.5 25t30.5 73q0 38 -26.5 63.5t-86.5 25.5h-28v31h29q42 0 68.5 21t26.5 59q0 40 -23.5 61.5
t-67.5 21.5q-99 0 -103 -102h-34q2 63 38.5 97.5t99.5 34.5z" />
    <glyph glyph-name="fraction" unicode="&#x2044;" horiz-adv-x="167" 
d="M296 714h40l-465 -738h-40z" />
    <glyph glyph-name="uni2215" unicode="&#x2215;" horiz-adv-x="167" 
d="M296 714h40l-465 -738h-40z" />
    <glyph glyph-name="onehalf" unicode="&#xbd;" horiz-adv-x="834" 
d="M211 697v-423h-34v362q-49 -47 -119 -53v30q93 13 126 84h27zM633 432q58 0 93 -32.5t35 -89.5q0 -76 -73 -124l-76 -50q-40 -26 -61.5 -49.5t-26.5 -55.5h236v-31h-273q3 57 28 92t79 69l74 48q59 40 59 102q0 42 -26 66.5t-68 24.5q-101 0 -105 -113h-34q0 67 37 105
t102 38zM580 714h40l-465 -738h-40z" />
    <glyph glyph-name="onethird" unicode="&#x2153;" horiz-adv-x="834" 
d="M211 697v-423h-34v362q-49 -47 -119 -53v30q93 13 126 84h27zM625 432q58 0 91 -30.5t33 -81.5q0 -35 -21 -60t-56 -34q45 -6 69.5 -35t24.5 -71q0 -59 -40 -94t-106 -35q-67 0 -105 36t-38 100v3h34q0 -52 28 -80.5t80 -28.5t82.5 25t30.5 73q0 38 -26.5 63.5
t-86.5 25.5h-28v31h29q42 0 68.5 21t26.5 59q0 40 -23.5 61.5t-67.5 21.5q-99 0 -103 -102h-34q2 63 38.5 97.5t99.5 34.5zM575 714h40l-465 -738h-40z" />
    <glyph glyph-name="onequarter" unicode="&#xbc;" horiz-adv-x="834" 
d="M211 697v-423h-34v362q-49 -47 -119 -53v30q93 13 126 84h27zM653 423h31v-291h68v-31h-68v-101h-34v101h-215v31zM650 372l-181 -240h181v240zM594 714h40l-465 -738h-40z" />
    <glyph glyph-name="oneeighth" unicode="&#x215b;" horiz-adv-x="834" 
d="M211 697v-423h-34v362q-49 -47 -119 -53v30q93 13 126 84h27zM608 432q60 0 93.5 -30t33.5 -78q0 -66 -69 -92q89 -24 89 -113q0 -57 -38.5 -92.5t-107.5 -35.5q-70 0 -108.5 34t-38.5 94q0 42 23 71t65 40q-69 26 -69 94q0 47 35 77.5t92 30.5zM515 324q0 -38 24.5 -59
t69.5 -21q42 0 67 21t25 59q0 36 -24 57t-69 21q-43 0 -68 -20.5t-25 -57.5zM496 119q0 -47 29.5 -72.5t83.5 -25.5q55 0 83.5 25.5t28.5 72.5q0 45 -29.5 70t-83.5 25t-83 -25t-29 -70zM575 714h40l-465 -738h-40z" />
    <glyph glyph-name="twothirds" unicode="&#x2154;" horiz-adv-x="834" 
d="M201 706q58 0 93 -32.5t35 -89.5q0 -76 -73 -124l-76 -50q-40 -26 -61.5 -49.5t-26.5 -55.5h236v-31h-273q3 57 28 92t79 69l74 48q59 40 59 102q0 42 -26 66.5t-68 24.5q-101 0 -105 -113h-34q0 67 37 105t102 38zM642 432q58 0 91 -30.5t33 -81.5q0 -35 -21 -60
t-56 -34q45 -6 69.5 -35t24.5 -71q0 -59 -40 -94t-106 -35q-67 0 -105 36t-38 100v3h34q0 -52 28 -80.5t80 -28.5t82.5 25t30.5 73q0 38 -26.5 63.5t-86.5 25.5h-28v31h29q42 0 68.5 21t26.5 59q0 40 -23.5 61.5t-67.5 21.5q-99 0 -103 -102h-34q2 63 38.5 97.5t99.5 34.5z
M642 714h40l-465 -738h-40z" />
    <glyph glyph-name="threequarters" unicode="&#xbe;" horiz-adv-x="834" 
d="M222 706q58 0 91 -30.5t33 -81.5q0 -35 -21 -60t-56 -34q45 -6 69.5 -35t24.5 -71q0 -59 -40 -94t-106 -35q-67 0 -105 36t-38 100v3h34q0 -52 28 -80.5t80 -28.5t82.5 25t30.5 73q0 38 -26.5 63.5t-86.5 25.5h-28v31h29q42 0 68.5 21t26.5 59q0 40 -23.5 61.5
t-67.5 21.5q-99 0 -103 -102h-34q2 63 38.5 97.5t99.5 34.5zM674 423h31v-291h68v-31h-68v-101h-34v101h-215v31zM671 372l-181 -240h181v240zM677 714h40l-465 -738h-40z" />
    <glyph glyph-name="threeeighths" unicode="&#x215c;" horiz-adv-x="834" 
d="M207 706q58 0 91 -30.5t33 -81.5q0 -35 -21 -60t-56 -34q45 -6 69.5 -35t24.5 -71q0 -59 -40 -94t-106 -35q-67 0 -105 36t-38 100v3h34q0 -52 28 -80.5t80 -28.5t82.5 25t30.5 73q0 38 -26.5 63.5t-86.5 25.5h-28v31h29q42 0 68.5 21t26.5 59q0 40 -23.5 61.5
t-67.5 21.5q-99 0 -103 -102h-34q2 63 38.5 97.5t99.5 34.5zM618 432q60 0 93.5 -30t33.5 -78q0 -66 -69 -92q89 -24 89 -113q0 -57 -38.5 -92.5t-107.5 -35.5q-70 0 -108.5 34t-38.5 94q0 42 23 71t65 40q-69 26 -69 94q0 47 35 77.5t92 30.5zM525 324q0 -38 24.5 -59
t69.5 -21q42 0 67 21t25 59q0 36 -24 57t-69 21q-43 0 -68 -20.5t-25 -57.5zM506 119q0 -47 29.5 -72.5t83.5 -25.5q55 0 83.5 25.5t28.5 72.5q0 45 -29.5 70t-83.5 25t-83 -25t-29 -70zM629 714h40l-465 -738h-40z" />
    <glyph glyph-name="fiveeighths" unicode="&#x215d;" horiz-adv-x="834" 
d="M328 697v-31h-187l-30 -149q40 40 100 40q63 0 100.5 -37.5t37.5 -105.5t-41 -108.5t-106 -40.5q-64 0 -102.5 33.5t-40.5 96.5h34q2 -49 31.5 -74.5t78.5 -25.5q53 0 82.5 31.5t29.5 85.5q0 52 -27.5 83.5t-81.5 31.5q-64 0 -105 -50h-30l43 220h214zM618 432
q60 0 93.5 -30t33.5 -78q0 -66 -69 -92q89 -24 89 -113q0 -57 -38.5 -92.5t-107.5 -35.5q-70 0 -108.5 34t-38.5 94q0 42 23 71t65 40q-69 26 -69 94q0 47 35 77.5t92 30.5zM525 324q0 -38 24.5 -59t69.5 -21q42 0 67 21t25 59q0 36 -24 57t-69 21q-43 0 -68 -20.5
t-25 -57.5zM506 119q0 -47 29.5 -72.5t83.5 -25.5q55 0 83.5 25.5t28.5 72.5q0 45 -29.5 70t-83.5 25t-83 -25t-29 -70zM629 714h40l-465 -738h-40z" />
    <glyph glyph-name="seveneighths" unicode="&#x215e;" horiz-adv-x="834" 
d="M363 697v-30q-84 -81 -131 -182.5t-52 -210.5h-37q15 220 178 391h-240v32h282zM608 432q60 0 93.5 -30t33.5 -78q0 -66 -69 -92q89 -24 89 -113q0 -57 -38.5 -92.5t-107.5 -35.5q-70 0 -108.5 34t-38.5 94q0 42 23 71t65 40q-69 26 -69 94q0 47 35 77.5t92 30.5z
M515 324q0 -38 24.5 -59t69.5 -21q42 0 67 21t25 59q0 36 -24 57t-69 21q-43 0 -68 -20.5t-25 -57.5zM496 119q0 -47 29.5 -72.5t83.5 -25.5q55 0 83.5 25.5t28.5 72.5q0 45 -29.5 70t-83.5 25t-83 -25t-29 -70zM569 714h40l-465 -738h-40z" />
    <glyph glyph-name="perthousand" unicode="&#x2030;" horiz-adv-x="1074" 
d="M570 714h40l-465 -738h-40zM193 702q68 0 109.5 -46t41.5 -121t-39.5 -123t-111.5 -48t-112.5 44t-40.5 127q0 72 42.5 119.5t110.5 47.5zM78 535q0 -66 29.5 -102t84.5 -36q54 0 84 38t30 100q0 59 -31.5 96.5t-83.5 37.5q-53 0 -83 -36t-30 -98zM527 326
q68 0 109.5 -46.5t41.5 -121.5q0 -76 -39.5 -123t-111.5 -47q-74 0 -113.5 45t-39.5 125q0 72 42.5 120t110.5 48zM882 326q68 0 110 -47t42 -121q0 -76 -40 -123t-112 -47q-75 0 -113.5 45t-38.5 125q0 74 42.5 121t109.5 47zM412 158q0 -67 29 -102t84 -35q54 0 84.5 38.5
t30.5 98.5q0 59 -31.5 97t-84.5 38q-51 0 -81.5 -35t-30.5 -100zM768 158q0 -66 30 -101.5t84 -35.5t84 37.5t30 99.5q0 60 -31 97.5t-84 37.5q-52 0 -82.5 -36t-30.5 -99z" />
    <glyph glyph-name="minus" unicode="&#x2212;" horiz-adv-x="600" 
d="M552 271v-38h-504v38h504z" />
    <glyph glyph-name="plusminus" unicode="&#xb1;" horiz-adv-x="600" 
d="M281 504h38v-189h233v-38h-233v-189h-38v189h-233v38h233v189zM552 38v-38h-504v38h504z" />
    <glyph glyph-name="multiply" unicode="&#xd7;" horiz-adv-x="600" 
d="M300 279l194 195l27 -27l-194 -195l194 -194l-27 -27l-194 195l-195 -195l-26 27l194 194l-194 195l26 27z" />
    <glyph glyph-name="divide" unicode="&#xf7;" horiz-adv-x="600" 
d="M301 504q22 0 37 -16t15 -36t-15.5 -35.5t-36.5 -15.5t-36 15t-15 36q0 20 14 36t37 16zM552 271v-38h-504v38h504zM301 103q21 0 36.5 -15.5t15.5 -36.5t-15.5 -36t-36.5 -15t-36 15t-15 36t15.5 36.5t35.5 15.5z" />
    <glyph glyph-name="notequal" unicode="&#x2260;" horiz-adv-x="600" 
d="M433 506l32 -18l-73 -119h160v-38h-183l-95 -156h278v-38h-301l-84 -137l-32 18l72 119h-159v38h182l96 156h-278v38h301z" />
    <glyph glyph-name="approxequal" unicode="&#x2248;" horiz-adv-x="600" 
d="M557 382q-23 -55 -54.5 -80t-76.5 -25q-33 0 -65 11t-62.5 24.5t-62 25t-62.5 11.5q-63 0 -98 -75l-33 8q41 103 131 103q50 0 128 -36t124 -36q34 0 57 18t41 59zM557 213q-23 -54 -54.5 -78.5t-76.5 -24.5q-33 0 -65 11t-62.5 24.5t-62.5 25t-62 11.5q-65 0 -98 -77
l-33 8q41 105 131 105q50 0 128 -36t124 -36q65 0 98 75z" />
    <glyph glyph-name="lessequal" unicode="&#x2264;" horiz-adv-x="600" 
d="M552 514v-42l-466 -168l466 -170v-42l-504 189v46zM551 38v-38h-503v38h503z" />
    <glyph glyph-name="greaterequal" unicode="&#x2265;" horiz-adv-x="600" 
d="M48 514l504 -187v-46l-504 -189v42l466 170l-466 168v42zM552 38v-38h-504l1 38h503z" />
    <glyph glyph-name="logicalnot" unicode="&#xac;" horiz-adv-x="600" 
d="M552 369v-261h-38v223h-466v38h504z" />
    <glyph glyph-name="Delta" unicode="&#x2206;" horiz-adv-x="593" 
d="M275 714h48l282 -714h-617zM299 671l-249 -633h492l-241 633h-2z" />
    <glyph glyph-name="uni0394" unicode="&#x394;" horiz-adv-x="593" 
d="M275 714h48l282 -714h-617zM299 671l-249 -633h492l-241 633h-2z" />
    <glyph glyph-name="Omega" unicode="&#x2126;" horiz-adv-x="741" 
d="M370 731q91 0 168 -44t121 -124t44 -177q0 -220 -192 -345v-3h192v-38h-253v39q107 65 157.5 148.5t50.5 198.5q0 130 -81.5 218.5t-206.5 88.5t-206 -87.5t-81 -219.5q0 -113 48 -197t157 -150v-39h-249v38h185v3q-186 121 -186 345q0 148 92.5 246.5t239.5 98.5z" />
    <glyph glyph-name="uni03A9" unicode="&#x3a9;" horiz-adv-x="741" 
d="M370 731q91 0 168 -44t121 -124t44 -177q0 -220 -192 -345v-3h192v-38h-253v39q107 65 157.5 148.5t50.5 198.5q0 130 -81.5 218.5t-206.5 88.5t-206 -87.5t-81 -219.5q0 -113 48 -197t157 -150v-39h-249v38h185v3q-186 121 -186 345q0 148 92.5 246.5t239.5 98.5z" />
    <glyph glyph-name="mu" unicode="&#xb5;" horiz-adv-x="528" 
d="M65 514h38v-330q0 -163 146 -163q82 0 133.5 58.5t51.5 152.5v282h38v-514h-38v110h-2q-22 -58 -71.5 -90t-112.5 -32q-102 0 -145 68v-240h-38v698z" />
    <glyph glyph-name="uni03BC" unicode="&#x3bc;" horiz-adv-x="528" 
d="M65 514h38v-330q0 -163 146 -163q82 0 133.5 58.5t51.5 152.5v282h38v-514h-38v110h-2q-22 -58 -71.5 -90t-112.5 -32q-102 0 -145 68v-240h-38v698z" />
    <glyph glyph-name="pi" unicode="&#x3c0;" horiz-adv-x="560" 
d="M540 514v-33h-91v-414q0 -40 38 -40q17 0 39 4v-32q-23 -5 -45 -5q-39 0 -54.5 18t-15.5 52v417h-276v-481h-38v481h-85v33h528z" />
    <glyph glyph-name="degree" unicode="&#xb0;" horiz-adv-x="400" 
d="M200 702q59 0 101 -41.5t42 -101.5q0 -59 -40.5 -101t-102.5 -42q-59 0 -101 40.5t-42 102.5t42 102.5t101 40.5zM95 559q0 -48 30 -79t75 -31q43 0 74 32t31 78t-31 78t-74 32t-74 -32t-31 -78z" />
    <glyph glyph-name="afii61289" unicode="&#x2113;" horiz-adv-x="500" 
d="M282 721q40 0 65 -30.5t25 -87.5q0 -139 -161 -324v-172q0 -42 21 -67t60 -25q51 0 89 40l15 -20q-47 -49 -110 -49q-51 0 -80.5 30.5t-29.5 88.5v148l-61 -69l-16 20l77 83v274q0 72 29.5 116t76.5 44zM211 314q131 158 131 285q0 44 -17 69.5t-43 25.5q-29 0 -50 -32.5
t-21 -108.5v-239z" />
    <glyph glyph-name="estimated" unicode="&#x212e;" horiz-adv-x="760" 
d="M381 706q151 0 243.5 -100.5t94.5 -260.5h-527v-236q77 -77 189 -77q85 0 145 38.5t107 118.5l46 -28q-61 -95 -129.5 -135.5t-168.5 -40.5q-148 0 -242.5 102t-94.5 258q0 160 95 260.5t242 100.5zM192 393h380v189q-81 78 -193 78q-109 0 -187 -78v-189z" />
    <glyph glyph-name="eng" unicode="&#x14b;" 
d="M280 526q89 0 136 -47t47 -153v-366q0 -74 -30 -109t-109 -35q-18 0 -40 1v35q23 -3 38 -3q60 0 81.5 24.5t21.5 81.5v375q0 163 -146 163q-82 0 -133.5 -58.5t-51.5 -155.5v-279h-38v514h38v-110h2q20 57 71 89.5t113 32.5z" />
    <glyph glyph-name="Eng" unicode="&#x14a;" horiz-adv-x="678" 
d="M63 714h55l451 -655h2v655h44v-739q0 -82 -35 -120.5t-124 -38.5q-17 0 -47 2v39q25 -3 40 -3q72 0 97 26.5t25 95.5v13l-462 671h-2v-660h-44v714z" />
    <glyph glyph-name="infinity" unicode="&#x221e;" horiz-adv-x="722" 
d="M170 376q27 0 65 -16.5t126 -94.5l48 42q79 69 140 69q57 0 91.5 -36.5t34.5 -93.5q0 -60 -34.5 -96.5t-91.5 -36.5q-38 0 -77.5 20.5t-110.5 88.5l-52 -46q-71 -62 -136 -62q-56 0 -91 36t-35 94q0 56 35 94t88 38zM80 245q0 -45 25.5 -71.5t67.5 -26.5q37 0 74 21.5
t91 74.5q-58 52 -97 76t-74 24q-39 0 -63 -28.5t-24 -69.5zM549 146q44 0 68.5 26.5t24.5 72.5q0 41 -23.5 69.5t-68.5 28.5q-57 0 -167 -100q69 -61 101 -79t65 -18z" />
    <glyph glyph-name="partialdiff" unicode="&#x2202;" horiz-adv-x="463" 
d="M199 721q110 0 167.5 -99.5t57.5 -252.5q0 -182 -56 -281.5t-158 -99.5q-80 0 -131.5 65.5t-51.5 156.5q0 94 51.5 152.5t133.5 58.5q102 0 176 -97l1 60q0 133 -50 218.5t-139 85.5q-30 0 -55.5 -9.5t-59.5 -35.5l-20 26q64 52 134 52zM63 209q0 -78 42 -134t106 -56
q71 0 116.5 68.5t56.5 196.5q-78 105 -172 105q-65 0 -107 -51t-42 -129z" />
    <glyph glyph-name="integral" unicode="&#x222b;" horiz-adv-x="534" 
d="M325 786q20 0 34.5 -9t14.5 -27q0 -11 -7.5 -18.5t-19.5 -7.5q-16 0 -27 16q-11 15 -16 15q-43 0 -43 -170l2 -583q0 -108 -24.5 -161.5t-77.5 -53.5q-20 0 -31 10t-11 24q0 10 8.5 17.5t17.5 7.5q10 0 22 -13q11 -13 18 -13q19 0 30 45.5t11 130.5l-1 588
q0 107 24.5 154.5t75.5 47.5z" />
    <glyph glyph-name="radical" unicode="&#x221a;" horiz-adv-x="463" 
d="M434 782h33l-215 -999h-32l-178 366l-44 -21l-13 27l73 36l173 -359z" />
    <glyph glyph-name="summation" unicode="&#x2211;" horiz-adv-x="593" 
d="M546 786v-35h-451l322 -462l-338 -468h479v-35h-523v32l338 471l-324 464v33h497z" />
    <glyph glyph-name="product" unicode="&#x220f;" horiz-adv-x="704" 
d="M621 786v-1000h-36v965h-466v-965h-36v1000h538z" />
    <glyph glyph-name="lozenge" unicode="&#x25ca;" horiz-adv-x="593" 
d="M281 747h30l170 -391l-170 -391h-30l-169 390zM148 356l148 -346l148 346l-148 346z" />
    <glyph glyph-name="f_i" unicode="&#xf001;" horiz-adv-x="389" 
d="M205 722q21 0 45 -5v-33q-29 5 -45 5q-75 0 -75 -70v-105h107v-33h-107v-481h-38v481h-92v33h92v107q0 50 31 75.5t82 25.5zM286 714h38v-103h-38v103zM286 514h38v-514h-38v514z" />
    <glyph glyph-name="f_l" unicode="&#xf002;" horiz-adv-x="389" 
d="M205 722q21 0 45 -5v-33q-29 5 -45 5q-75 0 -75 -70v-105h107v-33h-107v-481h-38v481h-92v33h92v107q0 50 31 75.5t82 25.5zM286 714h38v-714h-38v714z" />
    <glyph glyph-name="uniF8FF" unicode="&#xf8ff;" horiz-adv-x="512" 
d="M512 718v-718h-512v718h512zM462 50v617h-412v-617h412zM259 609q54 0 89 -36t35 -95q0 -38 -16 -65t-48 -56q-34 -32 -41 -48.5t-7 -74.5h-46l-2 37q0 32 11 56.5t52 67.5l30.5 33t15.5 46q0 35 -22.5 60t-53.5 25q-70 0 -82 -95l-50 8q14 137 135 137zM222 184h56v-67
h-56v67z" />
    <glyph glyph-name="uni2010" unicode="&#x2010;" horiz-adv-x="352" 
d="M283 291v-38h-214v38h214z" />
    <glyph glyph-name="afii00208" unicode="&#x2015;" horiz-adv-x="1000" 
d="M900 291v-38h-800v38h800z" />
    <glyph glyph-name="interrobang" unicode="&#x203d;" 
d="M230 714h48v-63q89 -4 136 -48.5t47 -113.5q0 -42 -20.5 -74t-57.5 -64q-51 -45 -73.5 -70t-29 -45.5t-6.5 -50.5v-4h-36l-8 292v139q-141 -16 -149 -149h-38q3 85 52.5 131.5t134.5 54.5v65zM269 284q17 29 68 71q44 34 65 65t21 69q0 56 -39.5 88t-105.5 36v-140z
M231 103h51v-103h-51v103z" />
    <glyph glyph-name="zero.superior" unicode="&#x2070;" horiz-adv-x="360" 
d="M180 829q75 0 114 -56.5t39 -163.5q0 -102 -38 -161.5t-115 -59.5q-78 0 -115.5 58.5t-37.5 161.5t38 162t115 59zM61 608q0 -90 31 -140t88 -50q59 0 89 50t30 141q0 88 -30 139t-90 51q-56 0 -87 -48.5t-31 -142.5z" />
    <glyph glyph-name="four.superior" unicode="&#x2074;" horiz-adv-x="360" 
d="M236 820h31v-291h68v-31h-68v-101h-34v101h-215v31zM233 769l-181 -240h181v240z" />
    <glyph glyph-name="five.superior" unicode="&#x2075;" horiz-adv-x="360" 
d="M300 820v-31h-187l-30 -149q40 40 100 40q63 0 100.5 -37.5t37.5 -105.5t-41 -108.5t-106 -40.5q-64 0 -102.5 33.5t-40.5 96.5h34q2 -49 31.5 -74.5t78.5 -25.5q53 0 82.5 31.5t29.5 85.5q0 52 -27.5 83.5t-81.5 31.5q-64 0 -105 -50h-30l43 220h214z" />
    <glyph glyph-name="six.superior" unicode="&#x2076;" horiz-adv-x="360" 
d="M196 829q51 0 83.5 -25.5t41.5 -73.5h-35q-7 32 -30.5 50.5t-60.5 18.5q-123 0 -126 -207q17 38 50.5 58t75.5 20q64 0 100.5 -39t36.5 -100q0 -63 -38 -103t-105 -40q-75 0 -114.5 52t-39.5 154q0 115 42.5 175t118.5 60zM78 533q0 -51 30.5 -83t80.5 -32q51 0 80 30
t29 81t-28.5 81t-80.5 30q-48 0 -79.5 -32t-31.5 -75z" />
    <glyph glyph-name="seven.superior" unicode="&#x2077;" horiz-adv-x="360" 
d="M323 820v-30q-84 -81 -131 -182.5t-52 -210.5h-37q15 220 178 391h-240v32h282z" />
    <glyph glyph-name="eight.superior" unicode="&#x2078;" horiz-adv-x="360" 
d="M179 829q60 0 93.5 -30t33.5 -78q0 -66 -69 -92q89 -24 89 -113q0 -57 -38.5 -92.5t-107.5 -35.5q-70 0 -108.5 34t-38.5 94q0 42 23 71t65 40q-69 26 -69 94q0 47 35 77.5t92 30.5zM86 721q0 -38 24.5 -59t69.5 -21q42 0 67 21t25 59q0 36 -24 57t-69 21
q-43 0 -68 -20.5t-25 -57.5zM67 516q0 -47 29.5 -72.5t83.5 -25.5q55 0 83.5 25.5t28.5 72.5q0 45 -29.5 70t-83.5 25t-83 -25t-29 -70z" />
    <glyph glyph-name="nine.superior" unicode="&#x2079;" horiz-adv-x="360" 
d="M173 829q152 0 152 -205q0 -110 -40 -173t-121 -63q-106 0 -125 99h35q14 -69 91 -69q122 0 126 208q-16 -35 -48.5 -56t-77.5 -21q-63 0 -100 37.5t-37 98.5q0 64 40 104t105 40zM62 687q0 -49 29 -78.5t79 -29.5q49 0 80.5 30.5t31.5 75.5q0 49 -28.5 81.5t-81.5 32.5
q-49 0 -79.5 -30.5t-30.5 -81.5z" />
    <glyph glyph-name="plus.superior" unicode="&#x207a;" horiz-adv-x="390" 
d="M178 702h33v-137h144v-31h-144v-137h-33v137h-144v31h144v137z" />
    <glyph glyph-name="minus.superior" unicode="&#x207b;" horiz-adv-x="240" 
d="M207 579v-30h-175v30h175zM130 820zM135 397z" />
    <glyph glyph-name="equal.superior" unicode="&#x207c;" horiz-adv-x="390" 
d="M355 625v-31h-321v31h321zM355 507v-31h-321v31h321zM131 820zM140 397z" />
    <glyph glyph-name="parenleft.superior" unicode="&#x207d;" horiz-adv-x="180" 
d="M169 876q-45 -74 -65 -138t-20 -141q0 -75 20 -139.5t65 -139.5h-29q-92 132 -92 279q0 141 92 279h29z" />
    <glyph glyph-name="parenright.superior" unicode="&#x207e;" horiz-adv-x="180" 
d="M40 876q92 -131 92 -279q0 -143 -92 -279h-29q48 79 66.5 144.5t18.5 134.5q0 76 -21 141.5t-64 137.5h29z" />
    <glyph glyph-name="n.superior" unicode="&#x207f;" horiz-adv-x="360" 
d="M195 719q57 0 85 -32t28 -80v-210h-35v202q0 91 -84 91q-47 0 -74.5 -30t-27.5 -74v-189h-35v313h35v-55q33 64 108 64z" />
    <glyph glyph-name="zero.inferior" unicode="&#x2080;" horiz-adv-x="360" 
d="M180 263q75 0 114 -56.5t39 -163.5q0 -102 -38 -161.5t-115 -59.5q-78 0 -115.5 58.5t-37.5 161.5t38 162t115 59zM61 42q0 -90 31 -140t88 -50q59 0 89 50t30 141q0 88 -30 139t-90 51q-56 0 -87 -48.5t-31 -142.5z" />
    <glyph glyph-name="one.inferior" unicode="&#x2081;" horiz-adv-x="360" 
d="M219 254v-423h-34v362q-49 -47 -119 -53v30q93 13 126 84h27z" />
    <glyph glyph-name="two.inferior" unicode="&#x2082;" horiz-adv-x="360" 
d="M186 263q58 0 93 -32.5t35 -89.5q0 -76 -73 -124l-76 -50q-40 -26 -61.5 -49.5t-26.5 -55.5h236v-31h-273q3 57 28 92t79 69l74 48q59 40 59 102q0 42 -26 66.5t-68 24.5q-101 0 -105 -113h-34q0 67 37 105t102 38z" />
    <glyph glyph-name="three.inferior" unicode="&#x2083;" horiz-adv-x="360" 
d="M184 263q58 0 91 -30.5t33 -81.5q0 -35 -21 -60t-56 -34q45 -6 69.5 -35t24.5 -71q0 -59 -40 -94t-106 -35q-67 0 -105 36t-38 100v3h34q0 -52 28 -80.5t80 -28.5t82.5 25t30.5 73q0 38 -26.5 63.5t-86.5 25.5h-28v31h29q42 0 68.5 21t26.5 59q0 40 -23.5 61.5
t-67.5 21.5q-99 0 -103 -102h-34q2 63 38.5 97.5t99.5 34.5z" />
    <glyph glyph-name="four.inferior" unicode="&#x2084;" horiz-adv-x="360" 
d="M236 254h31v-291h68v-31h-68v-101h-34v101h-215v31zM233 203l-181 -240h181v240z" />
    <glyph glyph-name="five.inferior" unicode="&#x2085;" horiz-adv-x="360" 
d="M300 254v-31h-187l-30 -149q40 40 100 40q63 0 100.5 -37.5t37.5 -105.5t-41 -108.5t-106 -40.5q-64 0 -102.5 33.5t-40.5 96.5h34q2 -49 31.5 -74.5t78.5 -25.5q53 0 82.5 31.5t29.5 85.5q0 52 -27.5 83.5t-81.5 31.5q-64 0 -105 -50h-30l43 220h214z" />
    <glyph glyph-name="six.inferior" unicode="&#x2086;" horiz-adv-x="360" 
d="M196 263q51 0 83.5 -25.5t41.5 -73.5h-35q-7 32 -30.5 50.5t-60.5 18.5q-123 0 -126 -207q17 38 50.5 58t75.5 20q64 0 100.5 -39t36.5 -100q0 -63 -38 -103t-105 -40q-75 0 -114.5 52t-39.5 154q0 115 42.5 175t118.5 60zM78 -33q0 -51 30.5 -83t80.5 -32q51 0 80 30
t29 81t-28.5 81t-80.5 30q-48 0 -79.5 -32t-31.5 -75z" />
    <glyph glyph-name="seven.inferior" unicode="&#x2087;" horiz-adv-x="360" 
d="M323 254v-30q-84 -81 -131 -182.5t-52 -210.5h-37q15 220 178 391h-240v32h282z" />
    <glyph glyph-name="eight.inferior" unicode="&#x2088;" horiz-adv-x="360" 
d="M179 263q60 0 93.5 -30t33.5 -78q0 -66 -69 -92q89 -24 89 -113q0 -57 -38.5 -92.5t-107.5 -35.5q-70 0 -108.5 34t-38.5 94q0 42 23 71t65 40q-69 26 -69 94q0 47 35 77.5t92 30.5zM86 155q0 -38 24.5 -59t69.5 -21q42 0 67 21t25 59q0 36 -24 57t-69 21
q-43 0 -68 -20.5t-25 -57.5zM67 -50q0 -47 29.5 -72.5t83.5 -25.5q55 0 83.5 25.5t28.5 72.5q0 45 -29.5 70t-83.5 25t-83 -25t-29 -70z" />
    <glyph glyph-name="nine.inferior" unicode="&#x2089;" horiz-adv-x="360" 
d="M173 263q152 0 152 -205q0 -110 -40 -173t-121 -63q-106 0 -125 99h35q14 -69 91 -69q122 0 126 208q-16 -35 -48.5 -56t-77.5 -21q-63 0 -100 37.5t-37 98.5q0 64 40 104t105 40zM62 121q0 -49 29 -78.5t79 -29.5q49 0 80.5 30.5t31.5 75.5q0 49 -28.5 81.5t-81.5 32.5
q-49 0 -79.5 -30.5t-30.5 -81.5z" />
    <glyph glyph-name="plus.inferior" unicode="&#x208a;" horiz-adv-x="390" 
d="M178 136h33v-137h144v-31h-144v-137h-33v137h-144v31h144v137z" />
    <glyph glyph-name="minus.inferior" unicode="&#x208b;" horiz-adv-x="240" 
d="M207 13v-30h-175v30h175zM130 254zM135 -169z" />
    <glyph glyph-name="equal.inferior" unicode="&#x208c;" horiz-adv-x="390" 
d="M355 59v-31h-321v31h321zM355 -59v-31h-321v31h321zM131 254zM140 -169z" />
    <glyph glyph-name="parenleft.inferior" unicode="&#x208d;" horiz-adv-x="180" 
d="M169 310q-45 -74 -65 -138t-20 -141q0 -75 20 -139.5t65 -139.5h-29q-92 132 -92 279q0 141 92 279h29z" />
    <glyph glyph-name="parenright.inferior" unicode="&#x208e;" horiz-adv-x="180" 
d="M40 310q92 -131 92 -279q0 -143 -92 -279h-29q48 79 66.5 144.5t18.5 134.5q0 76 -21 141.5t-64 137.5h29z" />
    <glyph glyph-name="afii61248" unicode="&#x2105;" horiz-adv-x="824" 
d="M622 714h40l-465 -738h-40zM196 706q60 0 92 -31t40 -96h-34q-12 97 -98 97q-58 0 -89 -48.5t-31 -141.5q0 -94 31 -142.5t88 -48.5q84 0 99 88h34q-10 -57 -44.5 -87.5t-88.5 -30.5q-75 0 -114 56t-39 165q0 107 40 163.5t114 56.5zM629 432q75 0 114 -56.5t39 -163.5
q0 -101 -37.5 -161t-115.5 -60q-76 0 -114.5 57t-38.5 163q0 103 38 162t115 59zM510 211q0 -88 29.5 -139t89.5 -51t89.5 50.5t29.5 140.5q0 87 -29.5 138.5t-90.5 51.5q-57 0 -87.5 -49.5t-30.5 -141.5z" />
    <glyph glyph-name="afii61352" unicode="&#x2116;" horiz-adv-x="950" 
d="M63 690h55l411 -631h2v631h44v-690h-52l-414 636h-2v-636h-44v690zM768 416q62 0 98 -39.5t36 -105.5q0 -64 -35.5 -104.5t-98.5 -40.5t-98.5 40.5t-35.5 104.5q0 65 36.5 105t97.5 40zM671 271q0 -51 26 -81t71 -30q48 0 72.5 30.5t24.5 80.5q0 48 -24.5 79.5
t-72.5 31.5q-45 0 -71 -29.5t-26 -81.5zM910 40v-40h-274v40h274z" />
    <glyph glyph-name="published" unicode="&#x2117;" horiz-adv-x="800" 
d="M400 731q100 0 187 -50t137 -136t50 -188q0 -100 -50 -187.5t-137 -137t-187 -49.5q-99 0 -187 50.5t-137.5 136t-49.5 187.5q0 154 109 264t265 110zM64 358q0 -144 97 -243t240 -99q89 0 167 45t123 123.5t45 173.5q0 143 -95.5 241.5t-241.5 98.5q-140 0 -237.5 -96.5
t-97.5 -243.5zM445 578q60 0 98 -32t38 -92q0 -59 -37 -91.5t-103 -32.5h-132v-194h-38v442h174zM438 363q50 0 77.5 23.5t27.5 67.5q0 45 -29.5 68t-71.5 23h-133v-182h129z" />
    <glyph glyph-name="uni0374" unicode="&#x374;" horiz-adv-x="220" 
d="M130 730h48l-87 -163h-33z" />
    <glyph glyph-name="uni0375" unicode="&#x375;" horiz-adv-x="220" 
d="M117 -33h33l-72 -163h-48z" />
    <glyph glyph-name="uni037E" unicode="&#x37e;" horiz-adv-x="278" 
d="M113 514h51v-103h-51v103zM113 103h51v-101q0 -104 -64 -128v33q34 16 34 93h-21v103z" />
    <glyph glyph-name="tonos" unicode="&#x384;" horiz-adv-x="230" 
d="M146 730h50l-91 -140h-38z" />
    <glyph glyph-name="tonos.cap" horiz-adv-x="230" 
d="M146 714h50l-91 -140h-38z" />
    <glyph glyph-name="dieresistonos" unicode="&#x385;" horiz-adv-x="167" 
d="M122 730h50l-93 -143h-38zM-18 706h44v-103h-44v103zM181 706h44v-103h-44v103z" />
    <glyph glyph-name="Alphatonos" unicode="&#x386;" horiz-adv-x="603" 
d="M285 714h48l282 -714h-47l-90 229h-342l-91 -229h-47zM309 671l-159 -404h314l-153 404h-2zM97 714h50l-91 -140h-38z" />
    <glyph glyph-name="anoteleia" unicode="&#x387;" horiz-adv-x="278" 
d="M113 514h51v-103h-51v103z" />
    <glyph glyph-name="Epsilontonos" unicode="&#x388;" horiz-adv-x="697" 
d="M680 714v-38h-436v-286h410v-38h-410v-314h441v-38h-485v714h480zM87 714h50l-91 -140h-38z" />
    <glyph glyph-name="Etatonos" unicode="&#x389;" horiz-adv-x="807" 
d="M200 714h44v-324h456v324h44v-714h-44v352h-456v-352h-44v714zM87 714h50l-91 -140h-38z" />
    <glyph glyph-name="Iotatonos" unicode="&#x38a;" horiz-adv-x="307" 
d="M200 714h44v-714h-44v714zM87 714h50l-91 -140h-38z" />
    <glyph glyph-name="Omicrontonos" unicode="&#x38c;" horiz-adv-x="830" 
d="M460 731q150 0 244.5 -103t94.5 -271q0 -167 -93 -270.5t-246 -103.5q-152 0 -246 103.5t-94 270.5q0 164 92.5 269t247.5 105zM164 357q0 -148 81.5 -242t214.5 -94q131 0 213 94.5t82 241.5q0 144 -81 240t-215 96q-130 0 -212.5 -93t-82.5 -243zM87 714h50l-91 -140
h-38z" />
    <glyph glyph-name="Upsilontonos" unicode="&#x38e;" horiz-adv-x="769" 
d="M174 714h50l258 -378l259 378h49l-287 -415v-299h-44v299zM87 714h50l-91 -140h-38z" />
    <glyph glyph-name="Omegatonos" unicode="&#x38f;" horiz-adv-x="830" 
d="M459 731q91 0 168 -44t121 -124t44 -177q0 -220 -192 -345v-3h192v-38h-253v39q107 65 157.5 148.5t50.5 198.5q0 130 -81.5 218.5t-206.5 88.5t-206 -87.5t-81 -219.5q0 -113 48 -197t157 -150v-39h-249v38h185v3q-186 121 -186 345q0 148 92.5 246.5t239.5 98.5z
M87 714h50l-91 -140h-38z" />
    <glyph glyph-name="iotadieresistonos" unicode="&#x390;" horiz-adv-x="159" 
d="M56 514h37v-431q0 -33 9 -44.5t26 -11.5q13 0 28 3v-32q-13 -4 -31 -4q-37 0 -53 16.5t-16 54.5v449zM124 730h50l-93 -143h-38zM-16 706h44v-103h-44v103zM183 706h44v-103h-44v103z" />
    <glyph glyph-name="Alpha" unicode="&#x391;" horiz-adv-x="593" 
d="M275 714h48l282 -714h-47l-90 229h-342l-91 -229h-47zM299 671l-159 -404h314l-153 404h-2z" />
    <glyph glyph-name="Beta" unicode="&#x392;" horiz-adv-x="633" 
d="M354 714q104 0 162 -49t58 -136q0 -55 -36.5 -98.5t-102.5 -53.5l2 -2q77 -10 119 -59t42 -116q0 -92 -65.5 -146t-178.5 -54h-291v714h291zM354 390q81 0 128.5 38.5t47.5 108.5t-48.5 104.5t-133.5 34.5h-241v-286h247zM354 38q95 0 147.5 42.5t52.5 119.5
q0 76 -55 114t-145 38h-247v-314h247z" />
    <glyph glyph-name="Gamma" unicode="&#x393;" horiz-adv-x="485" 
d="M499 714v-38h-392v-676h-44v714h436z" />
    <glyph glyph-name="Epsilon" unicode="&#x395;" horiz-adv-x="560" 
d="M543 714v-38h-436v-286h410v-38h-410v-314h441v-38h-485v714h480z" />
    <glyph glyph-name="Zeta" unicode="&#x396;" horiz-adv-x="530" 
d="M529 714v-38l-484 -638h493v-38h-539v38l482 638h-453v38h501z" />
    <glyph glyph-name="Eta" unicode="&#x397;" horiz-adv-x="670" 
d="M63 714h44v-324h456v324h44v-714h-44v352h-456v-352h-44v714z" />
    <glyph glyph-name="Theta" unicode="&#x398;" horiz-adv-x="729" 
d="M371 731q153 0 246 -104.5t93 -269.5q0 -167 -93 -270.5t-246 -103.5q-152 0 -246 103.5t-94 270.5q0 166 94 270t246 104zM75 357q0 -94 36.5 -171t103 -121t156.5 -44q133 0 214 94t81 242q0 146 -81.5 241t-214.5 95q-130 0 -212.5 -94t-82.5 -242zM538 380v-38h-344
v38h344z" />
    <glyph glyph-name="Iota" unicode="&#x399;" horiz-adv-x="170" 
d="M63 714h44v-714h-44v714z" />
    <glyph glyph-name="Kappa" unicode="&#x39a;" horiz-adv-x="613" 
d="M63 714h44v-411l449 411h57l-326 -297l346 -417h-55l-323 387l-148 -135v-252h-44v714z" />
    <glyph glyph-name="Lambda" unicode="&#x39b;" horiz-adv-x="591" 
d="M275 714h48l276 -714h-47l-251 671h-2l-258 -671h-47z" />
    <glyph glyph-name="Mu" unicode="&#x39c;" horiz-adv-x="801" 
d="M126 714l279 -665h2l276 665h63v-714h-44v660h-2l-272 -660h-44l-275 660h-2v-660h-44v714h63z" />
    <glyph glyph-name="Nu" unicode="&#x39d;" horiz-adv-x="670" 
d="M63 714h55l451 -655h2v655h44v-714h-52l-454 660h-2v-660h-44v714z" />
    <glyph glyph-name="Xi" unicode="&#x39e;" horiz-adv-x="552" 
d="M499 714v-38h-441v38h441zM465 389v-38h-373v38h373zM509 38v-38h-461v38h461z" />
    <glyph glyph-name="Omicron" unicode="&#x39f;" horiz-adv-x="741" 
d="M371 731q150 0 244.5 -103t94.5 -271q0 -167 -93 -270.5t-246 -103.5q-152 0 -246 103.5t-94 270.5q0 164 92.5 269t247.5 105zM75 357q0 -148 81.5 -242t214.5 -94q131 0 213 94.5t82 241.5q0 144 -81 240t-215 96q-130 0 -212.5 -93t-82.5 -243z" />
    <glyph glyph-name="Pi" unicode="&#x3a0;" horiz-adv-x="654" 
d="M596 714v-714h-45v676h-443v-676h-44v714h532z" />
    <glyph glyph-name="Rho" unicode="&#x3a1;" horiz-adv-x="596" 
d="M370 714q93 0 149 -49.5t56 -149.5q0 -98 -59.5 -147.5t-164.5 -49.5h-244v-318h-44v714h307zM362 356q78 0 123.5 44t45.5 115q0 75 -44.5 118t-124.5 43h-255v-320h255z" />
    <glyph glyph-name="Sigma" unicode="&#x3a3;" horiz-adv-x="570" 
d="M531 714v-38h-422l271 -303l-284 -335h452v-38h-500v38l281 334l-270 304v38h472z" />
    <glyph glyph-name="Tau" unicode="&#x3a4;" horiz-adv-x="522" 
d="M533 714v-38h-252v-676h-44v676h-251v38h547z" />
    <glyph glyph-name="Upsilon" unicode="&#x3a5;" horiz-adv-x="574" 
d="M-21 714h50l258 -378l259 378h49l-287 -415v-299h-44v299z" />
    <glyph glyph-name="Phi" unicode="&#x3a6;" horiz-adv-x="732" 
d="M343 744h45v-72q140 -4 226 -85t86 -215q0 -130 -85.5 -209t-226.5 -85v-78h-45v78q-148 7 -229 83.5t-81 206.5q0 131 86.5 216t223.5 88v72zM77 368q0 -114 69 -180t197 -71v516q-121 -4 -193.5 -77t-72.5 -188zM388 117q126 6 197 74t71 181q0 115 -72 186t-196 75
v-516zM280 714z" />
    <glyph glyph-name="Chi" unicode="&#x3a7;" horiz-adv-x="542" 
d="M1 714h51l226 -314l231 314h50l-252 -347l266 -367h-53l-242 334l-243 -334h-52l268 367z" />
    <glyph glyph-name="Psi" unicode="&#x3a8;" horiz-adv-x="765" 
d="M52 714h44v-277q0 -119 61.5 -178t196.5 -59h5v514h44v-514h6q259 0 259 237v277h44v-276q0 -134 -74.5 -204t-234.5 -73v-161h-44v161q-159 1 -233 70t-74 206v277z" />
    <glyph glyph-name="Iotadieresis" unicode="&#x3aa;" horiz-adv-x="170" 
d="M63 714h44v-714h-44v714zM-16 896h44v-103h-44v103zM142 896h44v-103h-44v103z" />
    <glyph glyph-name="Upsilondieresis" unicode="&#x3ab;" horiz-adv-x="574" 
d="M-21 714h50l258 -378l259 378h49l-287 -415v-299h-44v299zM187 896h44v-103h-44v103zM345 896h44v-103h-44v103z" />
    <glyph glyph-name="alphatonos" unicode="&#x3ac;" horiz-adv-x="542" 
d="M251 526q63 0 114.5 -34.5t71.5 -92.5h2v115h38v-442q0 -45 34 -45q10 0 28 3v-32q-12 -4 -31 -4q-69 0 -69 69v47h-2q-30 -62 -81 -92t-103 -30q-105 0 -165 73t-60 196q0 122 61 195.5t162 73.5zM66 257q0 -102 50.5 -169t137.5 -67q82 0 133 67t51 168
q0 108 -52.5 172.5t-134.5 64.5q-85 0 -135 -65.5t-50 -170.5zM310 730h50l-91 -140h-38z" />
    <glyph glyph-name="epsilontonos" unicode="&#x3ad;" horiz-adv-x="463" 
d="M234 526q153 0 179 -122h-37q-13 47 -47.5 68t-94.5 21q-150 0 -150 -106q0 -47 32.5 -77t84.5 -30h72v-33h-70q-60 0 -98 -28.5t-38 -80.5q0 -57 41.5 -87t118.5 -30q78 0 118 28.5t56 88.5h37q-33 -150 -211 -150q-95 0 -146.5 38.5t-51.5 111.5q0 48 31 82t92 43v2
q-51 8 -78.5 42.5t-27.5 79.5q0 66 50.5 102.5t137.5 36.5zM289 730h50l-91 -140h-38z" />
    <glyph glyph-name="etatonos" unicode="&#x3ae;" 
d="M280 526q183 0 183 -200v-510h-38v514q0 163 -146 163q-85 0 -135 -59t-50 -156v-278h-38v514h38v-110h2q20 57 70.5 89.5t113.5 32.5zM318 730h50l-91 -140h-38z" />
    <glyph glyph-name="iotatonos" unicode="&#x3af;" horiz-adv-x="159" 
d="M56 514h37v-431q0 -33 9 -44.5t26 -11.5q13 0 28 3v-32q-13 -4 -31 -4q-37 0 -53 16.5t-16 54.5v449zM134 730h50l-91 -140h-38z" />
    <glyph glyph-name="upsilondieresistonos" unicode="&#x3b0;" horiz-adv-x="504" 
d="M65 514h38v-335q0 -84 34 -121t116 -37q88 0 134.5 65t46.5 189q0 127 -51 239h38q51 -106 51 -238q0 -140 -55.5 -214t-163.5 -74q-101 0 -144.5 46t-43.5 134v346zM264 730h50l-93 -143h-38zM124 706h44v-103h-44v103zM323 706h44v-103h-44v103z" />
    <glyph glyph-name="alpha" unicode="&#x3b1;" horiz-adv-x="542" 
d="M251 526q63 0 114.5 -34.5t71.5 -92.5h2v115h38v-442q0 -45 34 -45q10 0 28 3v-32q-12 -4 -31 -4q-69 0 -69 69v47h-2q-30 -62 -81 -92t-103 -30q-105 0 -165 73t-60 196q0 122 61 195.5t162 73.5zM66 257q0 -102 50.5 -169t137.5 -67q82 0 133 67t51 168
q0 108 -52.5 172.5t-134.5 64.5q-85 0 -135 -65.5t-50 -170.5z" />
    <glyph glyph-name="beta" unicode="&#x3b2;" horiz-adv-x="535" 
d="M260 722q90 0 140.5 -46t50.5 -121q0 -60 -26 -101t-64 -54v-3q69 -9 105 -59t36 -131q0 -103 -54.5 -161t-148.5 -58q-149 0 -194 119h-2v-291h-38v694q0 100 49 156t146 56zM103 253q0 -232 197 -232q164 0 164 186q0 87 -41.5 126.5t-135.5 39.5h-40v33h26
q73 0 106.5 42t33.5 107q0 62 -41 98t-113 36q-156 0 -156 -187v-249z" />
    <glyph glyph-name="gamma" unicode="&#x3b3;" horiz-adv-x="387" 
d="M42 514q42 -81 89.5 -229.5t59.5 -243.5h3q107 205 153 473h42q-45 -283 -189 -541v-157h-38v114q0 106 -50 280.5t-114 303.5h44z" />
    <glyph glyph-name="delta" unicode="&#x3b4;" horiz-adv-x="515" 
d="M276 722q82 0 139 -25v-33q-65 25 -139 25q-55 0 -89.5 -19.5t-34.5 -54.5q0 -26 27.5 -49t107.5 -61q198 -96 198 -259q0 -120 -59.5 -189t-162.5 -69q-107 0 -170 70t-63 190q0 91 53 154.5t161 90.5q-65 29 -97.5 58t-32.5 64q0 48 45.5 77.5t116.5 29.5zM68 248
q0 -104 53 -166t142 -62q83 0 133.5 61t50.5 165q0 146 -174 231q-205 -44 -205 -229z" />
    <glyph glyph-name="epsilon" unicode="&#x3b5;" horiz-adv-x="463" 
d="M234 526q153 0 179 -122h-37q-13 47 -47.5 68t-94.5 21q-150 0 -150 -106q0 -47 32.5 -77t84.5 -30h72v-33h-70q-60 0 -98 -28.5t-38 -80.5q0 -57 41.5 -87t118.5 -30q78 0 118 28.5t56 88.5h37q-33 -150 -211 -150q-95 0 -146.5 38.5t-51.5 111.5q0 48 31 82t92 43v2
q-51 8 -78.5 42.5t-27.5 79.5q0 66 50.5 102.5t137.5 36.5z" />
    <glyph glyph-name="zeta" unicode="&#x3b6;" horiz-adv-x="409" 
d="M399 714v-34q-160 -70 -245 -180t-85 -236q0 -96 44 -163.5t147 -67.5h24q49 0 78 -23t29 -85q0 -39 -7 -60h-35q6 31 6 55q0 44 -17 62t-62 18h-27q-103 0 -160 70t-57 192q0 131 85.5 244.5t220.5 174.5h-259v33h320z" />
    <glyph glyph-name="eta" unicode="&#x3b7;" 
d="M280 526q183 0 183 -200v-510h-38v514q0 163 -146 163q-85 0 -135 -59t-50 -156v-278h-38v514h38v-110h2q20 57 70.5 89.5t113.5 32.5z" />
    <glyph glyph-name="theta" unicode="&#x3b8;" horiz-adv-x="482" 
d="M241 722q113 0 162 -88t49 -280q0 -194 -51 -280t-160 -86q-110 0 -160.5 86t-50.5 280t51.5 281t159.5 87zM414 379v7q0 152 -40 227.5t-134 75.5q-91 0 -131 -78.5t-40 -231.5h345zM241 21q94 0 133.5 77.5t39.5 239.5v8h-346q0 -165 40 -245t133 -80z" />
    <glyph glyph-name="iota" unicode="&#x3b9;" horiz-adv-x="159" 
d="M56 514h37v-431q0 -33 9 -44.5t26 -11.5q13 0 28 3v-32q-13 -4 -31 -4q-37 0 -53 16.5t-16 54.5v449z" />
    <glyph glyph-name="kappa" unicode="&#x3ba;" horiz-adv-x="466" 
d="M58 514h38v-281l317 281h55l-225 -200l241 -314h-52l-219 285l-117 -99v-186h-38v514z" />
    <glyph glyph-name="lambda" unicode="&#x3bb;" horiz-adv-x="480" 
d="M115 722q52 0 80.5 -35.5t51.5 -104.5l167 -518q11 -38 45 -38q5 0 20 2v-31q-17 -3 -23 -3q-37 0 -54 17.5t-27 53.5l-125 397l-189 -462h-41l214 503l-25 76q-20 59 -40 84t-54 25q-31 0 -48 -7v33q26 8 48 8z" />
    <glyph glyph-name="nu" unicode="&#x3bd;" horiz-adv-x="432" 
d="M42 514l182 -470h2q121 231 165 470h43q-45 -238 -191 -514h-41l-204 514h44z" />
    <glyph glyph-name="xi" unicode="&#x3be;" horiz-adv-x="403" 
d="M263 722q64 0 130 -23v-34q-65 24 -130 24q-78 0 -124 -42t-46 -117q0 -143 186 -143h79v-33h-83q-103 0 -154.5 -38t-51.5 -122q0 -80 52 -120.5t149 -40.5h14q58 0 82.5 -27.5t24.5 -80.5q0 -39 -7 -60h-35q6 31 6 55q0 44 -17 62t-62 18h-23q-106 0 -163.5 53.5
t-57.5 141.5q0 144 139 171v3q-56 16 -85.5 59.5t-29.5 101.5q0 90 56 141t151 51z" />
    <glyph glyph-name="omicron" unicode="&#x3bf;" horiz-adv-x="537" 
d="M268 526q106 0 171 -75.5t65 -193.5q0 -119 -64 -194t-172 -75q-106 0 -171 74t-65 195q0 119 65 194t171 75zM70 257q0 -101 54.5 -168.5t143.5 -67.5q87 0 142.5 65.5t55.5 170.5q0 103 -55 169.5t-144 66.5q-87 0 -142 -67t-55 -169z" />
    <glyph glyph-name="rho" unicode="&#x3c1;" horiz-adv-x="541" 
d="M276 526q104 0 167 -74.5t63 -194.5q0 -127 -61 -198t-162 -71q-140 0 -187 119h-2v-291h-38v445q0 118 59 191.5t161 73.5zM95 257q0 -116 48.5 -176t139.5 -60q82 0 133.5 64.5t51.5 171.5q0 106 -51.5 171t-141.5 65q-84 0 -132 -64.5t-48 -171.5z" />
    <glyph glyph-name="sigma1" unicode="&#x3c2;" horiz-adv-x="453" 
d="M263 526q147 0 187 -123h-37q-40 90 -150 90q-93 0 -143.5 -61t-50.5 -170q0 -105 50 -167t148 -62h29q61 0 85.5 -27t24.5 -80q0 -35 -7 -61h-35q6 30 6 55q0 47 -19 63.5t-61 16.5h-32q-111 4 -168.5 74t-57.5 188q0 122 61.5 193t169.5 71z" />
    <glyph glyph-name="sigma" unicode="&#x3c3;" horiz-adv-x="543" 
d="M535 514v-34h-144q53 -43 78.5 -102.5t25.5 -119.5q0 -118 -64 -194t-166 -76q-106 0 -169.5 73.5t-63.5 196.5q0 116 69.5 186t187.5 70h246zM70 258q0 -108 54.5 -172.5t140.5 -64.5q88 0 140.5 68.5t52.5 168.5q0 131 -105 223h-62q-101 0 -161 -59.5t-60 -163.5z" />
    <glyph glyph-name="tau" unicode="&#x3c4;" horiz-adv-x="419" 
d="M411 514v-33h-186v-418q0 -36 38 -36q15 0 40 4v-33q-15 -4 -46 -4q-70 0 -70 69v418h-179v33h403z" />
    <glyph glyph-name="upsilon" unicode="&#x3c5;" horiz-adv-x="504" 
d="M65 514h38v-335q0 -84 34 -121t116 -37q88 0 134.5 65t46.5 189q0 127 -51 239h38q51 -106 51 -238q0 -140 -55.5 -214t-163.5 -74q-101 0 -144.5 46t-43.5 134v346z" />
    <glyph glyph-name="phi" unicode="&#x3c6;" horiz-adv-x="696" 
d="M327 645h38v-119q136 -2 217.5 -72.5t81.5 -190.5q0 -124 -78 -197.5t-219 -77.5v-172h-40v172q-140 2 -217.5 73.5t-77.5 199.5q0 121 80 192t215 73v119zM70 261q0 -112 68 -176t189 -64v472q-118 0 -187.5 -63t-69.5 -169zM365 22q124 2 192.5 66.5t68.5 174.5
q0 103 -69 165.5t-192 64.5v-471z" />
    <glyph glyph-name="chi" unicode="&#x3c7;" horiz-adv-x="430" 
d="M5 514h48l159 -288l165 288h48l-189 -323l206 -375h-48l-182 336l-177 -336h-47l202 373z" />
    <glyph glyph-name="psi" unicode="&#x3c8;" horiz-adv-x="635" 
d="M304 644h38v-622q106 3 164.5 70t58.5 183q0 124 -51 239h37q26 -50 39 -114.5t13 -122.5q0 -132 -69 -208.5t-192 -80.5v-172h-38v172q-239 16 -239 253v273h37v-273q0 -204 202 -219v622z" />
    <glyph glyph-name="omega" unicode="&#x3c9;" horiz-adv-x="686" 
d="M148 514q-79 -127 -79 -275q0 -100 35 -159t98 -59q57 0 89.5 42t32.5 105v220h37v-220q0 -65 35 -106t88 -41q62 0 97.5 59t35.5 159q0 150 -79 275h38q41 -65 59.5 -129.5t18.5 -145.5q0 -116 -45 -183.5t-125 -67.5q-52 0 -89 30t-51 87h-3q-14 -57 -50.5 -87
t-88.5 -30q-80 0 -125 68t-45 183q0 81 18.5 145.5t59.5 129.5h38z" />
    <glyph glyph-name="iotadieresis" unicode="&#x3ca;" horiz-adv-x="159" 
d="M56 514h37v-431q0 -33 9 -44.5t26 -11.5q13 0 28 3v-32q-13 -4 -31 -4q-37 0 -53 16.5t-16 54.5v449zM-24 706h44v-103h-44v103zM134 706h44v-103h-44v103z" />
    <glyph glyph-name="upsilondieresis" unicode="&#x3cb;" horiz-adv-x="504" 
d="M65 514h38v-335q0 -84 34 -121t116 -37q88 0 134.5 65t46.5 189q0 127 -51 239h38q51 -106 51 -238q0 -140 -55.5 -214t-163.5 -74q-101 0 -144.5 46t-43.5 134v346zM146 706h44v-103h-44v103zM304 706h44v-103h-44v103z" />
    <glyph glyph-name="omicrontonos" unicode="&#x3cc;" horiz-adv-x="537" 
d="M268 526q106 0 171 -75.5t65 -193.5q0 -119 -64 -194t-172 -75q-106 0 -171 74t-65 195q0 119 65 194t171 75zM70 257q0 -101 54.5 -168.5t143.5 -67.5q87 0 142.5 65.5t55.5 170.5q0 103 -55 169.5t-144 66.5q-87 0 -142 -67t-55 -169zM322 730h50l-91 -140h-38z" />
    <glyph glyph-name="upsilontonos" unicode="&#x3cd;" horiz-adv-x="504" 
d="M65 514h38v-335q0 -84 34 -121t116 -37q88 0 134.5 65t46.5 189q0 127 -51 239h38q51 -106 51 -238q0 -140 -55.5 -214t-163.5 -74q-101 0 -144.5 46t-43.5 134v346zM297 730h50l-91 -140h-38z" />
    <glyph glyph-name="omegatonos" unicode="&#x3ce;" horiz-adv-x="686" 
d="M148 514q-79 -127 -79 -275q0 -100 35 -159t98 -59q57 0 89.5 42t32.5 105v220h37v-220q0 -65 35 -106t88 -41q62 0 97.5 59t35.5 159q0 150 -79 275h38q41 -65 59.5 -129.5t18.5 -145.5q0 -116 -45 -183.5t-125 -67.5q-52 0 -89 30t-51 87h-3q-14 -57 -50.5 -87
t-88.5 -30q-80 0 -125 68t-45 183q0 81 18.5 145.5t59.5 129.5h38zM397 730h50l-91 -140h-38z" />
    <glyph glyph-name="uni0400" unicode="&#x400;" horiz-adv-x="560" 
d="M543 714v-38h-436v-286h410v-38h-410v-314h441v-38h-485v714h480zM164 920h51l120 -140h-37z" />
    <glyph glyph-name="afii10023" unicode="&#x401;" horiz-adv-x="560" 
d="M543 714v-38h-436v-286h410v-38h-410v-314h441v-38h-485v714h480zM197 896h44v-103h-44v103zM355 896h44v-103h-44v103z" />
    <glyph glyph-name="afii10051" unicode="&#x402;" horiz-adv-x="714" 
d="M533 714v-38h-269v-372h2q25 62 75.5 95t118.5 33q100 0 162 -72t62 -194q0 -127 -65.5 -203t-176.5 -80v37q97 5 148 71t51 175q0 102 -51 165t-133 63q-89 0 -141 -63.5t-52 -168.5v-162h-44v676h-234v38h547z" />
    <glyph glyph-name="afii10052" unicode="&#x403;" horiz-adv-x="485" 
d="M499 714v-38h-392v-676h-44v714h436zM328 920h51l-134 -140h-37z" />
    <glyph glyph-name="afii10053" unicode="&#x404;" horiz-adv-x="704" 
d="M369 731q120 0 199.5 -60t97.5 -165h-44q-14 85 -83.5 136t-172.5 51q-122 0 -199 -80.5t-87 -222.5h375v-38h-376q0 -147 77 -239t206 -92q113 0 186.5 68.5t85.5 183.5h43q-12 -131 -98 -210.5t-219 -79.5q-147 0 -235.5 101t-88.5 270q0 172 90 274.5t243 102.5z" />
    <glyph glyph-name="afii10054" unicode="&#x405;" horiz-adv-x="630" 
d="M300 731q125 0 196.5 -56t76.5 -165h-44q-3 88 -65 135.5t-164 47.5q-87 0 -141.5 -40.5t-54.5 -111.5q0 -56 42 -92.5t196 -65.5q138 -25 193.5 -72t55.5 -127q0 -90 -69 -145.5t-183 -55.5q-142 0 -221 64t-79 184v5h44v-14q0 -99 68.5 -150t187.5 -51q94 0 151 44.5
t57 118.5q0 65 -50 103t-187 63q-148 27 -199 72.5t-51 118.5q0 88 66.5 139t173.5 51z" />
    <glyph glyph-name="afii10055" unicode="&#x406;" horiz-adv-x="170" 
d="M63 714h44v-714h-44v714z" />
    <glyph glyph-name="afii10056" unicode="&#x407;" horiz-adv-x="170" 
d="M63 714h44v-714h-44v714zM-16 896h44v-103h-44v103zM142 896h44v-103h-44v103z" />
    <glyph glyph-name="afii10057" unicode="&#x408;" horiz-adv-x="481" 
d="M374 714h44v-518q0 -110 -48 -161.5t-148 -51.5q-106 0 -154 54.5t-48 172.5v17h44q-1 -16 -1 -32q0 -91 37.5 -132.5t116.5 -41.5q83 0 120 40.5t37 139.5v513z" />
    <glyph glyph-name="afii10058" unicode="&#x409;" horiz-adv-x="1017" 
d="M564 714v-313h213q97 0 153.5 -53.5t56.5 -146.5q0 -90 -58 -145.5t-155 -55.5h-254v676h-291l-16 -443q-6 -133 -38.5 -188t-107.5 -55q-27 0 -65 12v40q28 -14 60 -14q56 0 80 46.5t28 178.5l16 461h378zM770 38q78 0 125.5 43t47.5 120q0 78 -47 120t-125 42h-207
v-325h206z" />
    <glyph glyph-name="afii10059" unicode="&#x40a;" horiz-adv-x="1017" 
d="M63 714h44v-313h403v313h44v-313h223q97 0 153.5 -53.5t56.5 -146.5q0 -90 -58 -145.5t-155 -55.5h-264v363h-403v-363h-44v714zM770 38q78 0 125.5 43t47.5 120q0 78 -47 120t-125 42h-217v-325h216z" />
    <glyph glyph-name="afii10060" unicode="&#x40b;" horiz-adv-x="718" 
d="M533 714v-38h-269v-302q43 29 96 43.5t95 14.5q104 0 155.5 -52.5t51.5 -149.5v-230h-44v223q0 171 -167 171q-46 0 -98 -17t-89 -45v-332h-44v676h-234v38h547z" />
    <glyph glyph-name="afii10061" unicode="&#x40c;" horiz-adv-x="613" 
d="M63 714h44v-411l449 411h57l-326 -297l346 -417h-55l-323 387l-148 -135v-252h-44v714zM382 920h51l-134 -140h-37z" />
    <glyph glyph-name="uni040D" unicode="&#x40d;" horiz-adv-x="670" 
d="M63 714h44v-659h3l442 659h55v-714h-44v659h-3l-443 -659h-54v714zM202 920h51l120 -140h-37z" />
    <glyph glyph-name="afii10062" unicode="&#x40e;" horiz-adv-x="556" 
d="M-12 714h48l251 -520l238 520h46l-302 -648q-38 -83 -115 -83q-45 0 -76 22v43q34 -27 77 -27q52 0 78 56l33 71zM181 910q11 -45 39 -66t67 -21q37 0 64 22.5t35 64.5h33q-6 -50 -44 -85t-88 -35q-57 0 -94.5 32t-44.5 88h33z" />
    <glyph glyph-name="afii10145" unicode="&#x40f;" horiz-adv-x="670" 
d="M63 714h44v-676h456v676h44v-714h-251v-184h-43v184h-250v714z" />
    <glyph glyph-name="afii10017" unicode="&#x410;" horiz-adv-x="593" 
d="M275 714h48l282 -714h-47l-90 229h-342l-91 -229h-47zM299 671l-159 -404h314l-153 404h-2z" />
    <glyph glyph-name="afii10018" unicode="&#x411;" horiz-adv-x="630" 
d="M551 714v-38h-444v-275h281q97 0 153.5 -53.5t56.5 -146.5q0 -90 -57.5 -145.5t-155.5 -55.5h-322v714h488zM375 38q84 0 131.5 42.5t47.5 120.5q0 75 -45.5 118.5t-126.5 43.5h-275v-325h268z" />
    <glyph glyph-name="afii10019" unicode="&#x412;" horiz-adv-x="630" 
d="M354 714q104 0 162 -49t58 -136q0 -55 -36.5 -98.5t-102.5 -53.5l2 -2q77 -10 119 -59t42 -116q0 -92 -65.5 -146t-178.5 -54h-291v714h291zM354 390q81 0 128.5 38.5t47.5 108.5t-48.5 104.5t-133.5 34.5h-241v-286h247zM354 38q95 0 147.5 42.5t52.5 119.5
q0 76 -55 114t-145 38h-247v-314h247z" />
    <glyph glyph-name="afii10020" unicode="&#x413;" horiz-adv-x="485" 
d="M499 714v-38h-392v-676h-44v714h436z" />
    <glyph glyph-name="afii10021" unicode="&#x414;" horiz-adv-x="670" 
d="M592 714v-676h72v-222h-43v184h-559v-184h-43v222h63q55 100 81 231t26 333v112h403zM233 595q0 -186 -24 -317.5t-79 -239.5h418v638h-315v-81z" />
    <glyph glyph-name="afii10022" unicode="&#x415;" horiz-adv-x="560" 
d="M543 714v-38h-436v-286h410v-38h-410v-314h441v-38h-485v714h480z" />
    <glyph glyph-name="afii10024" unicode="&#x416;" horiz-adv-x="980" 
d="M3 714h59l406 -374v374h44v-375l408 375h57l-305 -280l325 -434h-54l-303 405l-128 -117v-288h-44v287l-129 118l-303 -405h-53l325 433z" />
    <glyph glyph-name="afii10025" unicode="&#x417;" horiz-adv-x="624" 
d="M325 731q113 0 178.5 -50.5t65.5 -140.5q0 -66 -39.5 -110t-108.5 -55v-2q86 -14 124.5 -57.5t38.5 -117.5q0 -97 -73 -156t-195 -59q-134 0 -208 65.5t-74 187.5h44q4 -215 240 -215q100 0 161 49.5t61 127.5q0 79 -53.5 116.5t-162.5 37.5q-26 0 -66 -1v39q29 -1 66 -1
q97 0 149 39.5t52 110.5q0 74 -54 114t-146 40q-213 0 -225 -182h-44q8 109 79 164.5t190 55.5z" />
    <glyph glyph-name="afii10026" unicode="&#x418;" horiz-adv-x="670" 
d="M63 714h44v-659h3l442 659h55v-714h-44v659h-3l-443 -659h-54v714z" />
    <glyph glyph-name="afii10027" unicode="&#x419;" horiz-adv-x="670" 
d="M63 714h44v-659h3l442 659h55v-714h-44v659h-3l-443 -659h-54v714zM234 910q11 -45 39 -66t67 -21q37 0 64 22.5t35 64.5h33q-6 -50 -44 -85t-88 -35q-57 0 -94.5 32t-44.5 88h33z" />
    <glyph glyph-name="afii10028" unicode="&#x41a;" horiz-adv-x="613" 
d="M63 714h44v-411l449 411h57l-326 -297l346 -417h-55l-323 387l-148 -135v-252h-44v714z" />
    <glyph glyph-name="afii10029" unicode="&#x41b;" horiz-adv-x="652" 
d="M589 714v-714h-44v676h-316l-16 -446q-6 -129 -38.5 -184.5t-107.5 -55.5q-27 0 -65 12v40q28 -14 60 -14q57 0 80.5 50t27.5 176l16 460h403z" />
    <glyph glyph-name="afii10030" unicode="&#x41c;" horiz-adv-x="809" 
d="M126 714l279 -665h2l276 665h63v-714h-44v660h-2l-272 -660h-44l-275 660h-2v-660h-44v714h63z" />
    <glyph glyph-name="afii10031" unicode="&#x41d;" horiz-adv-x="670" 
d="M63 714h44v-324h456v324h44v-714h-44v352h-456v-352h-44v714z" />
    <glyph glyph-name="afii10032" unicode="&#x41e;" horiz-adv-x="741" 
d="M371 731q150 0 244.5 -103t94.5 -271q0 -167 -93 -270.5t-246 -103.5q-152 0 -246 103.5t-94 270.5q0 164 92.5 269t247.5 105zM75 357q0 -148 81.5 -242t214.5 -94q131 0 213 94.5t82 241.5q0 144 -81 240t-215 96q-130 0 -212.5 -93t-82.5 -243z" />
    <glyph glyph-name="afii10033" unicode="&#x41f;" horiz-adv-x="670" 
d="M607 714v-714h-44v676h-456v-676h-44v714h544z" />
    <glyph glyph-name="afii10034" unicode="&#x420;" horiz-adv-x="591" 
d="M370 714q93 0 149 -49.5t56 -149.5q0 -98 -59.5 -147.5t-164.5 -49.5h-244v-318h-44v714h307zM362 356q78 0 123.5 44t45.5 115q0 75 -44.5 118t-124.5 43h-255v-320h255z" />
    <glyph glyph-name="afii10035" unicode="&#x421;" horiz-adv-x="704" 
d="M376 731q114 0 190 -61t98 -169h-45q-13 85 -81 138.5t-162 53.5q-131 0 -213.5 -94t-82.5 -242q0 -146 81.5 -241t213.5 -95q99 0 173.5 74t82.5 183h44q-11 -124 -95 -209.5t-205 -85.5q-154 0 -246.5 105.5t-92.5 268.5q0 164 93 269t247 105z" />
    <glyph glyph-name="afii10036" unicode="&#x422;" 
d="M533 714v-38h-252v-676h-44v676h-251v38h547z" />
    <glyph glyph-name="afii10037" unicode="&#x423;" horiz-adv-x="556" 
d="M-12 714h48l251 -520l238 520h46l-302 -648q-38 -83 -115 -83q-45 0 -76 22v43q34 -27 77 -27q52 0 78 56l33 71z" />
    <glyph glyph-name="afii10038" unicode="&#x424;" horiz-adv-x="722" 
d="M339 714h44v-79q143 -2 226.5 -76.5t83.5 -199.5t-84 -199.5t-226 -76.5v-83h-44v83q-140 0 -225 75t-85 201q0 124 85 199t225 77v79zM73 359q0 -107 72.5 -171.5t193.5 -66.5v476q-119 0 -192.5 -65t-73.5 -173zM383 121q125 2 195.5 67.5t70.5 170.5q0 107 -73 172.5
t-193 65.5v-476z" />
    <glyph glyph-name="afii10039" unicode="&#x425;" horiz-adv-x="556" 
d="M1 714h51l226 -314l231 314h50l-252 -347l266 -367h-53l-242 334l-243 -334h-52l268 367z" />
    <glyph glyph-name="afii10040" unicode="&#x426;" horiz-adv-x="685" 
d="M63 714h44v-676h456v676h44v-676h72v-222h-43v184h-573v714z" />
    <glyph glyph-name="afii10041" unicode="&#x427;" horiz-adv-x="614" 
d="M49 714h44v-186q0 -99 40.5 -142.5t140.5 -43.5q107 0 233 44v328h44v-714h-44v348q-122 -44 -234 -44q-120 0 -172 51.5t-52 169.5v189z" />
    <glyph glyph-name="afii10042" unicode="&#x428;" horiz-adv-x="1008" 
d="M63 714h44v-676h375v676h44v-676h375v676h44v-714h-882v714z" />
    <glyph glyph-name="afii10043" unicode="&#x429;" horiz-adv-x="1023" 
d="M63 714h44v-676h375v676h44v-676h375v676h44v-676h72v-222h-43v184h-911v714z" />
    <glyph glyph-name="afii10044" unicode="&#x42a;" horiz-adv-x="778" 
d="M275 714v-313h263q97 0 153.5 -53.5t56.5 -146.5q0 -90 -57.5 -145.5t-155.5 -55.5h-304v676h-245v38h289zM526 38q83 0 130.5 43t47.5 120q0 76 -46 119t-131 43h-252v-325h251z" />
    <glyph glyph-name="afii10045" unicode="&#x42b;" horiz-adv-x="800" 
d="M63 714h44v-313h264q95 0 152 -52.5t57 -147.5q0 -93 -59.5 -147t-153.5 -54h-304v714zM693 714h44v-714h-44v714zM358 38q83 0 130.5 43t47.5 120q0 75 -45.5 118.5t-131.5 43.5h-252v-325h251z" />
    <glyph glyph-name="afii10046" unicode="&#x42c;" horiz-adv-x="610" 
d="M63 714h44v-313h264q95 0 152 -52.5t57 -147.5q0 -91 -57.5 -146t-155.5 -55h-304v714zM358 38q83 0 130.5 43t47.5 120q0 75 -45.5 118.5t-131.5 43.5h-252v-325h251z" />
    <glyph glyph-name="afii10047" unicode="&#x42d;" horiz-adv-x="704" 
d="M356 731q150 0 233.5 -101t83.5 -276q0 -164 -90 -267.5t-240 -103.5q-135 0 -219.5 77.5t-94.5 212.5h43q11 -120 83 -186t186 -66q129 0 208 89.5t81 241.5h-376v38h375q-11 146 -82 224.5t-192 78.5q-98 0 -170 -49.5t-97 -137.5h-44q32 111 112.5 168t199.5 57z" />
    <glyph glyph-name="afii10048" unicode="&#x42e;" horiz-adv-x="980" 
d="M610 731q152 0 245.5 -105t93.5 -269q0 -166 -94 -270t-245 -104t-244.5 102t-95.5 267h-163v-352h-44v714h44v-324h164q11 157 104 249t235 92zM314 357q0 -147 82.5 -241.5t213.5 -94.5q129 0 212 93.5t83 242.5q0 94 -36.5 172t-104 121t-155.5 43q-131 0 -213 -95
t-82 -241z" />
    <glyph glyph-name="afii10049" unicode="&#x42f;" horiz-adv-x="630" 
d="M567 714v-714h-44v325h-249l-236 -325h-51l242 328q-87 8 -136 57t-49 129q0 94 59 147t159 53h305zM87 515q0 -69 46 -110.5t128 -41.5h262v313h-259q-85 0 -131 -42t-46 -119z" />
    <glyph glyph-name="afii10065" unicode="&#x430;" horiz-adv-x="500" 
d="M257 526q94 0 136 -37t42 -93v-317q0 -46 34 -46q11 0 28 3v-32q-14 -4 -31 -4q-38 0 -53.5 17t-15.5 52v33h-2q-22 -54 -74 -84t-117 -30q-172 0 -172 145q0 69 47.5 108t165.5 46q105 7 129 24.5t24 74.5q0 107 -143 107q-69 0 -111 -33.5t-47 -103.5h-38
q8 170 198 170zM70 133q0 -54 34.5 -83t100.5 -29q91 0 141.5 52.5t50.5 132.5v86q-16 -18 -48 -24.5t-102 -11.5q-103 -8 -140 -38t-37 -85z" />
    <glyph glyph-name="afii10066" unicode="&#x431;" horiz-adv-x="537" 
d="M476 714q-8 -37 -32 -53t-77 -22l-87 -11q-99 -12 -143 -74.5t-60 -183.5h2q26 65 77 101t123 36q98 0 161.5 -70t63.5 -186q0 -117 -63.5 -190t-168.5 -73q-106 0 -168.5 77t-62.5 207q0 200 59 292t194 104q88 8 111 19q21 7 27 27h44zM79 255q0 -102 55 -168t140 -66
q86 0 139 64t53 166q0 98 -52.5 160.5t-138.5 62.5q-83 0 -139.5 -62t-56.5 -157z" />
    <glyph glyph-name="afii10067" unicode="&#x432;" horiz-adv-x="500" 
d="M297 514q70 0 111 -33t41 -93q0 -90 -95 -113v-2q114 -21 114 -130q0 -71 -48 -107t-128 -36h-235v514h240zM292 288q54 0 86.5 25t32.5 70q0 50 -33 74t-85 24h-198v-193h197zM291 33q64 0 101.5 28.5t37.5 82.5q0 51 -35.5 81t-104.5 30h-195v-222h196z" />
    <glyph glyph-name="afii10068" unicode="&#x433;" horiz-adv-x="396" 
d="M394 514v-33h-300v-481h-38v514h338z" />
    <glyph glyph-name="afii10069" unicode="&#x434;" horiz-adv-x="537" 
d="M463 514v-481h65v-194h-38v161h-441v-161h-38v194h61q76 143 76 397v84h315zM425 33v448h-240v-30q0 -149 -18 -245.5t-55 -172.5h313z" />
    <glyph glyph-name="afii10070" unicode="&#x435;" 
d="M265 526q102 0 162 -71.5t60 -186.5l-1 -16h-415q0 -109 51.5 -170t137.5 -61q147 0 184 153h38q-38 -186 -223 -186q-106 0 -166.5 72t-60.5 193q0 122 63.5 197.5t169.5 75.5zM448 285q-4 93 -54 150.5t-130 57.5t-132 -56.5t-60 -151.5h376z" />
    <glyph glyph-name="afii10072" unicode="&#x436;" horiz-adv-x="722" 
d="M13 514h57l272 -282v282h38v-283l275 283h54l-211 -214l235 -300h-52l-212 270l-89 -90v-180h-38v179l-90 91l-213 -270h-50l234 298z" />
    <glyph glyph-name="afii10073" unicode="&#x437;" horiz-adv-x="470" 
d="M243 526q84 0 131 -36.5t47 -100.5q0 -45 -29.5 -75.5t-80.5 -39.5v-1q123 -16 123 -124q0 -72 -56 -116.5t-143 -44.5q-205 0 -207 185h38q0 -152 169 -152q72 0 116.5 35.5t44.5 92.5q0 106 -151 106h-62v34h32q168 0 168 100q0 48 -37.5 76t-103.5 28
q-77 0 -116.5 -31.5t-45.5 -97.5v-1h-38q1 77 54 120t147 43z" />
    <glyph glyph-name="afii10074" unicode="&#x438;" 
d="M56 514h38v-464h1l320 464h48v-514h-38v462h-1l-321 -462h-47v514z" />
    <glyph glyph-name="afii10075" unicode="&#x439;" 
d="M56 514h38v-464h1l320 464h48v-514h-38v462h-1l-321 -462h-47v514zM157 720q11 -45 39 -66t67 -21q37 0 64 22.5t35 64.5h33q-6 -50 -44 -85t-88 -35q-57 0 -94.5 32t-44.5 88h33z" />
    <glyph glyph-name="afii10076" unicode="&#x43a;" horiz-adv-x="463" 
d="M58 514h38v-281l317 281h55l-225 -200l241 -314h-52l-219 285l-117 -99v-186h-38v514z" />
    <glyph glyph-name="afii10077" unicode="&#x43b;" horiz-adv-x="524" 
d="M468 514v-514h-38v481h-240l-11 -288q-4 -100 -31 -151.5t-92 -51.5q-27 0 -54 11v37q24 -12 52 -12q46 0 65 41.5t22 129.5l12 317h315z" />
    <glyph glyph-name="afii10078" unicode="&#x43c;" horiz-adv-x="630" 
d="M56 514h62l197 -467l197 467h62v-514h-38v478h-2l-198 -478h-42l-198 478h-2v-478h-38v514z" />
    <glyph glyph-name="afii10079" unicode="&#x43d;" 
d="M56 514h38v-224h331v224h38v-514h-38v257h-331v-257h-38v514z" />
    <glyph glyph-name="afii10080" unicode="&#x43e;" horiz-adv-x="537" 
d="M268 526q106 0 171 -75.5t65 -193.5q0 -119 -64 -194t-172 -75q-106 0 -171 74t-65 195q0 119 65 194t171 75zM70 257q0 -101 54.5 -168.5t143.5 -67.5q87 0 142.5 65.5t55.5 170.5q0 103 -55 169.5t-144 66.5q-87 0 -142 -67t-55 -169z" />
    <glyph glyph-name="afii10081" unicode="&#x43f;" 
d="M463 514v-514h-38v481h-331v-481h-38v514h407z" />
    <glyph glyph-name="afii10082" unicode="&#x440;" horiz-adv-x="556" 
d="M292 526q107 0 169 -75t62 -195q0 -126 -59.5 -197t-171.5 -71q-143 0 -187 119h-2v-291h-38v698h38v-118h2q20 58 69.5 94t117.5 36zM104 256q0 -114 47 -174.5t141 -60.5q90 0 141.5 63t51.5 172q0 106 -52 171.5t-142 65.5q-89 0 -138 -63.5t-49 -173.5z" />
    <glyph glyph-name="afii10083" unicode="&#x441;" 
d="M269 526q90 0 147 -45t65 -126h-38q-6 66 -54 102t-120 36q-86 0 -142 -64.5t-56 -166.5q0 -114 53.5 -177.5t144.5 -63.5q70 0 120 45.5t59 114.5h38q-12 -90 -72 -141.5t-145 -51.5q-110 0 -173 73.5t-63 200.5q0 116 64.5 190t171.5 74z" />
    <glyph glyph-name="afii10084" unicode="&#x442;" horiz-adv-x="444" 
d="M436 514v-33h-195v-481h-38v481h-195v33h428z" />
    <glyph glyph-name="afii10085" unicode="&#x443;" horiz-adv-x="444" 
d="M-6 514h45l191 -469l176 469h43l-219 -566q-23 -58 -39 -83.5t-41.5 -37t-88.5 -11.5h-12v33h8q49 0 76 15t38 39t38 100z" />
    <glyph glyph-name="afii10086" unicode="&#x444;" horiz-adv-x="766" 
d="M364 714h38v-266q51 78 139 78q89 0 138.5 -73t49.5 -196q0 -119 -52.5 -194t-140.5 -75q-92 0 -134 75v-247h-38v247q-48 -75 -139 -75q-88 0 -138 73.5t-50 195.5q0 123 53.5 196t142.5 73q47 0 81 -21.5t50 -53.5v263zM75 257q0 -111 40 -173.5t113 -62.5q56 0 96 39
t40 89v213q0 50 -37 90.5t-91 40.5q-75 0 -118 -62t-43 -174zM402 149q0 -51 38 -89.5t93 -38.5q72 0 115 64.5t43 171.5q0 112 -40.5 174t-115.5 62q-51 0 -92 -40t-41 -92v-212z" />
    <glyph glyph-name="afii10087" unicode="&#x445;" horiz-adv-x="444" 
d="M8 514h53l161 -215l162 215h49l-186 -244l203 -270h-52l-176 241l-180 -241h-48l202 270z" />
    <glyph glyph-name="afii10088" unicode="&#x446;" horiz-adv-x="537" 
d="M56 514h38v-481h331v481h38v-481h65v-194h-38v161h-434v514z" />
    <glyph glyph-name="afii10089" unicode="&#x447;" horiz-adv-x="483" 
d="M43 514h38v-143q0 -127 132 -127q83 0 176 34v236h38v-514h-38v245q-95 -34 -178 -34q-168 0 -168 161v142z" />
    <glyph glyph-name="afii10090" unicode="&#x448;" horiz-adv-x="768" 
d="M56 514h38v-481h271v481h38v-481h271v481h38v-514h-656v514z" />
    <glyph glyph-name="afii10091" unicode="&#x449;" horiz-adv-x="789" 
d="M56 514h38v-481h271v481h38v-481h271v481h38v-481h65v-194h-38v161h-683v514z" />
    <glyph glyph-name="afii10092" unicode="&#x44a;" horiz-adv-x="611" 
d="M217 514v-215h211q71 0 113 -39.5t42 -108.5q0 -71 -43.5 -111t-114.5 -40h-246v481h-171v33h209zM416 33q63 0 96 31t33 87t-35.5 85.5t-92.5 29.5h-200v-233h199z" />
    <glyph glyph-name="afii10093" unicode="&#x44b;" horiz-adv-x="630" 
d="M56 514h38v-215h201q71 0 113 -39.5t42 -108.5q0 -72 -43.5 -111.5t-118.5 -39.5h-232v514zM536 514h38v-514h-38v514zM283 33q63 0 96 31t33 87q0 54 -34.5 84.5t-93.5 30.5h-190v-233h189z" />
    <glyph glyph-name="afii10094" unicode="&#x44c;" horiz-adv-x="488" 
d="M56 514h38v-215h206q77 0 118.5 -39.5t41.5 -108.5q0 -71 -43.5 -111t-114.5 -40h-246v514zM297 33q58 0 91.5 30.5t33.5 87.5q0 56 -35.5 85.5t-93.5 29.5h-199v-233h203z" />
    <glyph glyph-name="afii10095" unicode="&#x44d;" 
d="M253 526q112 0 171.5 -71t59.5 -201q0 -123 -63 -194.5t-172 -71.5q-88 0 -147.5 46t-71.5 137h38q10 -72 57.5 -111t122.5 -39q89 0 142.5 59t55.5 172h-278v33h277q-8 101 -57.5 154.5t-134.5 53.5q-66 0 -113.5 -33.5t-63.5 -96.5h-38q18 79 73.5 121t141.5 42z" />
    <glyph glyph-name="afii10096" unicode="&#x44e;" horiz-adv-x="730" 
d="M461 526q106 0 171 -75.5t65 -193.5q0 -119 -64 -194t-172 -75q-105 0 -169.5 74t-66.5 195h-131v-257h-38v514h38v-224h132q12 112 76 174t159 62zM263 257q0 -102 55.5 -169t142.5 -67q89 0 143.5 68t54.5 168t-55 168t-144 68q-85 0 -141 -66.5t-56 -169.5z" />
    <glyph glyph-name="afii10097" unicode="&#x44f;" horiz-adv-x="488" 
d="M432 514v-514h-38v222h-178l-168 -222h-48l172 223q-62 8 -97.5 45t-35.5 99q0 69 44 108t114 39h235zM78 367q0 -56 34.5 -84t84.5 -28h197v226h-194q-54 0 -88 -30.5t-34 -83.5z" />
    <glyph glyph-name="uni0450" unicode="&#x450;" 
d="M265 526q102 0 162 -71.5t60 -186.5l-1 -16h-415q0 -109 51.5 -170t137.5 -61q147 0 184 153h38q-38 -186 -223 -186q-106 0 -166.5 72t-60.5 193q0 122 63.5 197.5t169.5 75.5zM448 285q-4 93 -54 150.5t-130 57.5t-132 -56.5t-60 -151.5h376zM127 730h51l120 -140h-37z
" />
    <glyph glyph-name="afii10071" unicode="&#x451;" 
d="M265 526q102 0 162 -71.5t60 -186.5l-1 -16h-415q0 -109 51.5 -170t137.5 -61q147 0 184 153h38q-38 -186 -223 -186q-106 0 -166.5 72t-60.5 193q0 122 63.5 197.5t169.5 75.5zM448 285q-4 93 -54 150.5t-130 57.5t-132 -56.5t-60 -151.5h376zM160 706h44v-103h-44v103z
M318 706h44v-103h-44v103z" />
    <glyph glyph-name="afii10099" unicode="&#x452;" 
d="M56 714h38v-92h227v-33h-227v-197h2q20 55 70.5 88.5t113.5 33.5q90 0 136.5 -48t46.5 -154v-238q0 -121 -59.5 -191.5t-179.5 -78.5v37q201 16 201 230v247q0 163 -146 163q-82 0 -133.5 -58.5t-51.5 -152.5v-270h-38v589h-67v33h67v92z" />
    <glyph glyph-name="afii10100" unicode="&#x453;" horiz-adv-x="396" 
d="M394 514v-33h-300v-481h-38v514h338zM276 730h51l-134 -140h-37z" />
    <glyph glyph-name="afii10101" unicode="&#x454;" horiz-adv-x="517" 
d="M272 526q85 0 140 -42.5t68 -120.5h-38q-11 63 -56 96.5t-114 33.5q-85 0 -139 -53t-62 -155h277v-33h-278q2 -111 51.5 -171t140.5 -60q73 0 122 39t62 111h38q-13 -88 -73.5 -135.5t-149.5 -47.5q-109 0 -169 70t-60 196q0 125 64 198.5t176 73.5z" />
    <glyph glyph-name="afii10102" unicode="&#x455;" horiz-adv-x="481" 
d="M240 526q91 0 140.5 -42t49.5 -122h-38q0 64 -40 97.5t-112 33.5q-63 0 -105.5 -25.5t-42.5 -73.5q0 -41 33 -68q30 -24 162 -50q83 -17 120.5 -50t37.5 -96q0 -70 -55.5 -106t-145.5 -36q-93 0 -149.5 48.5t-58.5 134.5h38q4 -69 50.5 -109.5t119.5 -40.5q75 0 119 27.5
t44 81.5q0 45 -33.5 71.5t-140.5 46.5q-98 17 -138.5 51t-40.5 95q0 63 50 97.5t136 34.5z" />
    <glyph glyph-name="afii10103" unicode="&#x456;" horiz-adv-x="168" 
d="M65 714h38v-103h-38v103zM65 514h38v-514h-38v514z" />
    <glyph glyph-name="afii10104" unicode="&#x457;" horiz-adv-x="168" 
d="M65 514h38v-514h-38v514zM-17 706h44v-103h-44v103zM141 706h44v-103h-44v103z" />
    <glyph glyph-name="afii10105" unicode="&#x458;" horiz-adv-x="168" 
d="M65 714h38v-103h-38v103zM65 514h38v-571q0 -68 -26.5 -97.5t-81.5 -29.5q-16 0 -29 1v33q14 -2 27 -2q41 0 56.5 23t15.5 73v570z" />
    <glyph glyph-name="afii10106" unicode="&#x459;" horiz-adv-x="778" 
d="M438 514v-215h152q77 0 118.5 -39.5t41.5 -108.5q0 -71 -43.5 -111t-119.5 -40h-187v481h-210l-11 -288q-4 -102 -31 -152.5t-92 -50.5q-27 0 -54 11v37q24 -12 52 -12q46 0 65 41.5t22 129.5l12 317h285zM587 33q59 0 92 31t33 87t-35.5 85.5t-93.5 29.5h-145v-233h149z
" />
    <glyph glyph-name="afii10107" unicode="&#x45a;" horiz-adv-x="772" 
d="M56 514h38v-215h286v215h38v-215h167q76 0 117.5 -39.5t41.5 -108.5q0 -71 -43.5 -111t-114.5 -40h-206v266h-286v-266h-38v514zM582 33q58 0 91 31t33 87q0 54 -34 84.5t-93 30.5h-161v-233h164z" />
    <glyph glyph-name="afii10108" unicode="&#x45b;" 
d="M56 714h38v-92h227v-33h-227v-197h2q20 57 71 89.5t113 32.5q89 0 136 -47t47 -153v-314h-38v318q0 163 -146 163q-82 0 -133.5 -58.5t-51.5 -152.5v-270h-38v589h-67v33h67v92z" />
    <glyph glyph-name="afii10109" unicode="&#x45c;" horiz-adv-x="463" 
d="M58 514h38v-281l317 281h55l-225 -200l241 -314h-52l-219 285l-117 -99v-186h-38v514zM317 730h51l-134 -140h-37z" />
    <glyph glyph-name="uni045D" unicode="&#x45d;" 
d="M56 514h38v-464h1l320 464h48v-514h-38v462h-1l-321 -462h-47v514zM125 730h51l120 -140h-37z" />
    <glyph glyph-name="afii10110" unicode="&#x45e;" horiz-adv-x="444" 
d="M-6 514h45l191 -469l176 469h43l-219 -566q-23 -58 -39 -83.5t-41.5 -37t-88.5 -11.5h-12v33h8q49 0 76 15t38 39t38 100zM127 720q11 -45 39 -66t67 -21q37 0 64 22.5t35 64.5h33q-6 -50 -44 -85t-88 -35q-57 0 -94.5 32t-44.5 88h33z" />
    <glyph glyph-name="afii10193" unicode="&#x45f;" 
d="M56 514h38v-481h331v481h38v-514h-184v-161h-38v161h-185v514z" />
    <glyph glyph-name="afii10146" unicode="&#x462;" horiz-adv-x="686" 
d="M139 714h44v-105h224v-38h-224v-170h258q102 0 158.5 -53t56.5 -147q0 -90 -57.5 -145.5t-155.5 -55.5h-304v571h-152v38h152v105zM434 38q82 0 130 42.5t48 120.5q0 76 -45.5 119t-131.5 43h-252v-325h251z" />
    <glyph glyph-name="afii10194" unicode="&#x463;" horiz-adv-x="554" 
d="M122 714h38v-200h194v-33h-194v-182h210q71 0 113.5 -39t42.5 -109q0 -72 -44 -111.5t-113 -39.5h-247v481h-125v33h125v200zM363 33q57 0 91 30.5t34 87.5q0 56 -35 85.5t-95 29.5h-198v-233h203z" />
    <glyph glyph-name="afii10147" unicode="&#x472;" horiz-adv-x="741" 
d="M371 731q153 0 246 -104.5t93 -269.5q0 -167 -93 -270.5t-246 -103.5q-151 0 -245.5 103t-94.5 271q0 105 42 192t118.5 134.5t179.5 47.5zM665 390q-12 141 -93.5 222t-201.5 81q-122 0 -202.5 -83t-92.5 -220h590zM371 21q129 0 210.5 91t85.5 240h-593
q2 -147 84.5 -239t212.5 -92z" />
    <glyph glyph-name="afii10195" unicode="&#x473;" horiz-adv-x="537" 
d="M268 526q106 0 171 -74t65 -195q0 -119 -64 -194t-172 -75q-105 0 -170.5 74t-65.5 195q0 119 64 194t172 75zM466 285q-9 95 -64 151.5t-135 56.5t-133.5 -57t-63.5 -151h396zM268 21q86 0 141 64t58 167h-398q4 -107 59.5 -169t139.5 -62z" />
    <glyph glyph-name="afii10148" unicode="&#x474;" horiz-adv-x="598" 
d="M598 731q17 0 39 -6v-39q-21 7 -36 7q-29 0 -45 -16.5t-30 -54.5l-223 -622h-51l-266 714h46l245 -676h2l207 596q17 51 43.5 74t68.5 23z" />
    <glyph glyph-name="afii10196" unicode="&#x475;" horiz-adv-x="460" 
d="M463 526q17 0 34 -4v-34q-15 5 -32 5q-21 0 -33.5 -12.5t-25.5 -47.5l-154 -433h-47l-207 514h44l186 -470h2l143 409q24 73 90 73z" />
    <glyph glyph-name="afii10050" unicode="&#x490;" horiz-adv-x="485" 
d="M451 882h43v-206h-387v-676h-44v714h388v168z" />
    <glyph glyph-name="afii10098" unicode="&#x491;" horiz-adv-x="396" 
d="M352 673h38v-192h-296v-481h-38v514h296v159z" />
    <glyph glyph-name="uni20B9" unicode="&#x20b9;" horiz-adv-x="556" 
d="M339 654q74 -29 81 -132h123v-30h-122q-4 -86 -60.5 -129.5t-159.5 -43.5h-80l317 -319h-51l-314 319v33h118q97 0 143 34t49 106h-310v30h309q-5 68 -48 100t-141 32h-120v30h470v-30h-204z" />
    <glyph glyph-name="uni20BA" unicode="&#x20ba;" horiz-adv-x="556" 
d="M135 317l-89 -42v35l89 42v104l-89 -42v35l89 42v199h38v-181l230 109v-35l-230 -109v-104l230 109v-35l-230 -109v-302h8q145 0 222 79t77 228h38q0 -161 -86.5 -250.5t-250.5 -89.5h-46v317z" />
    <glyph glyph-name="uni1E9E" unicode="&#x1e9e;" horiz-adv-x="634" 
d="M305 539q0 -55 34 -87.5t99 -59.5q105 -45 142.5 -93t37.5 -124q0 -89 -57.5 -140.5t-154.5 -51.5q-100 0 -152.5 50.5t-52.5 145.5h43q0 -78 42 -118t120 -40q73 0 120.5 40t47.5 113q0 69 -35 108t-109 69q-91 36 -130 80t-39 108q0 58 41 97t111 54q-42 5 -113 5
q-106 0 -149.5 -44.5t-43.5 -134.5v-516h-44v525q0 206 236 206q117 0 224 -14l-1 -39q-90 0 -153.5 -39.5t-63.5 -99.5z" />
    <glyph glyph-name="uni20BC" unicode="&#x20bc;" horiz-adv-x="672" 
d="M355 70h-38v463q-74 -3 -131.5 -63.5t-90.5 -173t-33 -237.5v-59h-38v67q0 135 38.5 253t103.5 180.5t151 65.5v124h38v-124q86 -3 151 -65.5t103.5 -181t38.5 -252.5v-67h-38v59q0 124 -33 237t-90.5 173.5t-131.5 63.5v-463z" />
    <glyph glyph-name="ruble" unicode="&#x20bd;" horiz-adv-x="556" 
d="M26 360h85v330h218q215 0 215 -182q0 -88 -58.5 -134.5t-167.5 -46.5h-169v-94h208v-33h-208v-200h-38v200h-85v33h85v94h-85v33zM319 360q187 0 187 149q0 148 -182 148h-175v-297h170z" />
    </font>
</defs>
</svg>
